<?xml version="1.0" encoding="utf-8"?>
<!-- Generator: Adobe Illustrator 16.0.0, SVG Export Plug-In . SVG Version: 6.00 Build 0)  -->
<!DOCTYPE svg PUBLIC "-//W3C//DTD SVG 1.1//EN" "http://www.w3.org/Graphics/SVG/1.1/DTD/svg11.dtd">
<svg version="1.1" id="Layer_1" xmlns="http://www.w3.org/2000/svg" xmlns:xlink="http://www.w3.org/1999/xlink" x="0px" y="0px"
	 width="89.649px" height="40.833px" viewBox="0 0 89.649 40.833" enable-background="new 0 0 89.649 40.833" xml:space="preserve">
<g>
	<path fill="#FFFFFF" d="M14.175,11.235c-0.04,1.816-0.16,3.014-0.379,3.572c-0.18,0.499-0.759,0.759-1.757,0.759h-9.7V13.73
		c0.898-0.08,1.397-0.18,1.537-0.319c0.1-0.12,0.16-0.539,0.16-1.258V5.367c0-0.658-0.04-1.037-0.14-1.157
		c-0.12-0.18-0.639-0.3-1.558-0.319V2.055c0.919,0.04,2.096,0.06,3.533,0.06c0.758,0,1.916-0.02,3.473-0.06v1.836
		C8.486,3.91,7.987,4.03,7.808,4.23c-0.1,0.14-0.159,0.538-0.159,1.177v6.767c0,0.519,0.18,0.798,0.539,0.857
		c0.358,0.061,0.857,0.08,1.477,0.08c1.218,0,1.996-0.18,2.295-0.519c0.2-0.22,0.38-0.679,0.56-1.357H14.175z"/>
	<path fill="#FFFFFF" d="M24.636,14.349c-1.257,0.998-2.854,1.497-4.77,1.497c-1.378,0-2.535-0.419-3.434-1.277
		c-0.897-0.858-1.356-1.996-1.356-3.433c0-1.617,0.459-2.895,1.396-3.792c0.938-0.898,2.176-1.357,3.692-1.357
		c2.814,0,4.231,1.637,4.231,4.111c0,0.539-0.1,0.938-0.3,1.158c-0.199,0.239-0.559,0.358-1.058,0.358h-4.61v0.14
		c0,0.799,0.799,1.497,2.056,1.497c1.038,0,2.116-0.259,3.214-0.778L24.636,14.349z M21.243,9.619v-0.2
		c0-0.639-0.499-1.098-1.237-1.098c-0.879,0-1.518,0.419-1.577,1.357L21.243,9.619z"/>
	<path fill="#FFFFFF" d="M35.775,15.387c-0.719,0.239-1.497,0.359-2.335,0.359c-0.838,0.02-1.517-0.08-1.916-1.098
		c-0.759,0.758-1.677,1.138-2.754,1.138c-0.858,0-1.597-0.239-2.216-0.719c-0.618-0.499-0.938-1.218-0.938-2.155
		c0-1.937,1.418-2.895,4.87-2.895c0.34,0,0.579,0,0.679,0.021V9.579c0-0.419-0.04-0.699-0.14-0.858
		c-0.159-0.279-0.519-0.419-1.098-0.419c-0.499,0-0.858,0.079-1.078,0.239c-0.219,0.18-0.358,0.579-0.398,1.157h-1.916
		c-0.101-0.559-0.16-1.138-0.16-1.716c0-0.659,0.319-1.158,0.958-1.478c0.719-0.339,1.656-0.519,2.794-0.519
		c1.856,0,3.074,0.319,3.652,0.978c0.42,0.46,0.639,1.218,0.639,2.275c0,0.3,0,0.898-0.02,1.797v1.396
		c0,0.719,0.239,1.078,0.698,1.078c0.279,0,0.499-0.021,0.679-0.04V15.387z M31.165,11.914c-0.14-0.02-0.339-0.04-0.618-0.04
		c-1.078,0-1.617,0.3-1.617,0.878c0,0.56,0.439,0.839,0.918,0.839c0.479,0,0.918-0.08,1.317-0.26V11.914z"/>
	<path fill="#FFFFFF" d="M42.724,15.586c-1.177-0.02-2.195-0.039-3.093-0.039c-1.518,0-2.575,0.02-3.174,0.039v-1.815
		c0.679-0.08,1.078-0.18,1.218-0.319c0.1-0.101,0.159-0.459,0.159-1.078V9.938c0-0.699-0.1-1.098-0.299-1.198
		c-0.14-0.079-0.34-0.119-0.619-0.119c-0.199,0-0.359,0-0.459,0.02V6.845c1.078-0.52,2.176-0.778,3.273-0.778
		c0.778,0,1.237,0.398,1.377,1.178c0.539-0.719,1.497-1.238,2.315-1.238c0.958,0,1.437,0.459,1.437,1.357
		c0,0.439-0.08,1.158-0.22,2.136h-1.995c-0.14-0.778-0.3-1.018-0.719-1.018c-0.26,0-0.519,0.1-0.778,0.319v3.513
		c0,0.639,0.08,1.037,0.239,1.197c0.12,0.12,0.559,0.199,1.337,0.26V15.586z"/>
	<path fill="#FFFFFF" d="M51.089,15.586c-1.177-0.02-1.976-0.039-2.414-0.039c-1.518,0-2.575,0.02-3.174,0.039v-1.815
		c0.679-0.08,1.078-0.18,1.218-0.319c0.1-0.101,0.159-0.459,0.159-1.078V9.938c0-0.699-0.1-1.098-0.299-1.198
		c-0.14-0.079-0.34-0.119-0.619-0.119c-0.199,0-0.359,0-0.459,0.02V6.845c1.078-0.52,2.176-0.778,3.273-0.778
		c0.858,0,1.317,0.459,1.396,1.396c0.778-0.878,2.116-1.417,3.214-1.417c0.838,0,1.477,0.22,1.936,0.639
		c0.479,0.459,0.719,1.357,0.719,2.675v3.014c0,0.579,0.04,0.918,0.1,1.018c0.14,0.22,0.359,0.3,1.298,0.38v1.815
		c-1.118-0.02-2.017-0.039-2.715-0.039c-0.778,0-1.736,0.02-2.914,0.039v-1.815c0.38-0.061,0.639-0.16,0.759-0.28
		c0.1-0.1,0.159-0.498,0.159-1.157v-2.075c0-0.699-0.1-1.138-0.279-1.317c-0.14-0.16-0.438-0.239-0.897-0.239
		c-0.38,0-0.818,0.079-1.357,0.259v3.394c0,0.698,0.06,1.098,0.159,1.197c0.12,0.1,0.359,0.18,0.738,0.22V15.586z"/>
	<path fill="#FFFFFF" d="M64.205,15.586c-1.178-0.02-2.155-0.039-2.934-0.039c-1.518,0-2.575,0.02-3.174,0.039v-1.815
		c0.679-0.08,1.078-0.18,1.218-0.319c0.1-0.101,0.159-0.459,0.159-1.078V9.938c0-0.699-0.1-1.098-0.299-1.198
		c-0.14-0.079-0.34-0.119-0.619-0.119c-0.199,0-0.359,0-0.459,0.02V6.845c1.078-0.52,2.176-0.778,3.293-0.778
		c0.979,0,1.478,0.559,1.478,1.676c0,0.399-0.021,1.138-0.04,2.196c-0.021,1.058-0.04,1.876-0.04,2.415
		c0,0.599,0.06,0.978,0.199,1.117s0.559,0.239,1.218,0.3V15.586z M60.852,4.749c-1.098,0-1.796-0.818-1.796-1.796
		c0-1.059,0.759-1.816,1.856-1.816c1.217,0,1.815,0.718,1.815,1.776C62.728,3.95,62.029,4.749,60.852,4.749z"/>
	<path fill="#FFFFFF" d="M70.413,15.586c-1.177-0.02-1.976-0.039-2.414-0.039c-1.518,0-2.575,0.02-3.174,0.039v-1.815
		c0.679-0.08,1.078-0.18,1.218-0.319c0.1-0.101,0.159-0.459,0.159-1.078V9.938c0-0.699-0.1-1.098-0.299-1.198
		c-0.14-0.079-0.34-0.119-0.619-0.119c-0.199,0-0.359,0-0.459,0.02V6.845c1.078-0.52,2.176-0.778,3.273-0.778
		c0.858,0,1.317,0.459,1.396,1.396c0.778-0.878,2.116-1.417,3.214-1.417c0.838,0,1.477,0.22,1.936,0.639
		c0.479,0.459,0.719,1.357,0.719,2.675v3.014c0,0.579,0.04,0.918,0.1,1.018c0.14,0.22,0.359,0.3,1.298,0.38v1.815
		c-1.118-0.02-2.017-0.039-2.715-0.039c-0.778,0-1.736,0.02-2.914,0.039v-1.815c0.38-0.061,0.639-0.16,0.759-0.28
		c0.1-0.1,0.159-0.498,0.159-1.157v-2.075c0-0.699-0.1-1.138-0.279-1.317c-0.14-0.16-0.438-0.239-0.897-0.239
		c-0.38,0-0.818,0.079-1.357,0.259v3.394c0,0.698,0.06,1.098,0.159,1.197c0.12,0.1,0.359,0.18,0.738,0.22V15.586z"/>
	<path fill="#FFFFFF" d="M80.935,13.511c0,0.279,0.319,0.459,0.979,0.519c0.519,0.04,1.976,0.16,3.413,0.34
		c1.736,0.239,2.614,1.217,2.614,2.934c0,2.335-2.176,3.852-5.628,3.852c-3.732,0-5.35-1.157-5.35-2.773
		c0-0.659,0.28-1.198,0.839-1.617c0.299-0.22,0.758-0.419,1.377-0.618c-0.619-0.319-0.918-0.799-0.918-1.438
		c0-0.738,0.438-1.437,1.337-2.075c-1.317-0.539-1.976-1.557-1.976-3.034c0-2.155,1.677-3.612,4.65-3.612
		c1.217,0,2.155,0.199,2.794,0.599c1.297,0,2.335,0.021,3.073,0.06v1.996c-0.159,0.021-0.658,0.04-1.517,0.061
		c0.06,0.159,0.1,0.398,0.1,0.738c0,2.335-1.597,3.692-4.61,3.692c-0.438,0-0.738-0.021-0.918-0.061
		C81.015,13.172,80.935,13.331,80.935,13.511z M80.057,17.582c0,0.738,0.858,1.118,2.575,1.118c1.177,0,1.776-0.279,1.776-0.818
		c0-0.34-0.359-0.56-1.099-0.639c-1.456-0.14-2.414-0.3-2.834-0.459C80.196,17.063,80.057,17.322,80.057,17.582z M82.232,8.202
		c-0.778,0-1.258,0.538-1.258,1.316c0,0.958,0.419,1.438,1.277,1.438c0.778,0,1.237-0.499,1.237-1.438
		C83.489,8.641,83.07,8.202,82.232,8.202z"/>
</g>
<g>
	<path fill="#FFFFFF" d="M17.004,34.13c-0.079,2.133-0.264,3.527-0.553,4.159c-0.237,0.553-0.869,1.026-1.843,1.369
		c-1.185,0.474-2.685,0.71-4.527,0.71c-5.791,0-9.134-3.237-9.134-8.949c0-6.027,3.554-9.634,9.792-9.634
		c2.105,0,3.632,0.237,4.606,0.685c0.974,0.474,1.447,1.105,1.447,1.869c0,1.079-0.132,2.29-0.368,3.632H13.74
		c-0.132-1.079-0.316-1.763-0.579-2.105c-0.396-0.5-1.264-0.737-2.554-0.737s-2.396,0.501-3.316,1.475s-1.369,2.474-1.369,4.554
		c0,2.211,0.658,3.843,1.633,4.658c1.026,0.816,2,1.132,3.079,1.132c1.29,0,2.185-0.236,2.658-0.71
		c0.343-0.343,0.658-1.026,0.975-2.106H17.004z"/>
	<path fill="#FFFFFF" d="M26.4,40.026c-1.553-0.026-2.843-0.053-3.869-0.053c-2.001,0-3.396,0.026-4.186,0.053v-2.396
		c0.896-0.105,1.422-0.236,1.605-0.421c0.132-0.132,0.211-0.605,0.211-1.421v-3.212c0-0.921-0.132-1.447-0.395-1.579
		c-0.185-0.105-0.447-0.158-0.816-0.158c-0.263,0-0.474,0-0.605,0.026v-2.369c1.422-0.684,2.869-1.026,4.344-1.026
		c1.289,0,1.947,0.737,1.947,2.211c0,0.526-0.026,1.501-0.053,2.896c-0.026,1.396-0.053,2.475-0.053,3.186
		c0,0.789,0.079,1.289,0.264,1.474c0.184,0.185,0.736,0.315,1.605,0.395V40.026z M21.979,25.733c-1.448,0-2.369-1.079-2.369-2.368
		c0-1.396,1-2.396,2.448-2.396c1.605,0,2.395,0.947,2.395,2.343C24.452,24.681,23.531,25.733,21.979,25.733z"/>
	<path fill="#FFFFFF" d="M35.56,40.026c-1.554-0.026-2.896-0.053-4.08-0.053c-2.001,0-3.396,0.026-4.186,0.053v-2.396
		c0.896-0.105,1.422-0.236,1.605-0.421c0.132-0.132,0.211-0.605,0.211-1.421v-3.212c0-0.921-0.132-1.447-0.395-1.579
		c-0.185-0.105-0.447-0.158-0.816-0.158c-0.263,0-0.474,0-0.605,0.026v-2.369c1.422-0.684,2.869-1.026,4.317-1.026
		c1.026,0,1.632,0.526,1.815,1.554c0.711-0.948,1.975-1.633,3.054-1.633c1.264,0,1.896,0.605,1.896,1.79
		c0,0.579-0.105,1.527-0.29,2.816h-2.632c-0.185-1.026-0.396-1.342-0.948-1.342c-0.342,0-0.684,0.131-1.026,0.421v4.633
		c0,0.842,0.105,1.368,0.316,1.579c0.157,0.158,0.736,0.263,1.764,0.342V40.026z"/>
	<path fill="#FFFFFF" d="M50.878,38.604c-1.396,1.132-3.501,1.764-5.396,1.764c-1.815,0-3.316-0.553-4.501-1.658
		c-1.184-1.132-1.763-2.632-1.763-4.527c0-2.132,0.631-3.816,1.868-5.001c1.264-1.211,2.869-1.816,4.844-1.816
		c1.236,0,2.211,0.105,2.921,0.343c1.158,0.395,1.685,0.815,1.685,1.843c0,1.026-0.078,1.974-0.21,2.79h-2.58
		c-0.079-0.816-0.289-1.316-0.605-1.501c-0.184-0.184-0.579-0.263-1.132-0.263c-1.184,0-2.264,0.974-2.264,3.264
		c0,2.501,1.158,3.158,2.738,3.158c0.974,0,2.026-0.289,3.211-0.842L50.878,38.604z"/>
	<path fill="#FFFFFF" d="M59.801,40.026c-1.579-0.026-2.869-0.053-3.843-0.053c-1.974,0-3.369,0.026-4.159,0.053v-2.396
		c0.896-0.105,1.422-0.236,1.606-0.421c0.131-0.132,0.184-0.605,0.184-1.396v-8.527c0-1.764-0.132-2.764-0.395-2.975
		c-0.158-0.158-0.421-0.237-0.79-0.237c-0.289,0-0.474,0-0.605,0.026v-2.316c1.58-0.684,3.08-1.026,4.501-1.026
		c1.132,0,1.711,0.711,1.711,2.158c0,0.526,0,1.316-0.026,2.396v2.264v8.187c0,0.815,0.105,1.342,0.316,1.526
		c0.132,0.132,0.632,0.263,1.5,0.342V40.026z"/>
	<path fill="#FFFFFF" d="M73.698,38.395c-1.658,1.316-3.764,1.974-6.291,1.974c-1.815,0-3.343-0.553-4.527-1.685
		s-1.789-2.632-1.789-4.527c0-2.132,0.604-3.816,1.842-5.001s2.869-1.79,4.87-1.79c3.711,0,5.58,2.159,5.58,5.423
		c0,0.711-0.132,1.237-0.396,1.526c-0.263,0.316-0.736,0.474-1.395,0.474h-6.08v0.185c0,1.053,1.053,1.974,2.711,1.974
		c1.368,0,2.79-0.342,4.237-1.026L73.698,38.395z M69.224,32.156v-0.264c0-0.842-0.658-1.447-1.632-1.447
		c-1.158,0-2,0.553-2.079,1.79L69.224,32.156z"/>
	<path fill="#FFFFFF" d="M77.672,35.104c0.132,0.789,0.396,1.368,0.816,1.711c0.447,0.447,1.158,0.657,2.132,0.657
		c0.921,0,1.396-0.21,1.396-0.657c0-0.422-0.158-0.553-0.658-0.764l-2.422-0.895c-1.447-0.526-2.422-1.054-2.869-1.606
		s-0.658-1.263-0.658-2.185c0-2.29,2.185-4.001,5.949-4.001c1.5,0,2.658,0.211,3.526,0.605c0.605,0.316,0.922,0.896,0.922,1.737
		c0,0.79-0.079,1.58-0.211,2.396h-2.237c-0.158-0.764-0.395-1.264-0.711-1.5c-0.368-0.237-0.974-0.343-1.842-0.343
		c-0.711,0-1.079,0.237-1.079,0.685c0,0.343,0.21,0.553,0.631,0.685l2.475,0.895c1.422,0.5,2.369,1.001,2.843,1.554
		c0.474,0.526,0.711,1.263,0.711,2.211c0,1.342-0.553,2.342-1.685,3.053c-1.105,0.685-2.527,1.026-4.265,1.026
		c-1.368,0-2.474-0.131-3.29-0.395c-1.474-0.447-1.895-1.132-1.895-2.316s0.052-2.026,0.131-2.553H77.672z"/>
</g>
</svg>
