<?xml version="1.0" encoding="UTF-8" standalone="no"?>
<svg
   xmlns:dc="http://purl.org/dc/elements/1.1/"
   xmlns:cc="http://creativecommons.org/ns#"
   xmlns:rdf="http://www.w3.org/1999/02/22-rdf-syntax-ns#"
   xmlns:svg="http://www.w3.org/2000/svg"
   xmlns="http://www.w3.org/2000/svg"
   xmlns:sodipodi="http://sodipodi.sourceforge.net/DTD/sodipodi-0.dtd"
   xmlns:inkscape="http://www.inkscape.org/namespaces/inkscape"
   width="160"
   height="160"
   viewBox="0 0 160 160"
   version="1.1"
   id="svg952"
   sodipodi:docname="create-account-tools.svg"
   style="fill:none"
   inkscape:version="0.92.5 (2060ec1f9f, 2020-04-08)">
  <metadata
     id="metadata958">
    <rdf:RDF>
      <cc:Work
         rdf:about="">
        <dc:format>image/svg+xml</dc:format>
        <dc:type
           rdf:resource="http://purl.org/dc/dcmitype/StillImage" />
        <dc:title></dc:title>
      </cc:Work>
    </rdf:RDF>
  </metadata>
  <defs
     id="defs956" />
  <sodipodi:namedview
     pagecolor="#ffffff"
     bordercolor="#666666"
     borderopacity="1"
     objecttolerance="10"
     gridtolerance="10"
     guidetolerance="10"
     inkscape:pageopacity="0"
     inkscape:pageshadow="2"
     inkscape:window-width="1310"
     inkscape:window-height="717"
     id="namedview954"
     showgrid="false"
     inkscape:zoom="1.475"
     inkscape:cx="80"
     inkscape:cy="36.746506"
     inkscape:window-x="72"
     inkscape:window-y="27"
     inkscape:window-maximized="0"
     inkscape:current-layer="svg952" />
  <path
     d="m 126.323,124.613 c 5.16,5.165 5.16,13.428 -0.208,18.8 -5.16,5.165 -13.622,5.165 -18.987,0 l -33.0255,-35.329 -30.96,37.395 c -2.8896,3.099 -8.256,3.304 -11.1456,0 l -7.8432,-8.057 c -3.3024,-3.101 -3.3024,-8.264 -0.2064,-11.364 L 59.6545,92.7968 42.5233,76.4778 C 36.7441,71.1065 33.4417,69.4538 28.9009,70.8999 24.3601,72.5526 17.9617,72.5526 11.9761,68.6274 -0.614326,60.5704 0.00487418,44.8696 0.00487418,44.8696 L 1.03687,43.2169 14.0401,51.6871 c 0,0 8.0496,4.9581 14.2416,-4.545 7.0176,-11.1558 -0.8256,-15.7008 -0.8256,-15.7008 l -13.0032,-8.2636 1.2384,-1.6543 c 0,0 11.9712,-7.6438 26.0064,0.4132 8.6688,5.1647 13.0032,15.2876 10.7328,25.2039 -1.2384,5.9911 0,8.057 4.7472,13.2217 L 74.5153,77.5092 94.7441,56.6436 110.018,71.9312 89.7889,91.9704 Z m 20.845,-63.4228 c 2.478,-2.4791 6.606,-2.0659 8.877,0.2066 l 2.27,2.2725 c 2.477,2.479 2.064,6.1976 -0.206,8.4701 l -12.384,12.3954 c -2.477,2.4791 -6.192,2.6857 -8.669,0.2066 l -2.27,-2.2725 c -2.479,-2.4791 -2.479,-6.4043 0,-8.8833 0.412,-1.4462 -0.828,-4.1318 -3.303,-6.6125 -5.16,-5.1647 -11.145,-5.3713 -14.035,-2.6857 L 113.32,68.6258 98.2529,53.1316 102.587,48.9998 C 107.336,44.0417 101.968,38.8769 101.968,38.8769 88.7585,25.6552 70.1809,26.0684 70.1809,26.0684 l -0.2064,-4.9582 c 37.7725,-9.9163 52.0145,6.6109 57.1745,11.569 l 10.939,10.9493 c 2.683,2.8922 -0.206,10.7426 3.715,14.8744 1.651,1.8593 3.715,2.4807 5.365,2.6873 z m -30.339,79.7438 c 3.921,0 7.017,-3.099 7.017,-7.024 0,-3.926 -3.096,-7.024 -7.017,-7.024 -3.922,0 -7.018,3.098 -7.018,7.024 0,3.925 3.095,7.024 7.018,7.024 z"
     id="path950"
     inkscape:connector-curvature="0"
     style="fill:#646462" />
</svg>
