<?xml version="1.0" encoding="UTF-8" standalone="no"?>
<svg
   xmlns:dc="http://purl.org/dc/elements/1.1/"
   xmlns:cc="http://creativecommons.org/ns#"
   xmlns:rdf="http://www.w3.org/1999/02/22-rdf-syntax-ns#"
   xmlns:svg="http://www.w3.org/2000/svg"
   xmlns="http://www.w3.org/2000/svg"
   xmlns:sodipodi="http://sodipodi.sourceforge.net/DTD/sodipodi-0.dtd"
   xmlns:inkscape="http://www.inkscape.org/namespaces/inkscape"
   width="160"
   height="160"
   viewBox="0 0 160 160"
   fill="none"
   version="1.1"
   id="svg940"
   sodipodi:docname="create-account-learning-resources.svg"
   inkscape:version="0.92.5 (2060ec1f9f, 2020-04-08)">
  <metadata
     id="metadata946">
    <rdf:RDF>
      <cc:Work
         rdf:about="">
        <dc:format>image/svg+xml</dc:format>
        <dc:type
           rdf:resource="http://purl.org/dc/dcmitype/StillImage" />
        <dc:title></dc:title>
      </cc:Work>
    </rdf:RDF>
  </metadata>
  <defs
     id="defs944" />
  <sodipodi:namedview
     pagecolor="#ffffff"
     bordercolor="#666666"
     borderopacity="1"
     objecttolerance="10"
     gridtolerance="10"
     guidetolerance="10"
     inkscape:pageopacity="0"
     inkscape:pageshadow="2"
     inkscape:window-width="1097"
     inkscape:window-height="773"
     id="namedview942"
     showgrid="false"
     inkscape:zoom="1.475"
     inkscape:cx="80"
     inkscape:cy="80"
     inkscape:window-x="72"
     inkscape:window-y="27"
     inkscape:window-maximized="0"
     inkscape:current-layer="svg940" />
  <path
     d="M72.1935 87.8086C78.9384 81.0687 87.9228 77.3554 97.4878 77.3554C101.923 77.3554 106.215 78.1888 110.233 79.7121V22.923L27.6755 33.0495C26.5275 33.1961 25.3927 33.0161 24.5851 32.5728C24.0911 32.3028 23.8876 32.0162 23.8742 31.8928L22.2723 18.8764C22.2222 18.463 23.3169 17.1264 25.6831 16.8364L104.163 7.20989L103.275 0L24.7987 9.62651C18.9115 10.3465 14.753 14.5631 15.0567 19.3197H15V112.642H15.0534C15.0634 112.792 15.0367 112.935 15.0534 113.085L16.652 118.838C16.9657 121.378 18.5777 123.621 21.0775 124.998C22.7762 125.928 24.7987 126.421 26.8946 126.418C27.4486 126.418 28.0059 126.385 28.5633 126.321L62.9154 122.105C62.1578 119.188 61.7306 116.165 61.7306 113.072C61.7273 103.518 65.4452 94.5452 72.1935 87.8086ZM40.271 47.4926L91.9877 41.1493V60.3724L40.271 66.7123V47.4926V47.4926Z"
     fill="#646462"
     id="path936" />
  <path
     d="M143.127 148.508L122.932 128.338C129.787 116.935 128.332 101.905 118.5 92.0819C106.913 80.5121 88.0629 80.5121 76.4754 92.0819C64.8912 103.658 64.8912 122.485 76.4754 134.055C86.3075 143.874 101.356 145.331 112.77 138.481L132.965 158.658C134.764 160.447 137.674 160.447 139.466 158.658L143.124 155.001C144.923 153.208 144.923 150.301 143.127 148.508ZM114.802 130.365C105.254 139.901 89.715 139.901 80.1666 130.365C70.6182 120.828 70.6182 105.308 80.1666 95.7718C89.715 86.2353 105.254 86.2353 114.802 95.7718C124.351 105.312 124.351 120.828 114.802 130.365Z"
     fill="#646462"
     id="path938" />
</svg>
