<?xml version="1.0" encoding="UTF-8" standalone="no"?>
<svg
   xmlns:dc="http://purl.org/dc/elements/1.1/"
   xmlns:cc="http://creativecommons.org/ns#"
   xmlns:rdf="http://www.w3.org/1999/02/22-rdf-syntax-ns#"
   xmlns:svg="http://www.w3.org/2000/svg"
   xmlns="http://www.w3.org/2000/svg"
   xmlns:sodipodi="http://sodipodi.sourceforge.net/DTD/sodipodi-0.dtd"
   xmlns:inkscape="http://www.inkscape.org/namespaces/inkscape"
   width="160"
   height="160"
   viewBox="0 0 160 160"
   version="1.1"
   id="svg926"
   sodipodi:docname="create-account-community.svg"
   style="fill:none"
   inkscape:version="0.92.5 (2060ec1f9f, 2020-04-08)">
  <metadata
     id="metadata932">
    <rdf:RDF>
      <cc:Work
         rdf:about="">
        <dc:format>image/svg+xml</dc:format>
        <dc:type
           rdf:resource="http://purl.org/dc/dcmitype/StillImage" />
        <dc:title></dc:title>
      </cc:Work>
    </rdf:RDF>
  </metadata>
  <defs
     id="defs930" />
  <sodipodi:namedview
     pagecolor="#ffffff"
     bordercolor="#666666"
     borderopacity="1"
     objecttolerance="10"
     gridtolerance="10"
     guidetolerance="10"
     inkscape:pageopacity="0"
     inkscape:pageshadow="2"
     inkscape:window-width="1848"
     inkscape:window-height="1016"
     id="namedview928"
     showgrid="false"
     inkscape:zoom="3.7595243"
     inkscape:cx="127.55259"
     inkscape:cy="56.52617"
     inkscape:window-x="72"
     inkscape:window-y="27"
     inkscape:window-maximized="1"
     inkscape:current-layer="svg926" />
  <g
     id="g5756"
     transform="matrix(1.0276745,0,0,1.0276745,0.33292682,1.0276747)"
     style="stroke-width:0.97307074">
    <path
       style="fill:#646462;stroke-width:0.97307068"
       inkscape:connector-curvature="0"
       id="path912"
       d="m 50.478185,101.85697 c 0.676775,3.33284 -1.164158,5.99968 -4.331516,5.99968 h -5.499076 l -0.487286,6.33511 -2.832422,34.3307 c -0.338339,3.33673 -2.835824,6.16886 -5.668246,6.16886 H 21.31133 c -2.832325,0 -5.333116,-2.83213 -5.664747,-6.16886 l -2.666655,-34.3307 -0.5008,-6.16594 H 7.1459059 c -3.0016203,0 -4.6665491,-2.66587 -3.9998951,-5.99968 L 8.6450195,76.690099 c 0.6768042,-3.333221 4.1691425,-5.999876 7.5023635,-5.999876 h 21.31924 c 3.333222,0 6.832308,2.666655 7.498971,5.999876 l 5.499077,25.166871 z M 39.145096,53.205101 c 0,-2.439734 -0.723443,-4.824635 -2.079035,-6.85321 -1.355494,-2.028478 -3.282082,-3.609434 -5.536119,-4.54288 -2.254134,-0.933543 -4.734411,-1.177575 -7.127187,-0.701373 -2.392775,0.476202 -4.590617,1.651347 -6.315562,3.376681 -1.724848,1.725334 -2.899409,3.923564 -3.37493,6.316437 -0.475522,2.39297 -0.23081,4.87315 0.703317,7.126993 0.934126,2.253745 2.515569,4.179943 4.544436,5.534952 2.028866,1.354911 4.414058,2.07777 6.853793,2.07709 1.620624,0.0036 3.225984,-0.313061 4.724008,-0.931696 1.497928,-0.618635 2.858867,-1.527192 4.00465,-2.673266 1.14588,-1.146172 2.05395,-2.507403 2.672197,-4.005525 0.618246,-1.498024 0.934418,-3.103579 0.930432,-4.724203" />
    <path
       style="fill:#646462;stroke-width:0.97307068"
       inkscape:connector-curvature="0"
       id="path914"
       d="m 101.1912,101.85697 c 0.67668,3.33284 -1.16474,5.99968 -4.331806,5.99968 h -5.49898 l -0.500897,6.33511 -2.835727,34.3307 c -0.338436,3.33673 -2.832422,6.16886 -5.664844,6.16886 H 72.024151 c -2.832421,0 -5.333213,-2.83213 -5.664843,-6.16886 l -2.666558,-34.3307 -0.500897,-6.16594 h -5.333116 c -3.001688,0 -4.666646,-2.66587 -3.999982,-5.99968 l 5.499076,-25.332638 c 0.676775,-3.333221 4.165652,-5.999876 7.502277,-5.999876 h 21.319337 c 3.333222,0 6.832307,2.666655 7.498971,5.999876 l 5.499174,25.167358 z M 89.857917,53.205101 c 0,-2.439734 -0.723539,-4.824635 -2.079034,-6.85321 -1.355495,-2.028478 -3.282082,-3.609434 -5.536216,-4.54288 -2.254037,-0.933543 -4.734314,-1.177575 -7.12709,-0.701373 -2.392873,0.476202 -4.590617,1.651347 -6.315562,3.376681 -1.724945,1.725334 -2.899409,3.923564 -3.374931,6.316437 -0.475619,2.39297 -0.230809,4.87315 0.70322,7.126993 0.934127,2.253745 2.515666,4.179943 4.544533,5.534952 2.028867,1.354911 4.413962,2.07777 6.853696,2.07709 1.620722,0.0036 3.226081,-0.313061 4.724009,-0.931696 1.497927,-0.618635 2.858964,-1.527192 4.004746,-2.673266 1.145783,-1.146172 2.053951,-2.507403 2.672197,-4.005525 0.618247,-1.498024 0.934418,-3.103579 0.930432,-4.724203 z" />
    <path
       style="fill:#646462;stroke-width:0.97307068"
       inkscape:connector-curvature="0"
       id="path916"
       d="m 151.90412,101.85697 c 0.67668,3.33284 -1.16766,5.99968 -4.33229,5.99968 h -5.5019 l -0.49779,6.33511 -2.83601,34.3307 c -0.33834,3.33673 -2.83213,6.16886 -5.66426,6.16886 h -10.3417 c -2.83213,0 -5.33273,-2.83213 -5.66524,-6.16886 l -2.65907,-34.3307 -0.5007,-6.16594 h -5.3337 c -3.0013,0 -4.66674,-2.66587 -3.99979,-5.99968 l 5.49898,-25.332638 c 0.67668,-3.333221 4.16604,-5.999876 7.49888,-5.999876 h 21.33576 c 3.33381,0 6.8329,2.666655 7.49985,5.999876 l 5.49898,25.167358" />
    <path
       style="fill:#646462;stroke-width:0.97307068"
       inkscape:connector-curvature="0"
       id="path918"
       d="m 140.57074,53.205101 c 0,-2.439734 -0.72335,-4.824635 -2.07865,-6.85321 -1.35627,-2.028478 -3.28227,-3.609434 -5.53689,-4.54288 -2.25365,-0.933543 -4.73383,-1.177575 -7.12651,-0.701373 -2.39268,0.476202 -4.59091,1.651347 -6.31566,3.376681 -1.72475,1.725334 -2.89921,3.923564 -3.37561,6.316437 -0.47542,2.39297 -0.23042,4.87315 0.7039,7.126993 0.93432,2.253745 2.51518,4.179943 4.54424,5.534952 2.02906,1.354911 4.41396,2.07777 6.85331,2.07709 1.62072,0.0036 3.22686,-0.313061 4.7241,-0.931696 1.49822,-0.618635 2.85936,-1.527192 4.00465,-2.673266 1.14627,-1.146172 2.05434,-2.507403 2.67269,-4.005525 0.61834,-1.498024 0.93432,-3.103579 0.93043,-4.724203" />
    <path
       style="fill:#646462;stroke-width:0.97307068"
       inkscape:connector-curvature="0"
       id="path920"
       d="m 116.75771,30.630313 c 0,-2.439832 -0.72238,-4.825121 -2.07768,-6.854085 -1.3553,-2.028964 -3.2813,-3.610407 -5.53592,-4.544436 -2.25365,-0.93403 -4.73383,-1.178548 -7.12651,-0.702734 -2.393647,0.475813 -4.591878,1.650666 -6.31692,3.375903 -1.725237,1.725236 -2.900089,3.923467 -3.375903,6.316437 -0.475813,2.39297 -0.231295,4.873441 0.702734,7.127381 0.934029,2.254038 2.515472,4.18043 4.544047,5.535536 2.029061,1.355106 4.414932,2.078062 6.854282,2.077381 1.62072,0.0035 3.22588,-0.312963 4.72313,-0.931404 1.49822,-0.61844 2.85838,-1.526608 4.00465,-2.672391 1.1453,-1.145783 2.05434,-2.506625 2.67268,-4.004358 0.61835,-1.497733 0.93432,-3.102801 0.93141,-4.72323" />
    <path
       style="fill:#646462;stroke-width:0.97307068"
       inkscape:connector-curvature="0"
       id="path922"
       d="m 63.814571,30.630313 c 6.81e-4,-2.439735 -0.722178,-4.82483 -2.077187,-6.853696 -1.354911,-2.028867 -3.281109,-3.610407 -5.534952,-4.544534 -2.253745,-0.934029 -4.734022,-1.178839 -7.126895,-0.70322 -2.39297,0.475522 -4.591103,1.649986 -6.316437,3.374931 -1.725432,1.724945 -2.900479,3.92269 -3.376681,6.315562 -0.4763,2.392776 -0.232171,4.873053 0.701275,7.12709 0.933544,2.254134 2.5145,4.180722 4.542978,5.536216 2.028478,1.355495 4.413476,2.079034 6.85321,2.079034 1.620527,0.0035 3.225789,-0.312963 4.723717,-0.931404 1.49783,-0.618343 2.858866,-1.526511 4.004941,-2.672197 1.146074,-1.145782 2.054534,-2.506527 2.673363,-4.00426 0.61883,-1.497733 0.93578,-3.102996 0.932668,-4.723522" />
    <path
       style="fill:#646462;stroke-width:0.97307068"
       inkscape:connector-curvature="0"
       id="path924"
       d="M 90.196256,11.338092 C 90.196937,8.8982603 89.47398,6.5129807 88.118972,4.4840362 86.763866,2.4550819 84.837473,0.87358087 82.583436,-0.06042216 80.329399,-0.99442752 77.849025,-1.238981 75.456055,-0.7631511 c -2.393067,0.47582992 -4.591201,1.65066414 -6.316437,3.3759106 -1.725237,1.7252465 -2.90009,3.9233897 -3.375903,6.316418 -0.475814,2.3929695 -0.231296,4.8733445 0.702733,7.1273815 0.93403,2.254037 2.515472,4.18043 4.544436,5.535535 2.028964,1.355106 4.414254,2.078062 6.854086,2.077382 1.620332,0.0035 3.225497,-0.312964 4.72323,-0.931404 1.497733,-0.618441 2.858478,-1.526609 4.004261,-2.672392 1.145782,-1.145782 2.054047,-2.506624 2.672488,-4.004357 0.618441,-1.497733 0.934904,-3.102801 0.931307,-4.723231 z" />
  </g>
</svg>
