<?xml version="1.0" encoding="UTF-8" standalone="no"?>
<!-- Created with Inkscape (http://www.inkscape.org/) -->

<svg
   width="150"
   height="150"
   viewBox="0 0 39.687499 39.687499"
   version="1.1"
   id="svg8"
   inkscape:version="1.2.2 (b0a8486541, 2022-12-01)"
   sodipodi:docname="device-white.svg"
   xml:space="preserve"
   xmlns:inkscape="http://www.inkscape.org/namespaces/inkscape"
   xmlns:sodipodi="http://sodipodi.sourceforge.net/DTD/sodipodi-0.dtd"
   xmlns="http://www.w3.org/2000/svg"
   xmlns:svg="http://www.w3.org/2000/svg"
   xmlns:rdf="http://www.w3.org/1999/02/22-rdf-syntax-ns#"
   xmlns:cc="http://creativecommons.org/ns#"
   xmlns:dc="http://purl.org/dc/elements/1.1/"><defs
     id="defs2" /><sodipodi:namedview
     id="base"
     pagecolor="#ffffff"
     bordercolor="#666666"
     borderopacity="1.0"
     inkscape:pageopacity="0.0"
     inkscape:pageshadow="2"
     inkscape:zoom="2.8"
     inkscape:cx="180"
     inkscape:cy="109.64286"
     inkscape:document-units="px"
     inkscape:current-layer="layer1"
     showgrid="false"
     showguides="true"
     inkscape:guide-bbox="true"
     inkscape:window-width="1854"
     inkscape:window-height="1011"
     inkscape:window-x="66"
     inkscape:window-y="32"
     inkscape:window-maximized="1"
     fit-margin-top="0"
     fit-margin-left="0"
     fit-margin-right="0"
     fit-margin-bottom="0"
     units="px"
     inkscape:showpageshadow="2"
     inkscape:pagecheckerboard="0"
     inkscape:deskcolor="#d1d1d1"><sodipodi:guide
       position="19.844762,45.235366"
       orientation="1,0"
       id="guide822"
       inkscape:locked="false" /><sodipodi:guide
       position="-28.330569,19.777945"
       orientation="0,1"
       id="guide824"
       inkscape:locked="false" /></sodipodi:namedview><metadata
     id="metadata5"><rdf:RDF><cc:Work
         rdf:about=""><dc:format>image/svg+xml</dc:format><dc:type
           rdf:resource="http://purl.org/dc/dcmitype/StillImage" /></cc:Work></rdf:RDF></metadata><g
     inkscape:label="Layer 1"
     inkscape:groupmode="layer"
     id="layer1"
     transform="translate(-39.32143,-85.321427)"><path
       style="fill:none;stroke:#ffffff;stroke-width:4.23333323;stroke-linecap:butt;stroke-linejoin:miter;stroke-dasharray:none;stroke-opacity:1"
       d="m 46.469743,108.91331 c -0.203621,0.70138 -0.787252,1.28182 -0.754954,2.04957 -0.116344,0.76487 -0.627234,1.40472 -0.726704,2.17241 -0.133146,0.48495 -0.414973,0.90855 -0.68302,1.32756 -0.06129,0.47837 -0.576167,0.69667 -0.745572,1.12706 -0.335928,0.52274 -0.650703,1.05888 -0.915424,1.62071 -0.306174,0.37503 -0.401654,0.84072 -0.524257,1.29397 -0.167315,0.37547 -0.0037,0.98042 0.506758,0.76064 0.87616,-0.0602 1.758078,-0.0182 2.632337,0.039 0.716782,0.12328 1.442158,0.24881 2.171589,0.17548 1.215644,-0.005 2.431006,0.0617 3.645616,0.0867 1.158293,0.1181 2.297305,0.44567 3.470145,0.39475 1.135389,0.0234 2.266709,0.14791 3.380392,0.36861 1.073877,0.17476 2.160687,0.26637 3.247743,0.28439 0.950337,0.0973 1.905629,0.004 2.858078,0.0336 1.961254,-0.58387 4.023629,-0.14448 6.025176,-0.37304 1.418222,-0.0129 2.834489,-0.12987 4.253389,-0.0874 0.471315,-3.9e-4 0.942631,-5.7e-4 1.413946,-3.7e-4 -0.294841,-1.53584 -1.047416,-2.94249 -1.314147,-4.48544 -0.56863,-1.22265 -0.0544,-2.62787 -0.532375,-3.87327 -0.187633,-0.67111 -0.1821,-1.40771 -0.51446,-2.0305 -0.442186,-0.44602 -1.099755,-0.13314 -1.63282,-0.0911 -0.558233,0.0675 -1.119722,9.9e-4 -1.678565,0.0687 -1.200414,0.0844 -2.404084,0.0975 -3.606522,0.0654 -2.359324,-0.006 -4.721298,0.0582 -7.078668,-0.0483 -1.357538,-0.18271 -2.735577,-0.13123 -4.090849,-0.33776 -1.180637,-0.0722 -2.367529,0.078 -3.545181,-0.0742 -0.658318,-0.10187 -1.326692,-0.057 -1.982862,-0.17381 -0.405869,-0.0744 -0.822325,-0.0551 -1.227903,-0.0974 -0.665129,-0.14831 -1.378676,-0.52811 -2.050886,-0.19597 z"
       id="path1288" /><path
       style="fill:none;stroke:#ffffff;stroke-width:4.23333323;stroke-linecap:butt;stroke-linejoin:miter;stroke-dasharray:none;stroke-opacity:1"
       d="m 48.230892,89.36795 c -0.647643,2.093812 -0.499362,4.31464 -0.823857,6.461438 -0.21342,3.398303 -0.05753,6.814742 -0.429632,10.203862 0.02893,0.72715 -0.244836,1.52925 0.173489,2.1918 0.519022,0.5192 1.304279,0.32115 1.944899,0.22273 1.016786,-0.13247 2.044366,0.12186 3.061136,-0.0424 2.188902,-0.20093 4.364666,-0.70703 6.574266,-0.55253 3.299538,-0.0176 6.635922,-0.0889 9.882331,0.59832 1.530184,0.21923 3.075266,0.68331 4.629841,0.40327 0.577932,-0.48281 0.466225,-1.30473 0.373313,-1.96543 -0.149068,-1.27609 0.150366,-2.54668 0.317903,-3.80634 0.1372,-0.87886 0.210289,-1.76871 0.157025,-2.65767 0.0061,-1.458751 0.196053,-2.911133 0.159863,-4.371234 -0.0062,-1.511361 -0.03712,-3.024578 -0.02545,-4.534736 -0.07251,-0.497485 0.150243,-1.020972 -0.04497,-1.500359 -0.409581,-0.249427 -1.022771,-0.01705 -1.513811,-0.08028 -3.071192,0.04326 -6.14425,-0.05235 -9.210853,-0.197488 -1.192977,-0.206528 -2.418181,-0.02569 -3.607631,-0.269223 -2.023024,-0.274631 -4.067621,-0.269072 -6.104731,-0.261932 -1.553662,-0.0015 -3.107321,0.01265 -4.660978,0.0039 -0.252907,0.187175 -0.597801,-0.02866 -0.852157,0.154236 z"
       id="path1290" /><path
       style="fill:none;stroke:#ffffff;stroke-width:0.79375;stroke-linecap:butt;stroke-linejoin:miter;stroke-dasharray:none;stroke-opacity:1"
       d="m 48.70341,111.97949 c -0.289458,-0.0714 -0.54984,0.13077 -0.107905,0.0215 0.236168,-0.028 0.504455,-0.0257 0.107905,-0.0215 z"
       id="path1292" /><path
       style="fill:none;stroke:#ffffff;stroke-width:0.79375;stroke-linecap:butt;stroke-linejoin:miter;stroke-dasharray:none;stroke-opacity:1"
       d="m 51.345686,112.16738 c -0.27269,0.014 -1.213214,-0.39745 -0.870837,0.16798 0.450472,0.45844 0.49073,-0.16617 0.870837,-0.16798 z"
       id="path1294" /><path
       style="fill:none;stroke:#ffffff;stroke-width:0.79375;stroke-linecap:butt;stroke-linejoin:miter;stroke-dasharray:none;stroke-opacity:1"
       d="m 53.454022,111.50582 c -0.149723,0.37029 -0.40243,1.16922 0.223016,1.20036 0.48727,-0.10082 0.467198,-0.74392 -0.07775,-0.67918 -0.0975,-0.0182 -0.195814,-0.0313 -0.293785,-0.0466"
       id="path1296" /><path
       style="fill:none;stroke:#ffffff;stroke-width:0.79375;stroke-linecap:butt;stroke-linejoin:miter;stroke-dasharray:none;stroke-opacity:1"
       d="m 55.739811,112.04107 c -0.370363,0.37405 0.05602,1.04208 0.480943,0.59469 0.232188,-0.43502 0.207741,-0.7606 -0.480943,-0.59469 z"
       id="path1298" /><path
       style="fill:none;stroke:#ffffff;stroke-width:0.79375;stroke-linecap:butt;stroke-linejoin:miter;stroke-dasharray:none;stroke-opacity:1"
       d="m 58.316546,111.50279 c -0.205215,0.31174 -0.413329,1.03686 0.160177,1.05965 0.487162,-0.0544 1.029868,-0.61371 0.843966,-1.11853 -0.21432,-0.29426 -0.761164,-0.11572 -1.004143,0.0589 z"
       id="path1300" /><path
       style="fill:none;stroke:#ffffff;stroke-width:0.79375;stroke-linecap:butt;stroke-linejoin:miter;stroke-dasharray:none;stroke-opacity:1"
       d="m 60.968695,111.58491 c -0.334758,0.22554 -0.824787,1.03638 -0.166491,1.12855 0.421113,-0.009 0.822761,-0.74862 0.408774,-0.97507 -0.08563,-0.0419 -0.17806,-0.0793 -0.242283,-0.15348 z"
       id="path1302" /><path
       style="fill:none;stroke:#ffffff;stroke-width:0.79375;stroke-linecap:butt;stroke-linejoin:miter;stroke-dasharray:none;stroke-opacity:1"
       d="m 63.240189,111.6135 c -0.08582,0.33601 -0.379788,1.21717 0.218381,1.13351 0.570312,-0.26378 0.701481,-1.11652 -0.09175,-1.07547 l -0.0662,-0.0262 -0.06043,-0.0319 z"
       id="path1304" /><path
       style="fill:none;stroke:#ffffff;stroke-width:0.79375;stroke-linecap:butt;stroke-linejoin:miter;stroke-dasharray:none;stroke-opacity:1"
       d="m 65.840407,111.58911 c -0.356041,0.35661 0.03598,0.94908 0.504353,0.76558 0.345469,-0.0516 0.15945,-0.83211 -0.03774,-0.50895"
       id="path1306" /><path
       style="fill:none;stroke:#ffffff;stroke-width:0.79375;stroke-linecap:butt;stroke-linejoin:miter;stroke-dasharray:none;stroke-opacity:1"
       d="m 68.731715,111.70541 c -0.512745,-0.0835 -0.527948,0.54619 -0.04685,0.61028 0.41324,0.10182 0.192699,-0.47421 0.04685,-0.61028 z"
       id="path1308" /><path
       style="fill:none;stroke:#ffffff;stroke-width:0.79375;stroke-linecap:butt;stroke-linejoin:miter;stroke-dasharray:none;stroke-opacity:1"
       d="m 71.640083,111.56747 c -0.451394,-0.17273 -1.191587,0.2709 -0.570873,0.6449 0.192216,0.2148 0.996211,-0.14375 0.35817,-0.18238"
       id="path1310" /><path
       style="fill:none;stroke:#ffffff;stroke-width:0.79375;stroke-linecap:butt;stroke-linejoin:miter;stroke-dasharray:none;stroke-opacity:1"
       d="m 72.399063,113.94112 c -0.299404,-0.15427 -1.121463,0.19625 -0.714034,0.44674 0.298419,6e-5 0.556741,-0.20795 0.714034,-0.44674 z"
       id="path1312" /><path
       style="fill:none;stroke:#ffffff;stroke-width:0.79375;stroke-linecap:butt;stroke-linejoin:miter;stroke-dasharray:none;stroke-opacity:1"
       d="m 72.822759,115.55165 c -0.303028,-0.22623 -0.860041,0.13282 -0.242832,0.22675 0.279715,0.0598 0.384701,-0.36445 0.04843,-0.22722 0.183107,0.064 0.83135,0.38596 0.689824,2e-4 -0.162764,-0.0602 -0.333325,0.067 -0.495425,2.7e-4 z"
       id="path1314" /><path
       style="fill:none;stroke:#ffffff;stroke-width:0.79375;stroke-linecap:butt;stroke-linejoin:miter;stroke-dasharray:none;stroke-opacity:1"
       d="m 73.807707,117.60964 c -0.364864,0.5095 -1.073317,-0.097 -0.486211,-0.45989 0.425078,-0.27696 1.003096,-0.0557 0.486211,0.45989 z"
       id="path1316" /><path
       style="fill:none;stroke:#ffffff;stroke-width:0.79375;stroke-linecap:butt;stroke-linejoin:miter;stroke-dasharray:none;stroke-opacity:1"
       d="m 71.480594,117.81203 c -0.365757,-0.27375 -1.092138,-0.72778 -1.303614,-0.74955 0.499671,-0.0505 1.022362,8.1e-4 1.457966,0.2529 0.03335,0.18102 -0.276745,0.2532 -0.154352,0.49665 z"
       id="path1318" /><path
       style="fill:none;stroke:#ffffff;stroke-width:0.79375;stroke-linecap:butt;stroke-linejoin:miter;stroke-dasharray:none;stroke-opacity:1"
       d="m 70.548123,115.69235 c 0.111623,-0.67308 -1.265004,-0.34855 -0.579307,0.13383 0.229663,0.0312 0.707681,0.38231 0.579307,-0.13383 z"
       id="path1320" /><path
       style="fill:none;stroke:#ffffff;stroke-width:0.79375;stroke-linecap:butt;stroke-linejoin:miter;stroke-dasharray:none;stroke-opacity:1"
       d="m 69.480438,113.55458 c -0.39944,-0.0568 -0.892292,0.54043 -0.228924,0.55382 0.343912,0.20691 1.265416,0.14493 0.771959,-0.40934 -0.144925,-0.13399 -0.352668,-0.17093 -0.543035,-0.14448 z"
       id="path1322" /><path
       style="fill:none;stroke:#ffffff;stroke-width:0.79375;stroke-linecap:butt;stroke-linejoin:miter;stroke-dasharray:none;stroke-opacity:1"
       d="m 66.352476,113.42785 c -0.354205,-0.0992 -0.838919,0.54235 -0.230026,0.43423 0.184474,0.0496 1.359798,0.0634 0.775414,-0.3408"
       id="path1324" /><path
       style="fill:none;stroke:#ffffff;stroke-width:0.79375;stroke-linecap:butt;stroke-linejoin:miter;stroke-dasharray:none;stroke-opacity:1"
       d="m 67.0556,115.18388 c -0.359592,0.44959 0.492861,0.8365 0.808511,0.68298 0.147732,-0.0862 -0.242437,-0.85574 -0.308673,-0.55558"
       id="path1326" /><path
       style="fill:none;stroke:#ffffff;stroke-width:0.79375;stroke-linecap:butt;stroke-linejoin:miter;stroke-dasharray:none;stroke-opacity:1"
       d="m 68.186281,117.02927 c -0.366529,-0.0558 -1.284203,-0.0557 -0.777111,0.52663 0.301957,0.35384 0.849107,0.5415 1.286796,0.40632 0.234011,-0.33306 -0.129512,-0.91009 -0.509685,-0.93295 z"
       id="path1328" /><path
       style="fill:none;stroke:#ffffff;stroke-width:0.79375;stroke-linecap:butt;stroke-linejoin:miter;stroke-dasharray:none;stroke-opacity:1"
       d="m 64.480084,113.55103 c -0.314097,-0.0472 -1.295119,0.0225 -0.982958,0.42374 0.307768,0.26252 1.190725,0.0257 0.982958,-0.42374 z"
       id="path1330" /><path
       style="fill:none;stroke:#ffffff;stroke-width:0.79375;stroke-linecap:butt;stroke-linejoin:miter;stroke-dasharray:none;stroke-opacity:1"
       d="m 64.541256,115.08155 c -0.53623,-0.2241 -0.720403,0.52481 -0.168459,0.63092 0.339519,0.24491 1.267452,-0.0618 0.599693,-0.43061 -0.141763,-0.0711 -0.300126,-0.10834 -0.431234,-0.20031 z"
       id="path1332" /><path
       style="fill:none;stroke:#ffffff;stroke-width:0.79375;stroke-linecap:butt;stroke-linejoin:miter;stroke-dasharray:none;stroke-opacity:1"
       d="m 64.661806,117.07718 c 0.06279,0.35868 -0.660933,-0.34436 -0.354289,0.19184 0.265735,0.22584 0.974797,0.48027 1.136138,0.0985 -0.109058,-0.31797 -0.540767,-0.21422 -0.781849,-0.29031 z"
       id="path1334" /><path
       style="fill:none;stroke:#ffffff;stroke-width:0.79375;stroke-linecap:butt;stroke-linejoin:miter;stroke-dasharray:none;stroke-opacity:1"
       d="m 61.236183,113.34545 c -0.446517,0.10379 -0.906023,0.9548 -0.137771,0.8166 0.553929,-0.21309 0.456801,-0.47622 0.137771,-0.8166 z"
       id="path1336" /><path
       style="fill:none;stroke:#ffffff;stroke-width:0.79375;stroke-linecap:butt;stroke-linejoin:miter;stroke-dasharray:none;stroke-opacity:1"
       d="m 61.442238,115.09257 c -0.10167,0.40322 0.101148,1.1054 0.622649,0.76461 0.321496,-0.47606 -0.06288,-0.9787 -0.622649,-0.76461 z"
       id="path1338" /><path
       style="fill:none;stroke:#ffffff;stroke-width:0.79375;stroke-linecap:butt;stroke-linejoin:miter;stroke-dasharray:none;stroke-opacity:1"
       d="m 61.377325,117.00672 c 0.03598,0.46205 0.685993,0.61806 0.675621,1.08453 0.215779,-0.33324 0.125939,-0.96043 -0.241651,-1.18397 -0.127846,-0.021 -0.26515,0.15938 -0.43397,0.0994 z"
       id="path1340" /><path
       style="fill:none;stroke:#ffffff;stroke-width:0.79375;stroke-linecap:butt;stroke-linejoin:miter;stroke-dasharray:none;stroke-opacity:1"
       d="m 58.689884,113.76012 c -0.354174,0.26714 -0.04387,1.24844 0.364198,0.73908 0.232173,-0.35809 0.234016,-0.98379 -0.364198,-0.73908 z"
       id="path1342" /><path
       style="fill:none;stroke:#ffffff;stroke-width:0.79375;stroke-linecap:butt;stroke-linejoin:miter;stroke-dasharray:none;stroke-opacity:1"
       d="m 58.399781,115.25204 c -0.119792,0.46512 0.125753,1.13603 0.690284,0.76365 0.55263,-0.35103 -0.07612,-0.65668 -0.461107,-0.61425 -0.08893,-0.0257 -0.170838,-0.077 -0.229177,-0.1494 z"
       id="path1344" /><path
       style="fill:none;stroke:#ffffff;stroke-width:0.79375;stroke-linecap:butt;stroke-linejoin:miter;stroke-dasharray:none;stroke-opacity:1"
       d="m 58.32741,117.25758 c -0.315699,0.44982 0.789708,0.56435 0.287047,0.0946 -0.09021,-0.0472 -0.191613,-0.0622 -0.287047,-0.0946 z"
       id="path1346" /><path
       style="fill:none;stroke:#ffffff;stroke-width:0.79375;stroke-linecap:butt;stroke-linejoin:miter;stroke-dasharray:none;stroke-opacity:1"
       d="m 56.248925,113.73496 c -0.30706,-0.20537 -1.178893,0.13377 -0.74023,0.48077 0.309758,0.1397 0.833679,-0.0853 0.74023,-0.48077 z"
       id="path1348" /><path
       style="fill:none;stroke:#ffffff;stroke-width:0.79375;stroke-linecap:butt;stroke-linejoin:miter;stroke-dasharray:none;stroke-opacity:1"
       d="m 55.621575,115.33032 c -0.270647,0.26402 0.190062,0.98422 0.260236,0.41467 -0.05236,-0.15851 -0.200533,-0.26005 -0.260236,-0.41467 z"
       id="path1350" /><path
       style="fill:none;stroke:#ffffff;stroke-width:0.79375;stroke-linecap:butt;stroke-linejoin:miter;stroke-dasharray:none;stroke-opacity:1"
       d="m 54.99377,117.33146 c -0.286893,0.53616 0.809,0.85795 0.644792,0.14978 -0.166176,-0.28597 -0.371939,-0.44882 -0.644792,-0.14978 z"
       id="path1352" /><path
       style="fill:none;stroke:#ffffff;stroke-width:0.79375;stroke-linecap:butt;stroke-linejoin:miter;stroke-dasharray:none;stroke-opacity:1"
       d="m 53.11876,113.53263 c -0.546614,-0.32369 -0.691232,0.53095 -0.15952,0.63132 0.214091,-0.0771 0.05025,-0.44718 0.15952,-0.63132 z"
       id="path1354" /><path
       style="fill:none;stroke:#ffffff;stroke-width:0.79375;stroke-linecap:butt;stroke-linejoin:miter;stroke-dasharray:none;stroke-opacity:1"
       d="m 52.705545,115.29099 c 0.134751,0.31492 -0.550999,-0.20953 -0.337054,0.28827 0.135583,0.43829 0.812625,-0.0436 0.337054,-0.28827 z"
       id="path1356" /><path
       style="fill:none;stroke:#ffffff;stroke-width:0.79375;stroke-linecap:butt;stroke-linejoin:miter;stroke-dasharray:none;stroke-opacity:1"
       d="m 52.443699,117.15624 c -0.298219,-0.13637 -1.006177,0.22608 -0.435239,0.40675 0.253003,0.0391 0.310637,-0.25836 0.435239,-0.40675 z"
       id="path1358" /><path
       style="fill:none;stroke:#ffffff;stroke-width:0.79375;stroke-linecap:butt;stroke-linejoin:miter;stroke-dasharray:none;stroke-opacity:1"
       d="m 50.022639,115.16788 c -0.406964,-0.196 -1.194781,0.5039 -0.426226,0.45969 0.219643,-0.0386 0.435382,-0.22112 0.426226,-0.45969 z"
       id="path1360" /><path
       style="fill:none;stroke:#ffffff;stroke-width:0.79375;stroke-linecap:butt;stroke-linejoin:miter;stroke-dasharray:none;stroke-opacity:1"
       d="m 50.205182,113.4306 c -0.149492,0.20555 -0.888682,0.52063 -0.29047,0.68155 0.305933,-0.008 0.802836,-0.53999 0.29047,-0.68155 z"
       id="path1362" /><path
       style="fill:none;stroke:#ffffff;stroke-width:0.79375;stroke-linecap:butt;stroke-linejoin:miter;stroke-dasharray:none;stroke-opacity:1"
       d="m 47.532037,113.59654 c -0.510638,0.35252 0.172958,0.95408 0.433859,0.35517 0.180329,-0.28306 -0.03457,-0.41166 -0.290377,-0.3173"
       id="path1364" /><path
       style="fill:none;stroke:#ffffff;stroke-width:0.79375;stroke-linecap:butt;stroke-linejoin:miter;stroke-dasharray:none;stroke-opacity:1"
       d="m 47.11578,115.31708 c -0.551656,0.0232 0.123269,0.90293 0.166859,0.22833 0.0568,-0.13759 0.0589,-0.48427 -0.166859,-0.22833 z"
       id="path1366" /><path
       style="fill:none;stroke:#ffffff;stroke-width:0.79375;stroke-linecap:butt;stroke-linejoin:miter;stroke-dasharray:none;stroke-opacity:1"
       d="m 45.906623,117.02731 c -0.696082,0.27267 0.224522,1.0287 0.467084,0.4099 0.11883,-0.42285 -0.286621,-0.25297 -0.467084,-0.4099 z"
       id="path1368" /><path
       style="fill:none;stroke:#ffffff;stroke-width:0.79375;stroke-linecap:butt;stroke-linejoin:miter;stroke-dasharray:none;stroke-opacity:1"
       d="m 48.786995,117.23446 c -0.419546,-0.31428 -0.70584,0.62894 -0.128529,0.37976 0.31909,0.10194 0.240838,-0.22493 0.128529,-0.37976 z"
       id="path1370" /></g></svg>
