<svg width="4985" height="2000" viewBox="0 0 4985 2000" fill="none" xmlns="http://www.w3.org/2000/svg">
<g clip-path="url(#clip0_457_688)">
<rect width="4985" height="2000" fill="#FD7400"/>
<circle cx="454" cy="488" r="250" transform="rotate(180 454 488)" fill="#FCFBF6" fill-opacity="0.15"/>
<circle cx="996" cy="1878" r="250" transform="rotate(180 996 1878)" fill="#FCFBF6" fill-opacity="0.15"/>
<circle cx="2456" cy="488" r="250" transform="rotate(180 2456 488)" fill="#FCFBF6" fill-opacity="0.15"/>
<circle cx="2998" cy="1878" r="250" transform="rotate(180 2998 1878)" fill="#FCFBF6" fill-opacity="0.15"/>
<circle cx="4458" cy="488" r="250" transform="rotate(180 4458 488)" fill="#FCFBF6" fill-opacity="0.15"/>
<circle cx="5000" cy="1878" r="250" transform="rotate(180 5000 1878)" fill="#FCFBF6" fill-opacity="0.15"/>
<circle cx="1233" cy="988" r="250" transform="rotate(180 1233 988)" fill="#FCFBF6" fill-opacity="0.15"/>
<circle cx="3235" cy="988" r="250" transform="rotate(180 3235 988)" fill="#FCFBF6" fill-opacity="0.15"/>
<circle cx="1627" cy="76" r="250" transform="rotate(180 1627 76)" fill="#FCFBF6" fill-opacity="0.15"/>
<circle cx="2169" cy="1466" r="250" transform="rotate(180 2169 1466)" fill="#FCFBF6" fill-opacity="0.15"/>
<circle cy="1466" r="250" transform="rotate(180 0 1466)" fill="#FCFBF6" fill-opacity="0.15"/>
<circle cx="3629" cy="76" r="250" transform="rotate(180 3629 76)" fill="#FCFBF6" fill-opacity="0.15"/>
<circle cx="4171" cy="1466" r="250" transform="rotate(180 4171 1466)" fill="#FCFBF6" fill-opacity="0.15"/>
</g>
<defs>
<clipPath id="clip0_457_688">
<rect width="4985" height="2000" fill="white"/>
</clipPath>
</defs>
</svg>
