<?xml version="1.0" encoding="UTF-8" standalone="no"?>
<svg
   xmlns:dc="http://purl.org/dc/elements/1.1/"
   xmlns:cc="http://creativecommons.org/ns#"
   xmlns:rdf="http://www.w3.org/1999/02/22-rdf-syntax-ns#"
   xmlns:svg="http://www.w3.org/2000/svg"
   xmlns="http://www.w3.org/2000/svg"
   xmlns:sodipodi="http://sodipodi.sourceforge.net/DTD/sodipodi-0.dtd"
   xmlns:inkscape="http://www.inkscape.org/namespaces/inkscape"
   width="128"
   height="128"
   viewBox="0 0 128 128"
   version="1.1"
   id="svg1093"
   sodipodi:docname="getting-started.svg"
   style="fill:none"
   inkscape:version="0.92.5 (2060ec1f9f, 2020-04-08)">
  <metadata
     id="metadata1099">
    <rdf:RDF>
      <cc:Work
         rdf:about="">
        <dc:format>image/svg+xml</dc:format>
        <dc:type
           rdf:resource="http://purl.org/dc/dcmitype/StillImage" />
        <dc:title></dc:title>
      </cc:Work>
    </rdf:RDF>
  </metadata>
  <defs
     id="defs1097" />
  <sodipodi:namedview
     pagecolor="#ffffff"
     bordercolor="#666666"
     borderopacity="1"
     objecttolerance="10"
     gridtolerance="10"
     guidetolerance="10"
     inkscape:pageopacity="0"
     inkscape:pageshadow="2"
     inkscape:window-width="1848"
     inkscape:window-height="1016"
     id="namedview1095"
     showgrid="false"
     inkscape:zoom="3.7830213"
     inkscape:cx="32.152441"
     inkscape:cy="62.215479"
     inkscape:window-x="72"
     inkscape:window-y="27"
     inkscape:window-maximized="1"
     inkscape:current-layer="svg1093" />
  <g
     id="g4032"
     transform="matrix(0.80009364,0,0,0.8,17.09411,25.6)"
     style="stroke-width:1.24992692">
    <path
       style="fill:#b7d501;stroke-width:1.24992692"
       inkscape:connector-curvature="0"
       id="path1073"
       d="m 43.7,12.2703 c -1.4619,-1.168 -3.6048,-0.9333 -4.7744,0.528 l -8.4255,10.5014 -3.0878,-4.6169 c -1.0447,-1.5574 -3.1538,-1.9823 -4.7137,-0.9387 -1.5617,1.0382 -1.9843,3.1431 -0.9431,4.7004 l 3.7813,5.6534 c 1.1036,1.6498 2.7919,2.6418 4.6371,2.72 0.0784,0.0035 0.1586,0.0071 0.2389,0.0071 1.7596,0 3.4265,-0.8391 4.6156,-2.3182 L 44.233,17.033 c 1.1731,-1.4631 0.936,-3.5947 -0.533,-4.7627 z" />
    <path
       style="fill:#646462;stroke-width:1.24992692"
       inkscape:connector-curvature="0"
       id="path1075"
       d="M 89.1631,20.7094 H 53.4733 c -1.8755,0 -3.3962,1.5165 -3.3962,3.3902 0,1.8703 1.5189,3.3885 3.3962,3.3885 h 35.6898 c 1.8809,0 3.3999,-1.52 3.3999,-3.3885 0,-1.872 -1.519,-3.3902 -3.3999,-3.3902 z" />
    <path
       style="fill:#b7d501;stroke-width:1.24992692"
       inkscape:connector-curvature="0"
       id="path1077"
       d="m 43.7,35.1468 c -1.4619,-1.168 -3.6048,-0.9333 -4.7744,0.528 L 30.5001,46.1761 27.4123,41.561 c -1.0447,-1.5556 -3.1538,-1.9804 -4.7137,-0.9387 -1.5617,1.0365 -1.9843,3.1431 -0.9431,4.7005 l 3.7813,5.6533 c 1.1036,1.6498 2.7919,2.64 4.6371,2.7218 0.0784,0 0.1586,0.0035 0.2389,0.0035 1.7596,0 3.4265,-0.8337 4.6156,-2.32 L 44.233,39.9095 c 1.1731,-1.4596 0.936,-3.5947 -0.533,-4.7627 z" />
    <path
       style="fill:#646462;stroke-width:1.24992692"
       inkscape:connector-curvature="0"
       id="path1079"
       d="M 89.1631,43.5858 H 53.4733 c -1.8755,0 -3.3962,1.5182 -3.3962,3.3885 0,1.872 1.5189,3.3866 3.3962,3.3866 h 35.6898 c 1.8809,0 3.3999,-1.5129 3.3999,-3.3866 0,-1.8703 -1.519,-3.3885 -3.3999,-3.3885 z" />
    <path
       style="fill:#b7d501;stroke-width:1.24992692"
       inkscape:connector-curvature="0"
       id="path1081"
       d="m 43.7,58.0284 c -1.4619,-1.1734 -3.6048,-0.9369 -4.7744,0.528 L 30.5001,69.056 27.4123,64.4355 c -1.0447,-1.5538 -3.1538,-1.9769 -4.7137,-0.9369 -1.5617,1.04 -1.9843,3.1449 -0.9431,4.7044 l 3.7813,5.651 c 1.1036,1.648 2.7919,2.64 4.6371,2.722 0.0784,0.002 0.1586,0.003 0.2389,0.003 1.7596,0 3.4265,-0.835 4.6156,-2.314 L 44.233,62.7893 c 1.1731,-1.4614 0.936,-3.5965 -0.533,-4.7609 z" />
    <path
       style="fill:#646462;stroke-width:1.24992692"
       inkscape:connector-curvature="0"
       id="path1083"
       d="M 89.1631,66.4622 H 53.4733 c -1.8755,0 -3.3962,1.5147 -3.3962,3.3898 0,1.871 1.5189,3.389 3.3962,3.389 h 35.6898 c 1.8809,0 3.3999,-1.517 3.3999,-3.389 0,-1.8716 -1.519,-3.3898 -3.3999,-3.3898 z" />
    <path
       style="fill:#b7d501;stroke-width:1.24992692"
       inkscape:connector-curvature="0"
       id="path1085"
       d="m 43.7,80.905 c -1.4619,-1.172 -3.6048,-0.935 -4.7744,0.53 l -8.4255,10.497 -3.0878,-4.616 c -1.0447,-1.558 -3.1538,-1.981 -4.7137,-0.941 -1.5617,1.042 -1.9843,3.143 -0.9431,4.702 l 3.7813,5.655 c 1.1036,1.65 2.7919,2.64 4.6371,2.72 0.0784,0.004 0.1586,0.004 0.2389,0.004 1.7596,0 3.4265,-0.834 4.6156,-2.313 L 44.233,85.668 c 1.1731,-1.464 0.936,-3.597 -0.533,-4.763 z" />
    <path
       style="fill:#646462;stroke-width:1.24992692"
       inkscape:connector-curvature="0"
       id="path1087"
       d="M 89.1631,89.339 H 53.4733 c -1.8755,0 -3.3962,1.518 -3.3962,3.39 0,1.872 1.5189,3.388 3.3962,3.388 h 35.6898 c 1.8809,0 3.3999,-1.518 3.3999,-3.388 0,-1.87 -1.519,-3.39 -3.3999,-3.39 z" />
    <path
       style="fill:#646462;stroke-width:1.24992692"
       inkscape:connector-curvature="0"
       id="path1089"
       d="M 102.317,-11.8684 H 86.7225 v 8.816 h 15.5945 c 3.362,0 6.093,2.7253 6.093,6.0764 v 110.085 c 0,3.35 -2.731,6.077 -6.093,6.077 H 14.9345 c -3.3606,0 -6.09359,-2.727 -6.09359,-6.077 V 3.024 c 0,-3.3511 2.73299,-6.0764 6.09359,-6.0764 h 15.5942 v -8.816 H 14.9345 C 6.69976,-11.8684 0,-5.1875 0,3.024 V 113.109 C 0,121.319 6.69976,128 14.9345,128 h 87.3825 c 8.234,0 14.934,-6.681 14.934,-14.891 V 3.024 c 0,-8.2115 -6.7,-14.8924 -14.934,-14.8924 z" />
    <path
       style="fill:#646462;stroke-width:1.24992692"
       inkscape:connector-curvature="0"
       id="path1091"
       d="m 41.2379,1.664 h 34.7753 c 4.0274,0 7.3166,-3.2853 7.3166,-7.2996 v -3.6497 c 0,-4.0143 -3.291,-7.2996 -7.3166,-7.2996 h -6.6516 v -2.4142 -2.2951 c 0,-2.95113 -1.2016,-5.62669 -3.1484,-7.56625 C 64.2699,-30.79822 61.585,-32 58.6256,-32 c -2.9595,0 -5.6444,1.20178 -7.5876,3.13955 -1.945,1.93956 -3.1484,4.61512 -3.1484,7.56625 v 2.2951 2.4142 h -6.6517 c -4.0255,0 -7.3184,3.2853 -7.3184,7.2996 v 3.6497 c 0,4.016 3.2947,7.2996 7.3184,7.2996 z m 17.3877,-28.61333 c 2.5244,0 4.5746,2.04266 4.5746,4.56177 0,2.52086 -2.0502,4.56176 -4.5746,4.56176 -2.5245,0 -4.5747,-2.0409 -4.5747,-4.56176 0,-2.51911 2.0502,-4.56177 4.5747,-4.56177 z" />
  </g>
</svg>
