<?xml version="1.0" encoding="UTF-8" standalone="no"?>
<!-- Created with Inkscape (http://www.inkscape.org/) -->

<svg
   xmlns:dc="http://purl.org/dc/elements/1.1/"
   xmlns:cc="http://creativecommons.org/ns#"
   xmlns:rdf="http://www.w3.org/1999/02/22-rdf-syntax-ns#"
   xmlns:svg="http://www.w3.org/2000/svg"
   xmlns="http://www.w3.org/2000/svg"
   xmlns:sodipodi="http://sodipodi.sourceforge.net/DTD/sodipodi-0.dtd"
   xmlns:inkscape="http://www.inkscape.org/namespaces/inkscape"
   width="128"
   height="128"
   viewBox="0 0 33.866666 33.866667"
   version="1.1"
   id="svg1168"
   inkscape:version="0.92.5 (2060ec1f9f, 2020-04-08)"
   sodipodi:docname="getting-started.svg">
  <defs
     id="defs1162" />
  <sodipodi:namedview
     id="base"
     pagecolor="#ffffff"
     bordercolor="#666666"
     borderopacity="1.0"
     inkscape:pageopacity="0.0"
     inkscape:pageshadow="2"
     inkscape:zoom="5.6"
     inkscape:cx="91.834318"
     inkscape:cy="-11.128733"
     inkscape:document-units="px"
     inkscape:current-layer="g1245"
     showgrid="false"
     fit-margin-top="0"
     fit-margin-left="0"
     fit-margin-right="0"
     fit-margin-bottom="0"
     units="px"
     inkscape:snap-global="false"
     inkscape:window-width="1848"
     inkscape:window-height="1016"
     inkscape:window-x="72"
     inkscape:window-y="27"
     inkscape:window-maximized="1" />
  <metadata
     id="metadata1165">
    <rdf:RDF>
      <cc:Work
         rdf:about="">
        <dc:format>image/svg+xml</dc:format>
        <dc:type
           rdf:resource="http://purl.org/dc/dcmitype/StillImage" />
        <dc:title />
      </cc:Work>
    </rdf:RDF>
  </metadata>
  <g
     inkscape:label="Layer 1"
     inkscape:groupmode="layer"
     id="layer1"
     transform="translate(-121.03422,-85.655143)">
    <g
       id="g1245"
       transform="translate(0,-0.77452632)">
      <path
         style="opacity:1;fill:#ffffff;fill-opacity:1;fill-rule:nonzero;stroke:#000000;stroke-width:0.52916664;stroke-linecap:round;stroke-linejoin:round;stroke-miterlimit:4;stroke-dasharray:none;stroke-dashoffset:0;stroke-opacity:1;paint-order:normal"
         d="m 133.47878,91.40545 c 0.0538,-0.53398 0.70517,-0.75434 0.75978,-1.28532 -0.15768,-0.44624 0.63679,-0.49518 0.43476,-0.94935 0.12397,-0.15301 0.38079,-0.1337 0.34705,-0.37894 0.20944,-0.28314 0.5349,-0.25399 0.7258,-0.56134 0.31854,0.0577 0.57446,-0.0207 0.75579,-0.30238 0.25113,0.007 0.48221,0.0408 0.65761,-0.16236 0.36249,0.06 0.74733,-0.0717 1.00515,-0.29121 0.44667,0.0962 0.79708,-0.26164 1.25025,-0.16403 0.69139,0.0251 1.3848,0.006 2.07525,0.0129 0.27687,0.18682 0.58322,0.33801 0.81045,0.65127 0.18511,0.20717 0.0191,0.57332 0.39057,0.6852 0.34517,0.18728 -0.0143,0.62525 0.31691,0.81644 0.0307,0.21505 0.33644,0.48323 0.0339,0.70253 -0.26382,0.3093 -0.55651,0.59208 -0.83143,0.89121"
         id="path864"
         inkscape:connector-curvature="0" />
      <path
         inkscape:connector-curvature="0"
         id="path27"
         d="m 138.01356,106.9778 c 1.14426,2.43609 0.37597,5.26131 1.84349,7.58343 -0.30578,2.71665 3.01643,3.09315 4.92407,2.52149 0.47848,-1.47601 -0.24761,-3.4556 0.0329,-5.25186 -0.17886,-1.85551 -0.36726,-5.97333 -3.17626,-4.10097 -1.18962,0.12933 -3.80158,0.96153 -3.62421,-0.75209 z"
         style="opacity:1;fill:#ffffff;fill-opacity:1;fill-rule:nonzero;stroke:#000000;stroke-width:0.5291667;stroke-linecap:round;stroke-linejoin:round;stroke-miterlimit:4;stroke-dasharray:none;stroke-dashoffset:0;stroke-opacity:1;paint-order:normal" />
      <path
         inkscape:connector-curvature="0"
         id="path25"
         d="m 133.47878,91.40545 c 0.13365,2.14004 -0.39078,4.38524 0.5505,6.38564 0.68752,2.76178 2.15857,5.27528 2.47268,8.1284 1.77303,1.44161 4.26456,2.91264 6.51332,1.22201 2.72795,-0.74654 2.03048,-3.60243 1.24976,-5.55903 -0.64078,-3.16325 -0.24537,-6.49104 -0.35628,-9.72346 -0.44186,-1.14544 -0.56035,-2.16791 -1.69815,-0.78899 -1.83484,1.03176 -3.89162,1.01347 -5.94421,0.94029 -1.20449,0.11133 -1.92494,0.0164 -2.78762,-0.60486 z"
         style="opacity:1;fill:#ffffff;fill-opacity:1;fill-rule:nonzero;stroke:#000000;stroke-width:0.5291667;stroke-linecap:round;stroke-linejoin:round;stroke-miterlimit:4;stroke-dasharray:none;stroke-dashoffset:0;stroke-opacity:1;paint-order:normal" />
      <path
         inkscape:connector-curvature="0"
         id="path29"
         d="m 145.26921,103.04692 c 0.71654,0.62168 1.57111,0.11594 2.11623,-0.45357"
         style="opacity:1;fill:none;fill-opacity:1;fill-rule:nonzero;stroke:#000000;stroke-width:0.5291667;stroke-linecap:round;stroke-linejoin:round;stroke-miterlimit:4;stroke-dasharray:none;stroke-dashoffset:0;stroke-opacity:1;paint-order:normal" />
      <path
         inkscape:connector-curvature="0"
         id="path31"
         d="m 146.32732,93.37089 c 0.91301,2.54741 1.03703,5.25334 1.20933,7.9179 0.47789,1.8204 -1.12428,5.66813 1.1838,6.14257 1.84602,1e-4 3.91745,0.56848 3.6829,-1.94314 0.11878,-2.25147 0.13377,-4.3459 0.94938,-6.44924 0.8617,-2.11121 1.1498,-4.69309 1.32487,-6.82505 -2.45558,-0.0715 -4.79273,1.48488 -7.32391,1.3078 -0.34507,-0.0265 -0.68825,-0.077 -1.02637,-0.15084 z"
         style="opacity:1;fill:#ffffff;fill-opacity:1;fill-rule:nonzero;stroke:#000000;stroke-width:0.5291667;stroke-linecap:round;stroke-linejoin:round;stroke-miterlimit:4;stroke-dasharray:none;stroke-dashoffset:0;stroke-opacity:1;paint-order:normal" />
      <path
         inkscape:connector-curvature="0"
         id="path33"
         d="m 129.24633,95.33633 c -2.3798,1.11513 -4.98721,1.77017 -7.63764,1.51034 -1.35166,0.41175 1.55036,2.00668 2.30899,2.50968 1.85337,1.66778 3.48676,3.48756 4.71475,5.64307 1.71847,1.31711 1.65717,5.04226 4.21698,4.70607 1.44468,-0.17608 4.54149,-0.19824 2.87998,-2.27429 -0.76417,-2.42082 -2.19039,-4.48856 -3.67821,-6.49828 -1.38728,-1.66364 -1.72761,-3.75555 -2.80485,-5.59659 z"
         style="opacity:1;fill:#ffffff;fill-opacity:1;fill-rule:nonzero;stroke:#000000;stroke-width:0.5291667;stroke-linecap:round;stroke-linejoin:round;stroke-miterlimit:4;stroke-dasharray:none;stroke-dashoffset:0;stroke-opacity:1;paint-order:normal" />
      <path
         inkscape:connector-curvature="0"
         id="path35"
         d="m 139.97863,95.63871 c 0.9442,-1.86855 -0.15679,-1.28611 -0.66685,0.002 -0.56668,0.87864 0.76314,0.72462 0.66685,-0.002 z"
         style="opacity:1;fill:none;fill-opacity:1;fill-rule:nonzero;stroke:#000000;stroke-width:0.5291667;stroke-linecap:round;stroke-linejoin:round;stroke-miterlimit:4;stroke-dasharray:none;stroke-dashoffset:0;stroke-opacity:1;paint-order:normal" />
      <path
         inkscape:connector-curvature="0"
         id="path37"
         d="m 135.59501,95.33633 c 0.50757,1.1008 0.88606,2.05649 0.28681,0.39124 z"
         style="opacity:1;fill:none;fill-opacity:1;fill-rule:nonzero;stroke:#000000;stroke-width:0.5291667;stroke-linecap:round;stroke-linejoin:round;stroke-miterlimit:4;stroke-dasharray:none;stroke-dashoffset:0;stroke-opacity:1;paint-order:normal" />
      <path
         inkscape:connector-curvature="0"
         id="path858"
         d="m 128.63243,104.99942 c 0.25501,-0.34846 0.48045,-0.72065 0.76505,-1.04538 0.0333,-0.0379 0.10079,0 0.15116,0 0.15116,0 0.30233,0 0.45348,0 0.40309,0 0.80619,0 1.20928,0 0.10078,0 0.20154,0 0.30232,0 0.10078,0 0.20671,0.0319 0.30232,0 0.0676,-0.0225 0.0836,-0.12865 0.15115,-0.15118 0.0956,-0.0319 0.20671,0.0319 0.30232,0 0.0676,-0.0225 0.0836,-0.12866 0.15116,-0.1512 0.0956,-0.0319 0.20155,0 0.30232,0 0.0503,0 0.1061,0.0225 0.15116,0 0.0638,-0.0319 0.0874,-0.11931 0.15116,-0.15118 0.0954,-0.0477 0.66043,0.0476 0.75579,0 0.0638,-0.0319 0.0874,-0.11931 0.15116,-0.15119 0.045,-0.0225 0.11553,0.0356 0.15116,0 0.0356,-0.0356 -0.0356,-0.11555 0,-0.15119 0.0713,-0.0713 0.23106,0.0713 0.30232,0 0.0356,-0.0356 -0.0356,-0.11555 0,-0.15118 0.0356,-0.0356 0.10339,0.016 0.15116,0 0.10689,-0.0356 0.19543,-0.11556 0.30231,-0.15119 0.0479,-0.016 0.10611,0.0225 0.15117,0 0.0638,-0.0319 0.0874,-0.11932 0.15115,-0.1512 0.12093,-0.0604 0.33256,0.0605 0.45348,0 0.0638,-0.0319 0.10078,-0.1008 0.15116,-0.15118"
         style="opacity:1;fill:none;fill-opacity:1;fill-rule:nonzero;stroke:#000000;stroke-width:0.52916664;stroke-linecap:round;stroke-linejoin:round;stroke-miterlimit:4;stroke-dasharray:none;stroke-dashoffset:0;stroke-opacity:1;paint-order:normal" />
      <path
         inkscape:connector-curvature="0"
         id="path860"
         d="m 139.85705,114.56123 c -1.11602,-0.59189 -1.29686,-0.62878 -2.14581,-0.62878 -0.0503,0 -0.10078,0 -0.15115,0 -0.0503,0 -0.1061,-0.0225 -0.15117,0 -0.0637,0.0319 -0.0874,0.11931 -0.15115,0.15118 -0.045,0.0225 -0.10339,-0.016 -0.15117,0 -0.10689,0.0356 -0.19542,0.11556 -0.30231,0.1512 -0.0478,0.016 -0.11553,-0.0356 -0.15116,0 -0.0356,0.0356 0.045,0.12864 0,0.15118 -0.095,0.0475 -0.50963,-0.0475 -0.60464,0 -0.0638,0.0319 -0.0874,0.11931 -0.15115,0.15119 -0.0731,0.0365 -0.72571,-0.12109 -0.45349,0.15118 0.0713,0.0713 0.23107,-0.0713 0.30232,0 0.0356,0.0356 -0.0225,0.10612 0,0.1512 0.16712,0.33428 0.0938,0.0469 0.30232,0.15118 0.62909,0.31461 -0.16159,-0.0102 0.15115,0.30238 0.005,0.005 0.41683,0 0.45349,0 0.40309,0 0.80618,0 1.20928,0 0.0791,0 0.56489,0.0199 0.60463,0 0.62909,-0.31461 -0.16159,0.0102 0.15116,-0.30238 0.0356,-0.0356 0.11553,0.0356 0.15116,0 0.0356,-0.0356 -0.0356,-0.11556 0,-0.15118 0.0356,-0.0356 0.1061,0.0225 0.15116,0 0.0638,-0.0319 0.0874,-0.11933 0.15116,-0.1512 0.045,-0.0225 0.10146,0.008 0.15116,0 0.21284,-0.0345 0.4228,-0.0847 0.63421,-0.12715"
         style="opacity:1;fill:#ffffff;fill-opacity:1;fill-rule:nonzero;stroke:#000000;stroke-width:0.52916664;stroke-linecap:round;stroke-linejoin:round;stroke-miterlimit:4;stroke-dasharray:none;stroke-dashoffset:0;stroke-opacity:1;paint-order:normal" />
      <path
         inkscape:connector-curvature="0"
         id="path862"
         d="m 144.81404,111.83086 c 0.25249,0.75092 0.46114,1.51806 0.75748,2.25277 0.0189,0.0467 0.10079,0 0.15117,0 0.0503,0 0.10078,0 0.15115,0 0.50387,0 1.00773,0 1.5116,0 0.0713,0 0.74894,-0.007 0.75579,0 0.0356,0.0356 0,0.1008 0,0.1512 0,0.0503 0.0225,0.10612 0,0.15118 -0.0319,0.0637 -0.11164,0.0919 -0.15115,0.15119 -0.0625,0.0938 -0.0887,0.20861 -0.15117,0.30238 -0.0395,0.0593 -0.11929,0.0874 -0.15115,0.15118 -0.0225,0.045 0.0225,0.10612 0,0.15119 -0.0319,0.0637 -0.10079,0.10081 -0.15117,0.15119 -0.0503,0.0503 -0.0874,0.11931 -0.15115,0.15118 -0.0391,0.0196 -0.79982,0 -0.90696,0 -0.0681,0 -0.40748,0.023 -0.45347,0 -0.0638,-0.0319 -0.0874,-0.11931 -0.15117,-0.15118 -0.045,-0.0225 -0.1061,0.0225 -0.15115,0 -0.0637,-0.0319 -0.0874,-0.11932 -0.15117,-0.15119 -0.0901,-0.0451 -0.23105,0.0713 -0.30231,0 -0.0356,-0.0356 0.0356,-0.11555 0,-0.15119 -0.0713,-0.0713 -0.23106,0.0713 -0.30232,0 -0.0713,-0.0713 0.0713,-0.2311 0,-0.30238 -0.0356,-0.0356 -0.11553,0.0356 -0.15116,0 -0.0756,-0.0756 0.0756,-0.37797 0,-0.45355 -0.0356,-0.0356 -0.11553,0.0356 -0.15116,0 -0.006,-0.006 0,-0.54924 0,-0.60476 0,-0.0505 -0.0356,-0.11555 0,-0.15119 0.0356,-0.0356 0.1466,0.0502 0.15116,0 0.0497,-0.54709 -0.001,-1.09868 -0.002,-1.64802"
         style="opacity:1;fill:#ffffff;fill-opacity:1;fill-rule:nonzero;stroke:#000000;stroke-width:0.52916664;stroke-linecap:round;stroke-linejoin:round;stroke-miterlimit:4;stroke-dasharray:none;stroke-dashoffset:0;stroke-opacity:1;paint-order:normal" />
      <path
         inkscape:connector-curvature="0"
         id="path866"
         d="m 135.2927,100.47672 c 0.33418,0.6685 0.14297,0.44539 0.45347,0.75594 0.0503,0.0504 0.0874,0.11932 0.15117,0.15119 0.046,0.023 0.3854,0 0.45347,0 0.30232,0 0.60464,0 0.90696,0 0.50386,0 1.00773,0 1.51159,0 0.0791,0 0.56489,0.0199 0.60463,0 0.0638,-0.0319 0.0874,-0.11932 0.15116,-0.15119 0.0902,-0.045 0.21218,0.045 0.30232,0 0.0638,-0.0319 0.0874,-0.11932 0.15116,-0.15119 0.045,-0.0225 0.1061,0.0225 0.15116,0 0.0638,-0.0319 0.0874,-0.11931 0.15116,-0.15118 0.0901,-0.045 0.23107,0.0713 0.30232,0 0.0356,-0.0356 -0.0356,-0.11556 0,-0.1512 0.0356,-0.0356 0.1061,0.0225 0.15116,0 0.0638,-0.0319 0.0874,-0.11931 0.15115,-0.15118 0.0902,-0.045 0.23107,0.0713 0.30232,0 0.0356,-0.0356 -0.0356,-0.11556 0,-0.15119 0.0356,-0.0356 0.1061,0.0225 0.15117,0 0.0638,-0.0319 0.0874,-0.11932 0.15115,-0.15119 0.045,-0.0225 0.1061,0.0225 0.15117,0 0.0637,-0.0319 0.0874,-0.11931 0.15115,-0.15118 0.045,-0.0225 0.1061,0.0225 0.15117,0 0.0638,-0.0319 0.0874,-0.11932 0.15115,-0.15119 0.045,-0.0225 0.1061,0.0225 0.15117,0 0.12746,-0.0638 0.17485,-0.23863 0.3023,-0.30238 0.045,-0.0225 0.11554,0.0356 0.15117,0 0.0356,-0.0356 -0.0356,-0.11556 0,-0.15119 0.0713,-0.0713 0.23106,0.0713 0.30232,0 0.0713,-0.0713 -0.045,-0.21222 0,-0.30237 0.0319,-0.0637 0.11929,-0.0874 0.15115,-0.15119 0.045,-0.0902 -0.0713,-0.2311 0,-0.30238 0.20155,-0.20158 0.15117,0.25198 0.15117,-0.15118"
         style="opacity:1;fill:none;fill-opacity:1;fill-rule:nonzero;stroke:#000000;stroke-width:0.52916664;stroke-linecap:round;stroke-linejoin:round;stroke-miterlimit:4;stroke-dasharray:none;stroke-dashoffset:0;stroke-opacity:1;paint-order:normal" />
      <path
         style="opacity:1;fill:none;fill-opacity:1;fill-rule:nonzero;stroke:#000000;stroke-width:0.52916664;stroke-linecap:round;stroke-linejoin:round;stroke-miterlimit:4;stroke-dasharray:none;stroke-dashoffset:0;stroke-opacity:1;paint-order:normal"
         d="m 136.50196,104.70999 c 0.42078,-0.1195 0.90292,0.17465 1.28461,-0.11303 0.30476,-0.23196 0.73079,-0.10623 1.02442,-0.30763 0.32603,-0.0201 0.65375,-0.009 0.87423,-0.29386 0.17309,-0.0806 0.35531,0.0803 0.52945,-0.11613 0.17034,-0.26267 0.69068,0.13767 0.67091,-0.22767 0.37417,-0.091 0.6702,-0.38313 1.09116,-0.33448 0.22772,-0.18346 0.5093,-0.41478 0.58346,-0.72274 -0.0744,-0.21033 0.1856,-0.0894 0.17015,-0.33279 0.14236,-0.16428 0.0897,0.29048 0.21801,-0.001 0.0291,-0.29665 0.21743,-0.5324 0.51846,-0.61817 0.0202,-0.26293 -0.12865,-0.68233 0.13809,-0.784 -0.055,-0.16834 0.22808,-0.2142 0.1527,-0.3815"
         id="path868"
         inkscape:connector-curvature="0" />
      <path
         inkscape:connector-curvature="0"
         id="path870"
         d="m 138.31588,96.69702 c -0.51763,-0.15793 -0.46723,0.46045 -0.75579,0.60475 -0.20851,0.10431 -0.13521,-0.1831 -0.30232,0.15119 -0.0225,0.045 0,0.10081 0,0.15119 0,0.0503 0,0.1008 0,0.15119 0,0.0503 0,0.1008 0,0.15118 0,0.0503 -0.0356,0.11556 0,0.1512 0.0356,0.0356 0.10078,0 0.15115,0 0.25194,0 0.50387,0 0.7558,0 0.0503,0 0.11553,0.0356 0.15116,0 0.0356,-0.0356 -0.0356,-0.11556 0,-0.1512 0.0713,-0.0713 0.23107,0.0713 0.30232,0 0.0356,-0.0356 0,-0.1008 0,-0.15118 0,-0.57179 0.042,-0.36969 -0.30232,-1.05832 z"
         style="opacity:1;fill:none;fill-opacity:1;fill-rule:nonzero;stroke:#000000;stroke-width:0.52916664;stroke-linecap:round;stroke-linejoin:round;stroke-miterlimit:4;stroke-dasharray:none;stroke-dashoffset:0;stroke-opacity:1;paint-order:normal" />
      <path
         inkscape:connector-curvature="0"
         id="path872"
         d="m 144.66457,114.99076 c -0.45348,0 -0.90696,0 -1.36043,0 -0.10079,0 -0.20672,-0.0319 -0.30232,0 -0.10689,0.0356 -0.20857,0.0887 -0.30232,0.15119 -0.0593,0.0395 -0.0836,0.12865 -0.15117,0.15119 -0.0956,0.0319 -0.20349,-0.0198 -0.3023,0 -0.15625,0.0312 -0.29724,0.11993 -0.45349,0.15118 -0.14822,0.0296 -0.30232,0 -0.45347,0 -0.35271,0 -0.70541,0 -1.05812,0 -0.10079,0 -0.20155,0 -0.30232,0 -0.0503,0 -0.1061,-0.0225 -0.15116,0 -0.0638,0.0319 -0.0874,0.11932 -0.15116,0.15119 -0.12092,0.0604 -0.33254,-0.0604 -0.45347,0 -0.0638,0.0319 -0.0874,0.11932 -0.15116,0.15119 -0.045,0.0225 -0.1061,-0.0225 -0.15116,0 -0.0638,0.0319 -0.0874,0.11932 -0.15116,0.15119 -0.045,0.0225 -0.1061,-0.0225 -0.15116,0 -0.0638,0.0319 -0.0874,0.11931 -0.15116,0.15119 -0.2085,0.10431 -0.13521,-0.18311 -0.30232,0.15119 -0.0274,0.0546 0,0.65077 0,0.75593 0,0.0713 -0.007,0.74909 0,0.75595 0.0356,0.0356 0.10611,-0.0225 0.15116,0 0.0637,0.0319 0.0836,0.12864 0.15116,0.15118 0.0956,0.0319 0.20155,0 0.30232,0 0.15116,0 0.30232,0 0.45348,0 0.65501,0 1.31004,0 1.96506,0 0.65503,0 1.31005,0 1.96507,0 0.14238,0 0.66982,0.0286 0.75581,0 0.0676,-0.0225 0.0918,-0.11166 0.15115,-0.15118 0.0213,-0.0143 0.65026,-0.25676 0.45348,-0.45357 -0.0356,-0.0356 -0.11553,0.0356 -0.15116,0 -0.0309,-0.0309 0.03,-0.39362 0,-0.45356 -0.31454,-0.62921 0.0102,0.16162 -0.30232,-0.15119 -0.005,-0.005 0,-0.4169 0,-0.45356 0,-0.40317 0.0503,0.0503 -0.15115,-0.15119 -0.0356,-0.0356 0,-0.1008 0,-0.15119 0,-0.0505 -0.0356,-0.11556 0,-0.15119 0.0356,-0.0356 0.11552,0.0356 0.15115,0 0.0356,-0.0356 0,-0.10081 0,-0.15119 0,-0.0503 0,-0.1008 0,-0.15119 0,-0.40316 -0.0503,0.0505 0.15116,-0.15118 0.0356,-0.0356 0,-0.10081 0,-0.15119 0.15116,-0.0505 0.30232,-0.1008 0.45348,-0.15119 z"
         style="opacity:1;fill:none;fill-opacity:1;fill-rule:nonzero;stroke:#000000;stroke-width:0.52916664;stroke-linecap:round;stroke-linejoin:round;stroke-miterlimit:4;stroke-dasharray:none;stroke-dashoffset:0;stroke-opacity:1;paint-order:normal" />
      <path
         inkscape:connector-curvature="0"
         id="path1211"
         d="m 143.14583,118.1044 c -0.0945,0.12599 -0.18899,0.25199 -0.28349,0.37798 0.0407,0.13112 -0.1135,0.18488 -0.1748,0.27502 -0.0448,0.0233 -0.15096,-0.0259 -0.10478,0.0692 0.0129,0.0864 -0.14611,-0.0248 -0.1141,0.0945 0.0219,0.0827 0.1427,-0.0116 0.17143,0.0898 0.0624,0.069 0.15991,0.12336 0.12775,0.2275 0.0844,-0.0187 0.11316,0.0101 0.0945,0.0945 0.0847,-0.0234 0.13651,0.0331 0.189,0.0945 0.18874,0.007 0.37823,0.007 0.56697,0 0.0545,-0.0654 0.1096,-0.11836 0.2014,-0.099 0.0885,-0.0393 0.1678,-0.11403 0.27108,-0.09 0.0505,-0.0243 0.23582,-0.10944 0.0824,-0.0949 -0.092,-0.0375 0.0456,-0.13489 0.10663,-0.0941 0.0653,-0.0801 0.19716,-0.13586 0.19423,-0.25157 0.005,-0.13008 -0.0149,-0.26123 0.004,-0.39016 -0.033,-0.0882 -0.24283,0.0702 -0.19447,-0.0804 0.0161,-0.0849 -0.15618,0.0221 -0.0945,-0.0945 0.003,-0.0839 -0.14177,0.0134 -0.15598,-0.0949 -0.079,-0.0827 -0.21072,-0.0236 -0.31173,-0.0307 -0.10747,0.0161 -0.22574,0.0185 -0.27695,-0.094 -0.10707,-0.0132 -0.20053,0.0607 -0.29874,0.0912 z"
         style="opacity:1;fill:none;fill-opacity:1;fill-rule:nonzero;stroke:#000000;stroke-width:0.52916664;stroke-linecap:round;stroke-linejoin:round;stroke-miterlimit:4;stroke-dasharray:none;stroke-dashoffset:0;stroke-opacity:1;paint-order:normal" />
    </g>
  </g>
</svg>
