<?xml version="1.0" encoding="UTF-8" standalone="no"?>
<!-- Created with Inkscape (http://www.inkscape.org/) -->

<svg
   xmlns:dc="http://purl.org/dc/elements/1.1/"
   xmlns:cc="http://creativecommons.org/ns#"
   xmlns:rdf="http://www.w3.org/1999/02/22-rdf-syntax-ns#"
   xmlns:svg="http://www.w3.org/2000/svg"
   xmlns="http://www.w3.org/2000/svg"
   xmlns:sodipodi="http://sodipodi.sourceforge.net/DTD/sodipodi-0.dtd"
   xmlns:inkscape="http://www.inkscape.org/namespaces/inkscape"
   width="128"
   height="128"
   viewBox="0 0 33.866667 33.866665"
   version="1.1"
   id="svg1561"
   inkscape:version="0.92.5 (2060ec1f9f, 2020-04-08)"
   sodipodi:docname="member-events.svg">
  <defs
     id="defs1555" />
  <sodipodi:namedview
     id="base"
     pagecolor="#ffffff"
     bordercolor="#666666"
     borderopacity="1.0"
     inkscape:pageopacity="0.0"
     inkscape:pageshadow="2"
     inkscape:zoom="1.979899"
     inkscape:cx="274.70924"
     inkscape:cy="-12.138023"
     inkscape:document-units="mm"
     inkscape:current-layer="layer1"
     showgrid="false"
     fit-margin-top="0"
     fit-margin-left="0"
     fit-margin-right="0"
     fit-margin-bottom="0"
     units="px"
     inkscape:window-width="1848"
     inkscape:window-height="1016"
     inkscape:window-x="72"
     inkscape:window-y="27"
     inkscape:window-maximized="1" />
  <metadata
     id="metadata1558">
    <rdf:RDF>
      <cc:Work
         rdf:about="">
        <dc:format>image/svg+xml</dc:format>
        <dc:type
           rdf:resource="http://purl.org/dc/dcmitype/StillImage" />
        <dc:title></dc:title>
      </cc:Work>
    </rdf:RDF>
  </metadata>
  <g
     inkscape:label="Layer 1"
     inkscape:groupmode="layer"
     id="layer1"
     transform="translate(-80.134383,-108.69835)">
    <g
       id="g1109"
       transform="matrix(1.2705336,0,0,1.2703049,-329.04769,-76.272259)"
       style="stroke-width:0.78714168">
      <path
         sodipodi:nodetypes="cccccccccccccccccccccccccc"
         inkscape:connector-curvature="0"
         id="path1006"
         d="m 324.31676,147.06139 c 0.82204,1.30814 1.6041,2.67889 2.23442,4.09231 0.63732,1.53438 1.31959,3.02608 2.36993,4.33307 0.77367,1.45372 1.92067,2.96006 2.38849,4.42571 -0.88647,1.38572 -1.77001,2.75661 -2.65915,4.1264 -1.01289,1.39906 -1.70876,3.02329 -2.48179,4.57647 -0.0601,1.16848 -1.80922,2.78434 -1.30909,3.44785 1.35462,-1.08478 2.71435,-2.14259 4.32591,-2.84979 1.49519,-0.74111 2.84733,-1.70674 4.38732,-2.40112 1.02642,-0.39947 1.66515,-2.46234 2.46107,-0.55849 0.68173,1.79567 2.55007,2.31562 4.0555,3.17321 1.09389,0.67989 3.50978,2.35546 3.97716,2.10821 -0.0245,-1.80585 -0.7248,-3.28804 -1.60646,-4.81917 -0.95224,-1.45087 -1.21667,-3.26732 -2.20191,-4.69619 -1.2938,-1.22636 1.55507,-1.22885 2.12743,-2.27521 1.48092,-1.16376 3.45657,-1.87233 4.64308,-3.30807 -1.31996,-0.86791 -3.10998,-0.0404 -4.61376,-0.009 -1.3438,-0.29309 -3.12009,0.58449 -4.16352,0.12281 0.54437,-1.79561 1.05885,-3.55715 1.6907,-5.32666 0.55042,-1.80373 1.30815,-3.55963 1.67625,-5.40429 -1.39645,0.67609 -2.53328,2.18726 -3.32891,3.62011 -0.8952,1.6511 -3.00729,3.34473 -4.51701,4.47776 -1.53417,-0.23885 -3.50694,-1.91581 -4.92307,-2.80401 -1.30984,-0.86431 -2.30603,-1.84961 -3.57753,-3.06358 -0.34736,-0.30466 -0.62591,-0.65028 -0.95506,-0.98822 z"
         style="opacity:1;fill:#ffffff;fill-opacity:1;fill-rule:nonzero;stroke:#000000;stroke-width:0.41652915;stroke-linecap:round;stroke-linejoin:round;stroke-miterlimit:4;stroke-dasharray:none;stroke-dashoffset:0;stroke-opacity:1;paint-order:normal" />
      <path
         inkscape:connector-curvature="0"
         id="path1008"
         d="m 334.73001,150.27419 c -0.0796,1.80133 -1.06433,3.41724 -1.83916,5.01425 -0.25075,1.50372 -1.05604,2.60524 -2.70059,2.2645 -2.4212,0.62477 -4.85501,1.20496 -7.2734,1.83816 -0.66497,0.5718 1.70042,0.67765 2.17719,1.10382 1.6221,0.47762 3.22973,1.19471 4.95063,1.02378 2.22836,-0.48871 2.59048,1.88243 3.64588,3.21297 0.84964,0.88108 1.51053,2.27225 1.99938,3.08334 -0.064,-1.50218 0.71341,-2.85937 1.18811,-4.26562 -0.0332,-1.45838 0.21734,-3.76754 2.2984,-3.07009 2.1215,0.19491 4.17223,-0.37673 6.14916,-1.08337 0.56367,-0.64389 3.31349,-0.0612 2.48696,-0.8883 -1.62497,-0.84368 -3.61272,-0.18005 -5.38252,-0.39045 -1.76147,0.0797 -3.52161,-0.42109 -5.12841,-1.07761 -0.72422,-1.37275 -1.12186,-2.9558 -1.62984,-4.38802 -0.0127,-0.9174 -0.56604,-1.57182 -0.94179,-2.37736 z"
         style="opacity:1;fill:#ffffff;fill-opacity:1;fill-rule:nonzero;stroke:#000000;stroke-width:0.41652915;stroke-linecap:round;stroke-linejoin:round;stroke-miterlimit:4;stroke-dasharray:none;stroke-dashoffset:0;stroke-opacity:1;paint-order:normal" />
      <path
         inkscape:connector-curvature="0"
         id="path1026"
         d="m 331.59535,157.49623 c -0.0979,0.12353 0.0807,0.0866 0.0945,0.14174 0.006,0.0229 -0.005,0.0477 0,0.0709 0.003,0.01 0.0633,0.13035 0.0709,0.14174 0.006,0.009 0.0175,0.0144 0.0236,0.0236 0.0726,0.10896 -0.0254,-0.0145 0.0472,0.0945 0.006,0.009 0.0175,0.0144 0.0236,0.0236 0.01,0.0147 0.0138,0.0326 0.0235,0.0472 0.006,0.009 0.0188,0.0136 0.0236,0.0236 0.003,0.007 -0.006,0.018 0,0.0236 0.006,0.006 0.018,-0.006 0.0236,0 0.006,0.006 -0.003,0.0166 0,0.0236 0.003,0.005 0.09,0.0922 0.0945,0.0945 0.007,0.004 0.0167,-0.004 0.0236,0 0.0283,0.0142 0.0425,0.0567 0.0709,0.0709 0.007,0.004 0.0167,-0.004 0.0236,0 0.0101,0.005 0.013,0.0201 0.0236,0.0236 0.0148,0.005 0.0323,-0.005 0.0473,0 0.0212,0.007 0.0273,0.0373 0.0473,0.0472 0.007,0.004 0.0167,-0.004 0.0236,0 0.01,0.005 0.013,0.0201 0.0235,0.0236 0.0151,0.005 0.0323,-0.005 0.0473,0 0.0106,0.004 0.0159,0.0157 0.0236,0.0236 0.0159,0.008 0.0302,0.0194 0.0472,0.0236 0.0154,0.004 0.0323,-0.005 0.0472,0 0.0106,0.004 0.0143,0.0174 0.0236,0.0236 0.0145,0.01 0.0326,0.0139 0.0473,0.0236 0.009,0.006 0.0138,0.0187 0.0236,0.0236 0.007,0.004 0.0161,-0.002 0.0236,0 0.0167,0.006 0.0305,0.018 0.0472,0.0236 0.007,0.002 0.018,-0.006 0.0236,0 0.006,0.006 -0.003,0.0166 0,0.0236 0.0492,0.0983 -0.003,-0.0252 0.0473,0.0236 0.006,0.006 -0.006,0.0181 0,0.0236 0.006,0.006 0.018,-0.006 0.0236,0 0.006,0.006 -0.003,0.0166 0,0.0236 0.0188,0.0378 0.0283,0.009 0.0473,0.0472 0.003,0.007 -0.003,0.0166 0,0.0236 0.0783,0.0784 -0.0111,-0.0223 0.0236,0.0472 0.0143,0.0284 0.0567,0.0425 0.0709,0.0709 0.0164,0.0326 -0.0286,0.0211 0.0236,0.0472 0.007,0.004 0.018,-0.006 0.0236,0 0.006,0.006 -0.006,0.0181 0,0.0236 0.006,0.006 0.0167,-0.004 0.0235,0 0.0101,0.005 0.0138,0.0187 0.0236,0.0236 0.005,0.002 0.16129,0 0.16537,0 0.13387,0 0.26775,0 0.40161,0 0.46461,0 0.92919,0 1.3938,0 0.25196,0 0.50395,0 0.75594,0 0.0709,0 0.14173,0 0.21262,0 0.0124,0 0.0883,0.003 0.0945,0 0.01,-0.005 0.0138,-0.0186 0.0236,-0.0236 0.007,-0.004 0.018,0.006 0.0235,0 0.006,-0.006 -0.003,-0.0166 0,-0.0236 0.0101,-0.0199 0.0373,-0.0273 0.0473,-0.0472 0.003,-0.007 -0.006,-0.0181 0,-0.0236 0.006,-0.006 0.018,0.006 0.0236,0 0.006,-0.006 -0.003,-0.0166 0,-0.0236 0.0106,-0.0209 0.0565,-0.0494 0.0709,-0.0709 0.01,-0.0147 0.0111,-0.0348 0.0236,-0.0472 0.0124,-0.0125 0.0367,-0.01 0.0473,-0.0236 0.0148,-0.0199 0.0109,-0.0495 0.0236,-0.0709 0.13184,-0.21973 -0.0473,0.16556 0.0945,-0.11812 0.0111,-0.0223 0.0143,-0.0478 0.0236,-0.0709 0.007,-0.0164 0.0169,-0.0309 0.0235,-0.0473 0.0135,-0.034 0.0236,-0.0865 0.0472,-0.11812 0.0135,-0.0178 0.0339,-0.0294 0.0473,-0.0472 0.0238,-0.0317 0.0336,-0.0841 0.0473,-0.11812 0.0193,-0.0483 0.0476,-0.0952 0.0709,-0.14174 0.0159,-0.0315 0.0277,-0.0652 0.0473,-0.0945 0.007,-0.01 0.086,-0.0903 0.0945,-0.0945 0.007,-0.004 0.0167,0.004 0.0236,0 0.0983,-0.0492 -0.0251,0.002 0.0236,-0.0473 0.006,-0.006 0.0167,0.004 0.0236,0 0.0101,-0.005 0.0159,-0.0157 0.0236,-0.0236 0.0106,-0.0106 0.0673,-0.0601 0.0709,-0.0709 0.005,-0.0149 -0.005,-0.0323 0,-0.0472 0.005,-0.016 0.0619,-0.0528 0.0709,-0.0709 0.003,-0.007 -0.006,-0.0181 0,-0.0236 0.0124,-0.0125 0.0348,-0.0112 0.0473,-0.0236 0.006,-0.006 -0.003,-0.0166 0,-0.0236 0.003,-0.006 0.0646,-0.0677 0.0708,-0.0709 0.007,-0.004 0.018,0.006 0.0236,0 0,-0.0348 -0.006,-0.0181 0.0236,-0.0472 0.008,-0.008 0.0138,-0.0187 0.0236,-0.0236 0.007,-0.004 0.0201,0.007 0.0235,0 0.007,-0.0141 -0.007,-0.0332 0,-0.0473 0.003,-0.007 0.018,0.006 0.0236,0 0.006,-0.006 -0.003,-0.0166 0,-0.0236 0.0283,-0.0566 0.0472,0.0149 0.0472,-0.0472"
         style="opacity:1;fill:none;fill-opacity:1;fill-rule:nonzero;stroke:#000000;stroke-width:0.41652918;stroke-linecap:round;stroke-linejoin:round;stroke-miterlimit:4;stroke-dasharray:none;stroke-dashoffset:0;stroke-opacity:1;paint-order:normal" />
      <path
         inkscape:connector-curvature="0"
         id="path1028"
         d="m 337.47759,160.75627 c 0,-0.1121 0.014,-0.0663 -0.0236,-0.14174 -0.008,-0.0157 -0.0145,-0.0321 -0.0236,-0.0472 -0.0145,-0.0243 -0.0383,-0.0439 -0.0472,-0.0709 -0.0663,-0.19882 0.0773,0.0602 -0.0236,-0.14174 -0.0127,-0.0254 -0.0326,-0.0465 -0.0473,-0.0709 -0.018,-0.0302 -0.0277,-0.0652 -0.0473,-0.0945 -0.006,-0.009 -0.0175,-0.0144 -0.0236,-0.0236 -0.0362,-0.0543 -0.0111,-0.0638 -0.0472,-0.11812 -0.0124,-0.0185 -0.0373,-0.0273 -0.0473,-0.0472 -0.003,-0.007 0.006,-0.018 0,-0.0236 -0.0124,-0.0125 -0.0375,-0.009 -0.0473,-0.0236 -0.009,-0.0131 0.005,-0.0323 0,-0.0472 -0.006,-0.0179 -0.0836,-0.0728 -0.0945,-0.0945 -0.003,-0.007 0.003,-0.0166 0,-0.0236 -0.005,-0.01 -0.0188,-0.0137 -0.0236,-0.0236 -0.003,-0.007 0.006,-0.0181 0,-0.0236 -0.006,-0.006 -0.0167,0.004 -0.0236,0 -0.0198,-0.01 -0.0287,-0.0349 -0.0472,-0.0472 -0.17129,-0.0856 0.0373,0.0249 -0.0709,-0.0472 -0.0293,-0.0195 -0.0663,-0.0261 -0.0945,-0.0472 -0.0177,-0.0134 -0.0315,-0.0315 -0.0473,-0.0473 -0.008,-0.008 -0.0175,-0.0144 -0.0236,-0.0236 -0.01,-0.0147 -0.0138,-0.0326 -0.0235,-0.0472 -0.006,-0.009 -0.0175,-0.0144 -0.0236,-0.0236 -0.01,-0.0147 -0.0138,-0.0326 -0.0236,-0.0473 -0.006,-0.009 -0.0201,-0.0131 -0.0236,-0.0236 -0.005,-0.0149 0.005,-0.0323 0,-0.0472 -0.004,-0.0128 -0.0605,-0.0554 -0.0709,-0.0709 -0.01,-0.0147 -0.0138,-0.0326 -0.0236,-0.0472 -0.0124,-0.0185 -0.0402,-0.0261 -0.0472,-0.0472 -0.005,-0.0149 0.009,-0.0342 0,-0.0473 -0.01,-0.0147 -0.0375,-0.009 -0.0472,-0.0236 -0.009,-0.0131 0.005,-0.0323 0,-0.0472 -0.003,-0.0105 -0.0159,-0.0157 -0.0236,-0.0236 -0.0159,-0.0157 -0.0349,-0.0287 -0.0473,-0.0473 -0.004,-0.007 0,-0.0157 0,-0.0236 -0.008,-0.0157 -0.0111,-0.0348 -0.0236,-0.0472 -0.0124,-0.0125 -0.0348,-0.0112 -0.0472,-0.0236 -0.006,-0.006 0.003,-0.0166 0,-0.0236 -0.0251,-0.0504 -0.022,0.003 -0.0472,-0.0473 -0.003,-0.007 0,-0.0157 0,-0.0236 -0.008,-0.008 -0.0188,-0.0137 -0.0236,-0.0236 -0.003,-0.007 0.006,-0.0181 0,-0.0236 -0.006,-0.006 -0.0159,0 -0.0236,0 -0.008,0 -0.0156,0 -0.0236,0 -0.0472,0 -0.0945,0 -0.14173,0 -0.0236,0 -0.048,-0.006 -0.0709,0 -0.0172,0.004 -0.03,0.0202 -0.0472,0.0236 -0.0233,0.005 -0.0473,0 -0.0709,0 -0.0235,0 -0.0472,0 -0.0709,0 -0.0709,0 -0.14174,0 -0.21262,0 -0.0236,0 -0.0473,0 -0.0709,0 -0.0236,0 -0.0476,-0.004 -0.0709,0 -0.0246,0.004 -0.0463,0.0195 -0.0709,0.0236 -0.0233,0.004 -0.0476,-0.004 -0.0709,0 -0.0246,0.004 -0.0463,0.0195 -0.0709,0.0236 -0.0233,0.004 -0.0473,0 -0.0709,0 -0.063,0 -0.126,0 -0.18899,0 -0.0236,0 -0.0476,-0.004 -0.0709,0 -0.0246,0.004 -0.0465,0.0187 -0.0708,0.0236 -0.0154,0.003 -0.0315,0 -0.0473,0 -0.0235,0 -0.0472,0 -0.0709,0 -0.11022,0 -0.22048,0 -0.33073,0 -0.18899,0 -0.37795,0 -0.56695,0 -0.0551,0 -0.11025,0 -0.16536,0 -0.0106,0 -0.0637,-0.004 -0.0709,0 -0.0101,0.005 -0.0138,0.0187 -0.0236,0.0236 -0.007,0.004 -0.0167,-0.004 -0.0236,0 -0.0695,0.0348 0.0367,0.0236 -0.0709,0.0236 -0.14174,0 -0.28348,0 -0.42524,0 -0.0472,0 -0.0945,0 -0.14174,0 -0.008,0 -0.0159,0 -0.0236,0 -0.008,0 -0.0167,-0.004 -0.0236,0 -0.043,0.0215 -0.0137,0.0179 -0.0235,0.0472 -0.0111,0.0334 -0.0342,0.0618 -0.0473,0.0945 -0.009,0.0231 -0.0109,0.0495 -0.0236,0.0709 -0.0114,0.0191 -0.0358,0.0282 -0.0473,0.0472 -0.0127,0.0214 -0.0143,0.0478 -0.0236,0.0709 -0.007,0.0164 -0.0159,0.0315 -0.0236,0.0472 -0.008,0.0157 -0.013,0.0332 -0.0235,0.0473 -0.0135,0.0178 -0.0339,0.0294 -0.0473,0.0472 -0.0106,0.0141 -0.0156,0.0315 -0.0236,0.0472 -0.008,0.0158 -0.0193,0.0302 -0.0235,0.0473 -0.004,0.0153 0.005,0.0323 0,0.0472 -0.003,0.0105 -0.0201,0.0131 -0.0236,0.0236 -0.005,0.0149 0.004,0.032 0,0.0473 -0.004,0.0171 -0.0159,0.0315 -0.0236,0.0472 -0.008,0.0157 -0.0138,0.0326 -0.0236,0.0472 -0.006,0.009 -0.0175,0.0144 -0.0236,0.0236 -0.0196,0.0293 -0.0277,0.0652 -0.0473,0.0945 -0.006,0.009 -0.0175,0.0144 -0.0236,0.0236 -0.0196,0.0293 -0.0262,0.0663 -0.0472,0.0945 -0.0135,0.0178 -0.0339,0.0294 -0.0472,0.0472 -0.0106,0.0141 -0.0138,0.0326 -0.0236,0.0473 -0.006,0.009 -0.0175,0.0144 -0.0236,0.0236 -0.01,0.0146 -0.0138,0.0326 -0.0236,0.0472 -0.0185,0.0278 -0.0508,0.0442 -0.0709,0.0709 -0.0127,0.017 -0.062,0.11954 -0.0709,0.14174 -0.009,0.0231 -0.0109,0.0495 -0.0236,0.0709 -0.0114,0.0191 -0.0333,0.0299 -0.0472,0.0472 -0.0355,0.0443 -0.059,0.0974 -0.0945,0.14174 -0.014,0.0174 -0.0358,0.0281 -0.0472,0.0472 -0.1048,0.17466 0.0725,-0.0375 -0.0709,0.14174 -0.014,0.0174 -0.0315,0.0315 -0.0473,0.0472 -0.0159,0.0236 -0.0295,0.0487 -0.0472,0.0709 -0.014,0.0174 -0.0358,0.0281 -0.0473,0.0472 -0.0127,0.0214 -0.0108,0.0495 -0.0235,0.0709 -0.0114,0.0191 -0.0358,0.0281 -0.0473,0.0472 -0.0127,0.0214 -0.009,0.051 -0.0236,0.0709 -0.0106,0.0141 -0.0367,0.01 -0.0472,0.0236 -0.0148,0.0199 -0.0124,0.0486 -0.0236,0.0709 -0.0101,0.0199 -0.0349,0.0287 -0.0473,0.0473 -0.01,0.0147 -0.018,0.0305 -0.0235,0.0472 -0.003,0.007 0.006,0.018 0,0.0236 -0.0315,0.0315 -0.0236,-0.0394 -0.0236,0.0236"
         style="opacity:1;fill:none;fill-opacity:1;fill-rule:nonzero;stroke:#000000;stroke-width:0.41652918;stroke-linecap:round;stroke-linejoin:round;stroke-miterlimit:4;stroke-dasharray:none;stroke-dashoffset:0;stroke-opacity:1;paint-order:normal" />
    </g>
  </g>
</svg>
