<?xml version="1.0" encoding="UTF-8" standalone="no"?>
<!-- Created with Inkscape (http://www.inkscape.org/) -->

<svg
   xmlns:dc="http://purl.org/dc/elements/1.1/"
   xmlns:cc="http://creativecommons.org/ns#"
   xmlns:rdf="http://www.w3.org/1999/02/22-rdf-syntax-ns#"
   xmlns:svg="http://www.w3.org/2000/svg"
   xmlns="http://www.w3.org/2000/svg"
   xmlns:sodipodi="http://sodipodi.sourceforge.net/DTD/sodipodi-0.dtd"
   xmlns:inkscape="http://www.inkscape.org/namespaces/inkscape"
   width="45mm"
   height="45mm"
   viewBox="0 0 45 45"
   version="1.1"
   id="svg8"
   inkscape:version="0.92.3 (2405546, 2018-03-11)"
   sodipodi:docname="p2pu-joy-bot.svg">
  <defs
     id="defs2" />
  <sodipodi:namedview
     id="base"
     pagecolor="#ffffff"
     bordercolor="#666666"
     borderopacity="1.0"
     inkscape:pageopacity="0.0"
     inkscape:pageshadow="2"
     inkscape:zoom="2.8"
     inkscape:cx="77.504771"
     inkscape:cy="123.21203"
     inkscape:document-units="mm"
     inkscape:current-layer="layer1"
     showgrid="false"
     inkscape:snap-global="false"
     fit-margin-top="0"
     fit-margin-left="0"
     fit-margin-right="0"
     fit-margin-bottom="0"
     inkscape:window-width="1853"
     inkscape:window-height="1025"
     inkscape:window-x="67"
     inkscape:window-y="27"
     inkscape:window-maximized="1" />
  <metadata
     id="metadata5">
    <rdf:RDF>
      <cc:Work
         rdf:about="">
        <dc:format>image/svg+xml</dc:format>
        <dc:type
           rdf:resource="http://purl.org/dc/dcmitype/StillImage" />
        <dc:title></dc:title>
      </cc:Work>
    </rdf:RDF>
  </metadata>
  <g
     inkscape:label="Layer 1"
     inkscape:groupmode="layer"
     id="layer1"
     transform="translate(-21.592707,-113.6862)">
    <path
       style="fill:#b8e8e2;fill-opacity:1;fill-rule:evenodd;stroke:#449a87;stroke-width:1.79999995;stroke-linecap:butt;stroke-linejoin:miter;stroke-miterlimit:4;stroke-dasharray:none;stroke-opacity:1"
       d="m 42.850668,129.27161 c -9.199334,-1.69275 -20.27824,2.00532 -19.475356,12.68897 -3.103043,11.23998 9.310237,13.51142 17.913281,12.47202 9.152517,1.11576 24.295362,0.71174 24.223878,-11.43647 0.59092,-9.98274 -10.449211,-12.14731 -18.400331,-12.30329 -1.478194,-0.27907 -2.938378,-0.71333 -4.261472,-1.42123 z"
       id="path826"
       inkscape:connector-curvature="0" />
    <path
       style="fill:#449a87;fill-opacity:1;fill-rule:evenodd;stroke:#ffffff;stroke-width:1.79999995;stroke-linecap:butt;stroke-linejoin:miter;stroke-miterlimit:4;stroke-dasharray:none;stroke-opacity:1"
       d="m 34.221997,138.68675 c -2.042235,-2.30227 -3.78262,-1.83098 -4.047111,0.29522 -0.163928,1.31778 1.635864,5.65455 3.27189,7.4713 1.368756,-1.5909 4.484689,-5.73128 5.369365,-6.52219 2.135813,-2.64166 -1.914164,-3.7377 -4.594144,-1.24433 z"
       id="path828"
       inkscape:connector-curvature="0"
       sodipodi:nodetypes="csccc" />
    <path
       style="fill:#449a87;fill-opacity:1;fill-rule:evenodd;stroke:#ffffff;stroke-width:1.79999995;stroke-linecap:butt;stroke-linejoin:miter;stroke-miterlimit:4;stroke-dasharray:none;stroke-opacity:1"
       d="m 51.816327,136.85138 c -2.187895,0.21918 -0.382705,9.43575 1.417817,9.6905 3.394217,0.14875 7.505197,-9.72635 4.698338,-8.94978 -0.794808,-0.10351 -2.10604,0.48157 -3.209598,2.03217 -0.7684,-1.21384 -1.45574,-2.91823 -2.906557,-2.77289 z"
       id="path830"
       inkscape:connector-curvature="0"
       sodipodi:nodetypes="scccs" />
    <path
       style="fill:none;fill-rule:evenodd;stroke:#449a87;stroke-width:1.79999983;stroke-linecap:butt;stroke-linejoin:miter;stroke-miterlimit:4;stroke-dasharray:none;stroke-opacity:1"
       d="m 43.839982,129.73123 c 0.22307,-2.4676 0.22026,-4.3159 0.22026,-6.89338"
       id="path832"
       inkscape:connector-curvature="0"
       sodipodi:nodetypes="cc" />
    <path
       style="fill:none;fill-rule:evenodd;stroke:#449a87;stroke-width:1.79999995;stroke-linecap:round;stroke-linejoin:miter;stroke-miterlimit:4;stroke-dasharray:none;stroke-opacity:1"
       d="m 38.421321,144.95092 c -0.04132,5.16483 6.103323,11.34012 9.91699,-1.03245"
       id="path858"
       inkscape:connector-curvature="0"
       sodipodi:nodetypes="cc" />
    <path
       style="fill:#b8e8e2;fill-opacity:1;fill-rule:evenodd;stroke:#449a87;stroke-width:1;stroke-linecap:butt;stroke-linejoin:miter;stroke-miterlimit:4;stroke-dasharray:none;stroke-opacity:1"
       d="m 43.709261,120.39984 c 1.042322,-1.03645 1.915712,-2.25716 2.446525,-3.63383 0.863387,-0.35268 0.303833,1.4223 0.400456,1.99587 -0.09064,0.91195 0.07263,3.03188 1.463144,2.2051 1.169384,-0.39685 2.447584,-0.31993 3.669848,-0.35008 -0.972707,0.98404 -2.378508,1.32472 -3.448534,2.17591 -0.768916,0.42842 -2.119235,0.69302 -2.022291,1.82331 0.08122,0.89861 0.332767,1.91375 0.01495,2.74996 -0.823191,-0.93873 -1.515944,-2.2517 -1.978705,-3.47602 -0.149921,-0.90005 -1.1316,-1.38509 -1.899677,-0.84254 -1.28776,0.49148 -2.683917,0.22649 -4.024578,0.29218 1.096367,-0.97339 2.450565,-1.61085 3.853223,-1.9982 0.476596,-0.19151 1.436481,-0.57054 1.48349,-0.92449 l -0.158349,0.15052"
       id="path1001"
       inkscape:connector-curvature="0" />
  </g>
</svg>
