<?xml version="1.0" encoding="UTF-8" standalone="no"?>
<svg
   xmlns:dc="http://purl.org/dc/elements/1.1/"
   xmlns:cc="http://creativecommons.org/ns#"
   xmlns:rdf="http://www.w3.org/1999/02/22-rdf-syntax-ns#"
   xmlns:svg="http://www.w3.org/2000/svg"
   xmlns="http://www.w3.org/2000/svg"
   xmlns:sodipodi="http://sodipodi.sourceforge.net/DTD/sodipodi-0.dtd"
   xmlns:inkscape="http://www.inkscape.org/namespaces/inkscape"
   width="128"
   height="128"
   viewBox="0 0 128 128"
   version="1.1"
   id="svg1109"
   sodipodi:docname="support.svg"
   style="fill:none"
   inkscape:version="0.92.5 (2060ec1f9f, 2020-04-08)">
  <metadata
     id="metadata1115">
    <rdf:RDF>
      <cc:Work
         rdf:about="">
        <dc:format>image/svg+xml</dc:format>
        <dc:type
           rdf:resource="http://purl.org/dc/dcmitype/StillImage" />
        <dc:title></dc:title>
      </cc:Work>
    </rdf:RDF>
  </metadata>
  <defs
     id="defs1113" />
  <sodipodi:namedview
     pagecolor="#ffffff"
     bordercolor="#666666"
     borderopacity="1"
     objecttolerance="10"
     gridtolerance="10"
     guidetolerance="10"
     inkscape:pageopacity="0"
     inkscape:pageshadow="2"
     inkscape:window-width="1848"
     inkscape:window-height="1016"
     id="namedview1111"
     showgrid="false"
     inkscape:zoom="2.95"
     inkscape:cx="19.091599"
     inkscape:cy="80.774243"
     inkscape:window-x="72"
     inkscape:window-y="27"
     inkscape:window-maximized="1"
     inkscape:current-layer="svg1109" />
  <g
     id="g4052"
     transform="matrix(1,0,0,1.0015915,10.150066,-0.20371378)"
     style="stroke-width:0.99920517">
    <path
       style="stroke:#000000;stroke-width:0.99920517"
       inkscape:connector-curvature="0"
       id="path1101"
       d="M 5.7255277,95.247326 V 11.081917 L 12.596193,5.9289418 h 81.875054 l 5.153399,9.1608362 V 95.247326 L 56.11022,102.69068 37.788499,119.29465 h -9.16086 v -16.60397 z" />
    <path
       style="fill:#646462;stroke-width:0.99920517"
       inkscape:connector-curvature="0"
       id="path1103"
       d="M 91.613396,0.20339008 H 16.214674 C 7.2966193,0.20339008 0,7.4752728 0,16.363112 V 90.159424 C 0,99.046879 7.2966193,106.3193 16.214674,106.3193 h 7.161562 c -0.405434,2.42335 -1.216144,4.7133 -2.161999,6.86748 -1.756564,4.03997 -0.945854,8.75326 2.297064,11.85073 2.026855,1.885 4.594209,2.96249 7.296628,2.96249 1.621499,0 3.242919,-0.40416 4.729273,-1.07749 9.863981,-4.84748 18.106463,-13.46656 23.781591,-20.60321 h 32.158819 c 8.918608,0 16.214998,-7.272421 16.214998,-16.159876 V 16.363112 C 107.96258,7.4752728 100.66619,0.20339008 91.613396,0.20339008 Z M 97.288364,90.29361 c 0,3.09747 -2.567114,5.656597 -5.674968,5.656597 H 56.886584 c -1.621499,0 -3.242919,0.807515 -4.188773,2.019986 -4.053709,5.385827 -12.296191,14.947407 -21.754737,19.660707 2.297064,-5.11745 3.513208,-10.63827 3.648273,-16.29486 0,-1.480847 -0.540499,-2.827504 -1.486354,-3.770004 -0.945855,-1.077485 -2.297064,-1.615829 -3.783419,-1.615829 h -13.1069 c -3.107774,0 -5.675128,-2.559127 -5.675128,-5.656597 V 16.363112 c 0,-3.097231 2.567354,-5.655879 5.675128,-5.655879 h 75.533707 c 3.107854,0 5.674968,2.558648 5.674968,5.655879 V 90.29361 Z" />
    <path
       style="fill:#fe7605;stroke-width:0.99920517"
       inkscape:connector-curvature="0"
       id="path1105"
       d="m 54.184085,22.692319 c -13.37711,0 -19.592738,9.695848 -20.808802,17.910375 -0.135145,1.077325 0.135065,2.154651 0.810709,2.962645 0.675645,0.807914 1.756565,1.346577 2.837564,1.346577 h 4.729274 c 1.756644,0 3.378063,-1.346577 3.648353,-3.097231 0.81071,-4.578633 3.783419,-7.002535 8.647837,-7.002535 4.729273,0 6.756128,2.423902 7.566837,3.905224 1.081,2.154651 0.945855,4.578633 -0.405355,6.463873 -1.486354,1.88532 -2.702419,2.827979 -4.323918,3.905305 -4.053708,2.827979 -7.431772,5.790544 -8.107337,14.274402 -0.135145,1.077325 0.27021,2.019985 0.945855,2.827979 0.675565,0.807994 1.756564,1.211991 2.702419,1.211991 h 4.594208 c 1.891709,0 3.648274,-1.481322 3.783419,-3.366642 0.27021,-3.097231 0.945854,-3.635893 2.972708,-4.98255 1.89171,-1.346657 4.594129,-3.231976 7.161483,-6.733204 4.053628,-5.521293 4.594128,-12.793159 1.486354,-19.122366 C 69.182695,26.597543 62.291502,22.692319 54.184085,22.692319 Z" />
    <path
       style="fill:#fe7605;stroke-width:0.99920517"
       inkscape:connector-curvature="0"
       id="path1107"
       d="m 54.724585,86.25364 c 4.029826,0 7.296627,-3.255619 7.296627,-7.271548 0,-4.016168 -3.266801,-7.271866 -7.296627,-7.271866 -4.029747,0 -7.296547,3.255698 -7.296547,7.271866 0,4.015929 3.2668,7.271548 7.296547,7.271548 z" />
  </g>
</svg>
