<svg width="160" height="160" viewBox="0 0 160 160" fill="none" xmlns="http://www.w3.org/2000/svg">
<rect width="160" height="160" fill="#FCFBF6"/>
<path d="M149.548 14H10.6779C6.99705 14 4 16.0368 4 18.5387V141.461C4 143.963 6.99685 146 10.6779 146H149.548C153.229 146 156.226 143.963 156.226 141.461V18.5387C156.226 16.037 153.227 14 149.548 14ZM151.308 19.3779V47H106.64V18.2581H149.548C150.468 18.2581 151.308 18.7347 151.308 19.3779ZM56.3986 47V18.2581H101.723V47H56.3986ZM101.699 53V141.46H56.3986V53H101.699ZM10.6779 18.2581H51.4816V47H8.91745L8.91626 19.7101C8.91626 19.0668 9.73144 18.2581 10.6779 18.2581ZM8.91745 139.613V53H51.4816V141.46L11.4516 141.461C11.4516 141.461 8.91745 141.742 8.91745 139.613ZM148.774 141.46L106.64 141.462V53H151.308V139.613C151.306 140.274 150.521 141.46 149.548 141.46H148.774Z" fill="#646462"/>
<path d="M149.548 14H10.6779C6.99705 14 4 16.0368 4 18.5387V141.461C4 143.963 6.99685 146 10.6779 146H149.548C153.229 146 156.226 143.963 156.226 141.461V18.5387C156.226 16.037 153.227 14 149.548 14ZM151.308 19.3779V47H106.64V18.2581H149.548C150.468 18.2581 151.308 18.7347 151.308 19.3779ZM56.3986 47V18.2581H101.723V47H56.3986ZM101.699 53V141.46H56.3986V53H101.699ZM10.6779 18.2581H51.4816V47H8.91745L8.91626 19.7101C8.91626 19.0668 9.73144 18.2581 10.6779 18.2581ZM8.91745 139.613V53H51.4816V141.46L11.4516 141.461C11.4516 141.461 8.91745 141.742 8.91745 139.613ZM148.774 141.46L106.64 141.462V53H151.308V139.613C151.306 140.274 150.521 141.46 149.548 141.46H148.774Z" stroke="#646462"/>
<path d="M118.07 36.1546L123.791 41.808C124.576 42.5714 125.656 43 126.76 43H126.809C127.938 42.9762 129.019 42.5224 129.803 41.7366L140.997 30.168C142.397 28.7126 142.323 26.3763 140.826 24.9922C139.328 23.6083 136.923 23.6797 135.499 25.1589L126.711 34.2468L123.446 31.0265C121.997 29.595 119.593 29.5712 118.119 30.9789C116.648 32.3866 116.623 34.7243 118.07 36.1547L118.07 36.1546Z" fill="#A9D600"/>
<path d="M89.7341 35.0629L87.8028 33.748C87.8028 33.5524 87.8308 33.3847 87.8308 33.2154C87.8308 33.0478 87.8308 32.8801 87.8028 32.6829L89.7341 31.3679C89.9297 31.2282 90.0415 30.9767 89.9856 30.7516C89.8738 30.2766 89.7062 29.7999 89.5385 29.3807C89.4547 29.1572 89.2312 29.0175 88.9781 29.0175L86.6276 29.0734C86.432 28.766 86.2364 28.485 86.0113 28.2335L86.7953 26.0227C86.8791 25.7992 86.7953 25.5477 86.6276 25.3784C86.2644 25.071 85.8715 24.79 85.4524 24.5385C85.2568 24.3988 84.9774 24.4267 84.7801 24.5664L82.9326 25.9931C82.6253 25.8534 82.2883 25.7696 81.9251 25.6578L81.2528 23.4191C81.1969 23.1677 80.9734 23.0279 80.7202 23H79.2935C79.0421 23 78.8465 23.1677 78.761 23.4191L78.0887 25.6578C77.7534 25.7416 77.4164 25.8534 77.0812 25.9931L75.2337 24.5664C75.0381 24.4267 74.7866 24.3988 74.5614 24.5385C74.1423 24.79 73.7494 25.071 73.3861 25.4064C73.1905 25.574 73.1347 25.8255 73.2185 26.0507L74.0025 28.2614C73.779 28.5408 73.5834 28.8219 73.3862 29.1013L71.0357 29.0454C70.7842 29.0454 70.5607 29.1851 70.4752 29.4087C70.3076 29.8278 70.1399 30.3045 70.0282 30.7795C69.9723 31.0031 70.0561 31.2545 70.2517 31.3959L72.183 32.7108C72.183 32.9064 72.1551 33.0741 72.1551 33.2434C72.1551 33.411 72.1551 33.5787 72.183 33.7759L70.2517 35.0908C70.0561 35.2306 69.9443 35.482 70.0282 35.7072C70.1399 36.1822 70.3076 36.6589 70.4752 37.078C70.5591 37.3016 70.7826 37.4413 71.0357 37.4413L73.3862 37.3854C73.5818 37.6928 73.7774 37.9738 74.0025 38.2253L73.2185 40.4361C73.1347 40.6596 73.2185 40.9111 73.3861 41.0804C73.7494 41.3877 74.1422 41.6688 74.5614 41.9482C74.757 42.0879 75.0364 42.06 75.2337 41.9203L77.0812 40.4936C77.3885 40.6333 78.0887 40.8289 78.0887 40.8289L78.733 43.0396C78.8168 43.2911 79.0124 43.4308 79.2656 43.4588H80.6923C80.9437 43.4588 81.1393 43.2911 81.2248 43.0396L81.8691 40.8289C81.8691 40.8289 82.5693 40.6333 82.8767 40.4936L84.7241 41.9203C84.9197 42.06 85.1712 42.0879 85.3964 41.9482C85.8156 41.6967 86.2084 41.4157 86.5717 41.0804C86.7673 40.9127 86.8232 40.6612 86.7393 40.4361L85.9553 38.2253C86.1788 37.9459 86.3744 37.6648 86.5717 37.3854L88.9221 37.4413C89.1736 37.4413 89.3971 37.3016 89.4826 37.078C89.6502 36.6589 89.8179 36.1822 89.9297 35.7072C90.0414 35.4261 89.9296 35.1747 89.7341 35.0629H89.7341ZM80.0216 38.7004C76.9989 38.7004 74.5351 36.2381 74.5351 33.2138C74.5351 30.191 76.9973 27.7272 80.0216 27.7272C83.0444 27.7272 85.5082 30.1894 85.5082 33.2138C85.5066 36.2381 83.0443 38.7004 80.0216 38.7004Z" fill="#0FCBB8"/>
<path d="M80.0225 28.7086C77.5307 28.7086 75.5155 30.7238 75.5155 33.2156C75.5155 35.7074 77.5307 37.7226 80.0225 37.7226C82.5144 37.7226 84.5295 35.7074 84.5295 33.2156C84.5279 30.7238 82.5127 28.7086 80.0225 28.7086Z" fill="#0FCBB8"/>
<path d="M40.73 63.1935H17.9152C15.9915 63.1935 14.4194 64.8099 14.4194 66.7877V79.825C14.4194 81.803 15.9915 83.4193 17.9152 83.4193H40.73C42.6538 83.4193 44.2258 81.8029 44.2258 79.825L44.2242 66.7877C44.2242 64.8098 42.6537 63.1935 40.73 63.1935Z" fill="#FE7605"/>
<path d="M40.73 86.6129H17.9152C15.9915 86.6129 14.4194 88.1442 14.4194 90.018V102.369C14.4194 104.243 15.9915 105.774 17.9152 105.774H40.73C42.6538 105.774 44.2258 104.243 44.2258 102.369V90.018C44.2242 88.1442 42.6537 86.6129 40.73 86.6129Z" fill="#FE7605"/>
<path d="M67.4959 83.2258H90.3106C92.2344 83.2258 93.8064 81.6093 93.8064 79.6312V66.5946C93.8064 64.6165 92.2343 63 90.3106 63H67.4959C65.5721 63 64 64.6165 64 66.5946V79.6329C64.0016 81.611 65.5721 83.2258 67.4959 83.2258V83.2258Z" fill="#0FCBB8"/>
<path d="M67.4959 105.581H90.3106C92.2344 105.581 93.8064 104.049 93.8064 102.176V89.8245C93.8064 87.9507 92.2343 86.4194 90.3106 86.4194H67.4959C65.5721 86.4194 64 87.9507 64 89.8245V102.176C64.0016 104.023 65.5721 105.581 67.4959 105.581Z" fill="#0FCBB8"/>
<path d="M67.4959 129H90.3106C92.2344 129 93.8064 127.469 93.8064 125.595V113.244C93.8064 111.37 92.2343 109.839 90.3106 109.839H67.4959C65.5721 109.839 64 111.37 64 113.244V125.595C64.0016 127.469 65.5721 129 67.4959 129Z" fill="#0FCBB8"/>
<path d="M140.794 63.1935H117.98C116.056 63.1935 114.484 64.8099 114.484 66.7877V79.825C114.484 81.803 116.056 83.4193 117.98 83.4193H140.794C142.718 83.4193 144.29 81.8029 144.29 79.825L144.289 66.7877C144.289 64.8098 142.718 63.1935 140.794 63.1935Z" fill="#A9D600"/>
<path d="M140.794 86.6129H117.98C116.056 86.6129 114.484 88.1442 114.484 90.018V102.369C114.484 104.243 116.056 105.774 117.98 105.774H140.794C142.718 105.774 144.29 104.243 144.29 102.369V90.018C144.289 88.1442 142.718 86.6129 140.794 86.6129Z" fill="#A9D600"/>
<path d="M26.623 37.3839L26.223 37.3839C26.2231 36.3493 25.743 35.6744 24.9829 34.606C24.9179 34.5147 24.851 34.4205 24.7821 34.323C23.9154 33.0968 22.9075 31.4551 22.9076 28.9277M26.623 37.3839L35.6049 34.3228C35.6049 34.3228 35.6049 34.3228 35.6049 34.3228C36.4716 33.0965 37.4796 31.4549 37.4795 28.9273C37.4795 24.8079 33.8829 21.9367 30.1934 21.9368C26.5038 21.9367 22.9076 24.8083 22.9076 28.9277M26.623 37.3839L26.223 37.3839L26.2229 40.4443L26.2229 40.4444M26.623 37.3839L26.2229 40.4444M22.9076 28.9277L23.3076 28.9277L22.9076 28.9277ZM26.2229 40.4444C26.2229 41.5715 27.0757 42.4621 28.1086 42.6085M26.2229 40.4444L28.1086 42.6085M28.1086 42.6085C28.3822 43.4999 29.2141 44.1596 30.1933 44.1599L30.1934 44.1599C31.1729 44.1598 32.0047 43.4998 32.2782 42.6084C33.3113 42.462 34.164 41.5715 34.1639 40.4443C34.1639 40.4443 34.1639 40.4443 34.1639 40.4443L28.1086 42.6085ZM32.6805 34.1916C32.3803 34.567 32.1202 34.9963 31.9709 35.6L28.4162 35.6C28.2669 34.9963 28.0068 34.5669 27.7066 34.1915C27.5708 34.0218 27.4238 33.8596 27.2831 33.7044C27.2483 33.6659 27.2138 33.6279 27.18 33.5904C27.0055 33.3963 26.8374 33.2017 26.6787 32.9771C25.8869 31.8567 25.2378 30.8284 25.2376 28.928C25.2377 26.2264 27.657 24.2671 30.1934 24.267C32.7297 24.267 35.1491 26.2262 35.1492 28.928C35.1491 30.8283 34.5 31.8566 33.7084 32.9771C33.5497 33.2018 33.3815 33.3964 33.207 33.5905C33.1732 33.6281 33.1387 33.6661 33.1038 33.7046C32.9632 33.8598 32.8162 34.022 32.6805 34.1916ZM31.9105 38.9L31.9573 40.3338C31.8876 40.4454 31.8379 40.5325 31.8016 40.6L28.5908 40.6001C28.5805 40.5707 28.5715 40.5398 28.5646 40.5106C28.5552 40.4704 28.5534 40.4483 28.5532 40.4449C28.5531 40.4445 28.5531 40.4444 28.5531 40.4445L28.5533 40.4445L28.5529 40.4315L28.5028 38.9L30.1936 38.9L30.2573 38.9L31.9105 38.9ZM30.1936 38.1L28.6169 38.1L28.6169 36.4L30.2573 36.4L31.8976 36.4L31.8976 38.1L30.2572 38.1L30.1936 38.1Z" fill="#FE7605" stroke="#FE7605" stroke-width="0.8"/>
</svg>
