<?xml version="1.0" encoding="UTF-8" standalone="no"?>
<svg
   xmlns:dc="http://purl.org/dc/elements/1.1/"
   xmlns:cc="http://creativecommons.org/ns#"
   xmlns:rdf="http://www.w3.org/1999/02/22-rdf-syntax-ns#"
   xmlns:svg="http://www.w3.org/2000/svg"
   xmlns="http://www.w3.org/2000/svg"
   xmlns:sodipodi="http://sodipodi.sourceforge.net/DTD/sodipodi-0.dtd"
   xmlns:inkscape="http://www.inkscape.org/namespaces/inkscape"
   width="128"
   height="128"
   viewBox="0 0 128 128"
   version="1.1"
   id="svg1137"
   sodipodi:docname="team-docs.svg"
   style="fill:none"
   inkscape:version="0.92.5 (2060ec1f9f, 2020-04-08)">
  <metadata
     id="metadata1143">
    <rdf:RDF>
      <cc:Work
         rdf:about="">
        <dc:format>image/svg+xml</dc:format>
        <dc:type
           rdf:resource="http://purl.org/dc/dcmitype/StillImage" />
        <dc:title></dc:title>
      </cc:Work>
    </rdf:RDF>
  </metadata>
  <defs
     id="defs1141" />
  <sodipodi:namedview
     pagecolor="#ffffff"
     bordercolor="#666666"
     borderopacity="1"
     objecttolerance="10"
     gridtolerance="10"
     guidetolerance="10"
     inkscape:pageopacity="0"
     inkscape:pageshadow="2"
     inkscape:window-width="1848"
     inkscape:window-height="1016"
     id="namedview1139"
     showgrid="false"
     inkscape:zoom="2.4907045"
     inkscape:cx="48.920249"
     inkscape:cy="49.3718"
     inkscape:window-x="72"
     inkscape:window-y="27"
     inkscape:window-maximized="1"
     inkscape:current-layer="svg1137" />
  <g
     id="g4064"
     transform="matrix(0.99468597,0,0,1,-1.1629842e-7,-10.179485)"
     style="stroke-width:1.00266767">
    <path
       style="fill:#646462;stroke-width:1.00266767"
       inkscape:connector-curvature="0"
       id="path1117"
       d="m 23.801884,71.461014 c 0.54039,-2.488178 1.281769,-4.926331 2.224296,-7.288801 0.06281,-0.150801 0.125708,-0.289056 0.175975,-0.439857 0.163348,-0.402136 -0.31423,0.728913 -0.05027,0.125708 0.125627,-0.289055 0.251335,-0.578111 0.376962,-0.85454 0.263882,-0.565564 0.527844,-1.131048 0.81682,-1.696532 0.565564,-1.118422 1.181315,-2.199203 1.834787,-3.267438 0.653471,-1.055608 1.357209,-2.086042 2.098668,-3.091382 0.08791,-0.125628 0.188441,-0.251335 0.276429,-0.376963 0.138254,-0.188521 0.452403,-0.439857 -0.08799,0.100534 0.188522,-0.201068 0.35187,-0.439856 0.515298,-0.653552 0.414683,-0.50267 0.829366,-1.00534 1.256676,-1.495384 1.646265,-1.85988 3.443171,-3.581586 5.366106,-5.139784 0.100534,-0.07536 0.188522,-0.150801 0.289056,-0.238788 0.07536,-0.06281 0.703738,-0.565485 0.276428,-0.213615 -0.414683,0.339322 0.07536,-0.05027 0.138255,-0.100534 0.150801,-0.113081 0.301602,-0.226242 0.452403,-0.326776 0.552938,-0.402137 1.118422,-0.791646 1.683906,-1.168689 1.193862,-0.791726 2.425444,-1.520557 3.694587,-2.199203 1.420104,-0.766552 1.985588,-2.852594 1.105874,-4.209723 -0.9299,-1.445198 -2.689246,-1.922775 -4.209723,-1.105875 -9.34983,5.014077 -17.040525,13.245404 -21.237863,23.009032 -1.244129,2.903022 -2.262017,5.881323 -2.940662,8.985333 -0.339322,1.570825 0.46495,3.405531 2.148936,3.782655 1.558278,0.364416 3.430786,-0.452404 3.795202,-2.136389 z" />
    <path
       style="fill:#646462;stroke-width:1.00266767"
       inkscape:connector-curvature="0"
       id="path1119"
       d="m 84.536286,116.86566 c -1.232146,0.66594 -2.526221,1.38254 -3.846032,1.86028 0.842074,-0.3016 -0.250933,0.10054 -0.452081,0.17533 -0.339243,0.12627 -0.666019,0.2638 -1.005341,0.37721 -0.678565,0.25173 -1.35713,0.47773 -2.048322,0.69087 -1.382383,0.42787 -2.789941,0.7922 -4.222431,1.08094 -0.716365,0.1512 -1.445197,0.27667 -2.161482,0.38927 -0.150801,0.0257 -0.289056,0.0378 -0.439857,0.0635 -0.728912,0.1126 0.527764,-0.0627 0.05027,0 -0.402136,0.0499 -0.804272,0.10054 -1.218955,0.13753 -2.991009,0.30161 -6.007032,0.30161 -8.9978,0 -0.364416,-0.037 -0.741458,-0.0748 -1.105874,-0.12546 -0.188522,-0.0249 -0.578031,-0.0121 0.163347,0.0249 -0.175894,-0.0121 -0.364416,-0.0499 -0.54031,-0.0748 -0.766633,-0.1134 -1.520638,-0.25173 -2.274644,-0.40213 -1.420023,-0.28954 -2.827581,-0.65388 -4.209723,-1.08095 -0.754006,-0.23886 -1.508011,-0.4898 -2.24947,-0.76647 -0.364416,-0.13833 -0.741459,-0.27667 -1.105875,-0.42707 -0.163348,-0.0627 -0.326776,-0.13833 -0.490124,-0.20106 -0.691191,-0.27667 0.628379,0.27586 -0.05027,-0.0257 -1.495464,-0.66594 -2.953288,-1.39461 -4.373151,-2.19888 -1.394931,-0.80427 -3.430786,-0.37721 -4.209804,1.10587 -0.779099,1.45815 -0.38959,3.35543 1.105875,4.20957 11.121481,6.34651 24.606156,8.03066 36.934528,4.52403 3.417837,-0.96754 6.735461,-2.35009 9.864886,-4.03343 1.420345,-0.76647 1.985749,-2.85275 1.105875,-4.21037 -0.942608,-1.4324 -2.701552,-1.92221 -4.222431,-1.093 z" />
    <path
       style="fill:#646462;stroke-width:1.00266767"
       inkscape:connector-curvature="0"
       id="path1121"
       d="m 83.129613,42.583124 c 2.287351,1.143596 4.4613,2.475551 6.521846,3.983643 0.251737,0.175975 0.477738,0.402136 0.741539,0.552937 -0.04986,-0.02509 -0.577467,-0.46495 -0.188199,-0.138174 0.125466,0.100534 0.238869,0.188441 0.364335,0.288975 0.50267,0.402137 1.005341,0.829447 1.495143,1.256676 0.930543,0.8169 1.822481,1.671439 2.689487,2.563619 0.879874,0.917353 1.721948,1.85988 2.52622,2.839967 0.175332,0.213615 0.351468,0.439857 0.527603,0.653471 0.415005,0.527844 -0.427068,-0.57803 -0.02493,-0.03764 0.0748,0.100534 0.150399,0.201069 0.226,0.301603 0.402137,0.552857 0.804273,1.105874 1.181477,1.671358 1.394606,2.060949 2.625946,4.247444 3.657026,6.509541 0.1504,0.339323 0.27586,0.703739 0.452,1.030434 -0.35147,-0.678564 -0.16327,-0.402136 -0.0877,-0.213614 0.0877,0.201068 0.16327,0.402136 0.25094,0.615751 0.2638,0.678645 0.51554,1.35721 0.75441,2.048401 0.46486,1.382384 0.867,2.789942 1.2064,4.222431 0.36434,1.570825 2.24955,2.651607 3.7825,2.148936 1.63348,-0.527763 2.53828,-2.111215 2.14901,-3.782574 -2.53908,-10.832667 -8.90973,-20.408336 -17.69399,-27.168327 -2.325152,-1.78452 -4.800703,-3.342798 -7.414589,-4.649661 -1.432409,-0.716285 -3.40529,-0.42723 -4.209563,1.105875 -0.741539,1.382383 -0.439937,3.430785 1.093007,4.197418 z" />
    <path
       style="fill:#646462;stroke-width:1.00266767"
       inkscape:connector-curvature="0"
       id="path1123"
       d="m 78.630271,77.720667 c -0.01255,-0.01255 -0.03772,-0.02517 -0.05027,-0.03772 l -0.02509,-0.02509 c -2.701954,-2.701957 -5.3912,-5.403831 -8.093074,-8.093077 -0.402136,-0.402136 -0.829446,-0.804272 -1.231582,-1.206409 -0.01255,-0.01255 -0.02509,-0.02517 -0.03764,-0.03772 -0.339323,-0.276429 -0.716366,-0.46495 -1.143595,-0.552938 -0.175975,-0.03772 -0.35187,-0.06281 -0.540391,-0.06281 -1.797067,-0.02517 -3.6066,-0.01255 -5.403827,-0.01255 h -6.383833 c -0.678565,0 -1.306943,0.01255 -1.985508,0.125628 -2.24947,0.402136 -3.795282,2.525898 -3.845388,4.737648 -0.07536,2.814954 -0.02509,5.642535 -0.02509,8.457489 v 17.819704 c 0,0.754005 0.100534,1.495468 0.402136,2.199118 0.779099,1.83455 2.513432,2.94042 4.511487,2.99109 3.480891,0.0756 6.987037,-0.0129 10.480556,-0.0129 h 6.597609 c 1.231502,0 2.500805,0.1134 3.707214,-0.0877 2.28719,-0.3772 3.883028,-2.48842 3.933375,-4.737728 0.01255,-0.314149 0.02509,-0.615751 0.02509,-0.917354 V 79.480094 c 0,-0.678565 -0.351869,-1.344664 -0.892179,-1.759347 z M 65.070718,95.326676 h -5.403827 c -1.759346,0 -1.759346,-2.638979 0,-2.638979 h 5.403827 c 1.759346,0 1.759346,2.638979 0,2.638979 z m 4.64958,-7.539975 H 59.666891 c -1.759346,0 -1.759346,-2.638979 0,-2.638979 h 10.053407 c 1.633719,0 1.633719,2.638979 0,2.638979 z m 0,-8.294141 c -1.118421,0 -2.010681,-0.917353 -2.010681,-2.035775 v -7.552602 l 8.922358,8.934986 0.640925,0.640925 h -7.552522 z m 9.286855,-1.382303 0.150801,0.226161 z" />
    <path
       style="fill:#ffc532;stroke-width:1.00266767"
       inkscape:connector-curvature="0"
       id="path1125"
       d="m 82.725064,57.025206 c 0.0032,0.132705 -0.02011,0.264686 -0.06917,0.388222 -0.04906,0.123617 -0.123053,0.236215 -0.217153,0.33128 -0.0933,0.09506 -0.205894,0.170586 -0.330556,0.22214 -0.123858,0.05155 -0.257368,0.0781 -0.391681,0.07801 H 46.737325 c -0.134636,8.1e-5 -0.267984,-0.02646 -0.392083,-0.07801 -0.1241,-0.05155 -0.236456,-0.127075 -0.330476,-0.22214 -0.09394,-0.09507 -0.167691,-0.207663 -0.216751,-0.33128 -0.04914,-0.123536 -0.07255,-0.255517 -0.06901,-0.388222 0.254713,-8.972787 3.953804,-16.209631 15.921299,-17.119425 -1.926232,-0.611327 -3.567592,-1.880228 -4.628347,-3.578289 -1.060755,-1.69806 -1.471014,-3.713567 -1.157026,-5.683311 0.313988,-1.969744 1.331634,-3.764221 2.869644,-5.06013 1.538011,-1.295908 3.495127,-2.008019 5.518838,-2.008019 2.023711,0 3.980908,0.712111 5.518918,2.008019 1.53793,1.295909 2.555657,3.090386 2.869645,5.06013 0.313988,1.969744 -0.09635,3.985251 -1.157027,5.683311 -1.060755,1.698061 -2.702114,2.966962 -4.628347,3.578289 11.914413,0.899338 15.613504,8.146638 15.868459,17.119425 z" />
    <path
       style="fill:#646462;stroke-width:1.00266767"
       inkscape:connector-curvature="0"
       id="path1127"
       d="m 46.173127,61.261953 h 36.331566 c 0.398115,-6.44e-4 0.791404,-0.07986 1.158153,-0.233079 0.365944,-0.153294 0.697304,-0.377364 0.974778,-0.659181 0.277474,-0.281898 0.495432,-0.615671 0.640201,-0.981937 0.144769,-0.366185 0.213936,-0.757303 0.203481,-1.150431 -0.302407,-10.681383 -5.05992,-17.079291 -14.166377,-19.101072 1.682297,-1.411498 2.885811,-3.299447 3.447917,-5.408813 0.562186,-2.109446 0.455781,-4.338568 -0.304659,-6.386254 -0.760439,-2.04771 -2.138319,-3.815316 -3.94745,-5.063998 -1.809211,-1.248673 -3.96249,-1.918244 -6.168931,-1.918244 -2.206442,0 -4.35964,0.669571 -6.168851,1.918244 -1.809212,1.248682 -3.187091,3.016288 -3.947531,5.063998 -0.76044,2.047686 -0.866765,4.276808 -0.304659,6.386254 0.562187,2.109366 1.7657,3.997315 3.447917,5.408813 -9.111845,2.021781 -13.869037,8.419689 -14.166698,19.101072 -0.01054,0.392404 0.05807,0.782959 0.201953,1.148823 0.143884,0.365863 0.360072,0.699717 0.635938,0.982017 0.276107,0.283666 0.607467,0.509104 0.974135,0.66272 0.366668,0.153536 0.760922,0.232194 1.159117,0.231068 z M 64.363923,24.204081 c 1.368229,0 2.705734,0.401123 3.843377,1.152635 1.137644,0.75152 2.024354,1.819683 2.547936,3.069442 0.523662,1.249678 0.660629,2.624824 0.393691,3.951552 -0.266938,1.326728 -0.925798,2.545362 -1.893257,3.501883 -0.96754,0.956521 -2.200168,1.607902 -3.542178,1.871783 -1.341928,0.263882 -2.732918,0.128443 -3.996993,-0.389187 -1.264156,-0.51763 -2.344535,-1.394287 -3.104733,-2.518982 -0.760118,-1.124775 -1.165874,-2.447079 -1.165874,-3.799785 -0.0036,-0.898855 0.171873,-1.789668 0.516424,-2.621446 0.34463,-0.831844 0.851563,-1.588415 1.491925,-2.226549 0.640362,-0.638126 1.401526,-1.145316 2.240141,-1.492601 0.838615,-0.347285 1.738274,-0.527876 2.647424,-0.531447 z m 0,18.065699 c 11.162499,0 16.664126,4.833839 17.242398,15.193754 H 47.093698 c 0.578835,-10.376242 6.08014,-15.210081 17.248108,-15.210081 z" />
    <path
       style="fill:#ffc532;stroke-width:1.00266767"
       inkscape:connector-curvature="0"
       id="path1129"
       d="m 39.523884,111.25586 c 0.0035,0.1327 -0.01987,0.2646 -0.06901,0.38846 -0.04906,0.12386 -0.122813,0.23646 -0.216752,0.33136 -0.09402,0.0949 -0.206376,0.17051 -0.330475,0.22198 -0.1241,0.0515 -0.257448,0.078 -0.392083,0.078 H 3.5364106 c -0.1346835,0 -0.2680077,-0.0265 -0.392115,-0.078 -0.1240993,-0.0515 -0.2364481,-0.12707 -0.3304435,-0.22198 -0.093987,-0.0949 -0.1677069,-0.2075 -0.2167916,-0.33136 -0.049085,-0.12386 -0.072545,-0.25576 -0.068999,-0.38846 0.2547373,-8.97247 3.9537959,-16.209312 15.9213075,-17.119186 -1.926232,-0.611247 -3.567592,-1.880228 -4.628347,-3.578208 -1.060675,-1.698061 -1.471015,-3.713568 -1.157027,-5.683312 0.313988,-1.969744 1.331635,-3.764237 2.869645,-5.060161 1.53801,-1.295844 3.495127,-2.008028 5.518838,-2.008028 2.023711,0 3.980908,0.712184 5.518918,2.008028 1.538011,1.295924 2.555657,3.090417 2.869645,5.060161 0.313988,1.969744 -0.09635,3.985251 -1.157027,5.683312 -1.060755,1.69798 -2.702114,2.966961 -4.628347,3.578208 11.914413,0.899418 15.613504,8.146716 15.868217,17.119186 z" />
    <path
       style="fill:#646462;stroke-width:1.00266767"
       inkscape:connector-curvature="0"
       id="path1131"
       d="M 2.9722134,115.49277 H 39.304077 c 0.397712,-8.1e-4 0.791323,-0.0796 1.15767,-0.23324 0.366265,-0.15282 0.697867,-0.37721 0.975261,-0.6587 0.277313,-0.2823 0.494868,-0.61608 0.639798,-0.98202 0.14493,-0.36594 0.214259,-0.75762 0.203964,-1.15011 -0.303211,-10.68154 -5.060322,-17.079693 -14.166698,-19.101554 1.682216,-1.411418 2.88573,-3.299367 3.447836,-5.408813 0.562186,-2.109366 0.455861,-4.338488 -0.304578,-6.386166 -0.76044,-2.047758 -2.13832,-3.815308 -3.947531,-5.064021 -1.809211,-1.248634 -3.96249,-1.918271 -6.168932,-1.918271 -2.206441,0 -4.359639,0.669637 -6.168851,1.918271 -1.80913,1.248713 -3.18709,3.016263 -3.94753,5.064021 -0.76044,2.047678 -0.866765,4.2768 -0.304578,6.386166 0.562106,2.109446 1.765619,3.997395 3.447916,5.408813 -9.1119495,2.021861 -13.86909947,8.420014 -14.16676649,19.101554 -0.01056256,0.39168 0.05808861,0.78256 0.20195215,1.1485 0.14386425,0.36595 0.36004789,0.69972 0.63591902,0.98202 0.27613092,0.28391 0.60751532,0.5091 0.97415102,0.66272 0.3666357,0.15362 0.7609384,0.23243 1.1591337,0.23083 z M 21.162985,78.435022 c 1.368228,0 2.705734,0.401171 3.843377,1.152683 1.137644,0.751513 2.024354,1.819667 2.548016,3.069426 0.523582,1.249679 0.660549,2.624824 0.393611,3.951552 -0.266857,1.326728 -0.925798,2.545362 -1.893257,3.501883 -0.96754,0.956522 -2.200168,1.607902 -3.542178,1.871784 -1.341928,0.263882 -2.732918,0.128442 -3.996993,-0.389188 -1.264075,-0.51771 -2.344535,-1.394287 -3.104733,-2.519062 -0.760118,-1.124694 -1.165874,-2.446999 -1.165874,-3.799705 -0.0036,-0.898855 0.171873,-1.789667 0.516423,-2.621446 0.344631,-0.831859 0.851564,-1.588438 1.491926,-2.226548 0.640362,-0.63811 1.401606,-1.145365 2.240221,-1.49265 0.838615,-0.347285 1.738194,-0.527844 2.647343,-0.531383 z m 0,18.065731 c 11.162499,0 16.663804,4.833597 17.242558,15.193437 H 3.8927758 C 4.4715705,101.31827 9.9728994,96.484426 21.140867,96.484426 Z" />
    <path
       style="fill:#ffc532;stroke-width:1.00266767"
       inkscape:connector-curvature="0"
       id="path1133"
       d="m 125.92576,111.94592 c 0.003,0.13271 -0.0201,0.26461 -0.0692,0.38766 -0.0491,0.12386 -0.12225,0.23646 -0.21635,0.33136 -0.0941,0.0949 -0.20669,0.17051 -0.33055,0.22198 -0.12466,0.0515 -0.25737,0.078 -0.39249,0.078 H 89.938584 c -0.135117,0 -0.268627,-0.0265 -0.392485,-0.078 -0.123858,-0.0515 -0.236456,-0.12707 -0.330556,-0.22198 -0.0941,-0.0949 -0.167288,-0.2075 -0.216349,-0.33136 -0.04906,-0.12305 -0.07319,-0.25495 -0.06917,-0.38766 0.254954,-8.97327 3.953804,-16.20995 15.921386,-17.119823 -1.92624,-0.611247 -3.56776,-1.880229 -4.62859,-3.578289 -1.060841,-1.698061 -1.47102,-3.713488 -1.157353,-5.683232 0.31447,-1.969743 1.331873,-3.764236 2.869643,-5.060161 1.53858,-1.295924 3.49537,-2.008027 5.51892,-2.008027 2.02436,0 3.98115,0.712103 5.51892,2.008027 1.53857,1.295925 2.55598,3.090418 2.86965,5.060161 0.31447,1.969744 -0.0957,3.985171 -1.15655,5.683232 -1.06083,1.69806 -2.70235,2.967042 -4.62859,3.578289 11.9145,0.899418 15.61335,8.146553 15.8683,17.119823 z" />
    <path
       style="fill:#646462;stroke-width:1.00266767"
       inkscape:connector-curvature="0"
       id="path1135"
       d="m 89.373985,115.49277 h 36.332205 c 0.39731,-8.1e-4 0.79141,-0.0796 1.15735,-0.23324 0.36595,-0.15282 0.69811,-0.37721 0.97559,-0.6587 0.27747,-0.2823 0.49462,-0.61608 0.63939,-0.98202 0.14477,-0.36594 0.21474,-0.75762 0.20429,-1.15011 -0.30321,-10.68154 -5.06049,-17.079693 -14.16726,-19.101554 1.68253,-1.411418 2.88573,-3.299367 3.44791,-5.408813 0.56219,-2.109366 0.45602,-4.338488 -0.30401,-6.386166 -0.76084,-2.047758 -2.13856,-3.815308 -3.94818,-5.064021 -1.80881,-1.248634 -3.96184,-1.918271 -6.16877,-1.918271 -2.20612,0 -4.35915,0.669637 -6.16877,1.918271 -1.808807,1.248713 -3.186526,3.016263 -3.947368,5.064021 -0.760038,2.047678 -0.867006,4.2768 -0.304819,6.386166 0.562186,2.109446 1.766182,3.997395 3.447917,5.408813 -9.111605,2.021861 -13.868877,8.420014 -14.166458,19.101554 -0.01046,0.39168 0.05791,0.78256 0.201873,1.1485 0.143964,0.36595 0.360314,0.69972 0.636179,0.98202 0.275866,0.28391 0.607226,0.5091 0.973974,0.66272 0.366749,0.15362 0.760842,0.23243 1.158957,0.23083 z M 107.56502,78.435022 c 1.36807,0 2.70557,0.401171 3.84362,1.152683 1.13724,0.751513 2.02435,1.819667 2.54794,3.069426 0.52358,1.249679 0.6603,2.624824 0.39329,3.951552 -0.26702,1.326728 -0.92572,2.545362 -1.89326,3.501883 -0.96754,0.956522 -2.20049,1.607902 -3.54202,1.871784 -1.34233,0.263882 -2.73292,0.128442 -3.99723,-0.389188 -1.26432,-0.51771 -2.34446,-1.394287 -3.1045,-2.519062 -0.76003,-1.124694 -1.16619,-2.446999 -1.16619,-3.799705 -0.003,-0.898855 0.17211,-1.789667 0.51634,-2.621446 0.34504,-0.831859 0.85173,-1.588438 1.49193,-2.226548 0.6402,-0.63811 1.40185,-1.145365 2.2407,-1.49265 0.83805,-0.347285 1.73803,-0.527844 2.64686,-0.531383 z m 0,18.065731 c 11.1625,0 16.66373,4.833597 17.2428,15.193437 H 90.294877 C 90.873149,101.31827 96.374374,96.484426 107.5425,96.484426 Z" />
  </g>
</svg>
