<?xml version="1.0" encoding="UTF-8" standalone="no"?>
<!-- Created with Inkscape (http://www.inkscape.org/) -->

<svg
   xmlns:dc="http://purl.org/dc/elements/1.1/"
   xmlns:cc="http://creativecommons.org/ns#"
   xmlns:rdf="http://www.w3.org/1999/02/22-rdf-syntax-ns#"
   xmlns:svg="http://www.w3.org/2000/svg"
   xmlns="http://www.w3.org/2000/svg"
   xmlns:sodipodi="http://sodipodi.sourceforge.net/DTD/sodipodi-0.dtd"
   xmlns:inkscape="http://www.inkscape.org/namespaces/inkscape"
   width="128"
   height="128"
   viewBox="0 0 33.866667 33.866668"
   version="1.1"
   id="svg1295"
   inkscape:version="0.92.5 (2060ec1f9f, 2020-04-08)"
   sodipodi:docname="team-docs.svg">
  <defs
     id="defs1289" />
  <sodipodi:namedview
     id="base"
     pagecolor="#ffffff"
     bordercolor="#666666"
     borderopacity="1.0"
     inkscape:pageopacity="0.0"
     inkscape:pageshadow="2"
     inkscape:zoom="5.6"
     inkscape:cx="59.035356"
     inkscape:cy="37.997719"
     inkscape:document-units="mm"
     inkscape:current-layer="g1083"
     showgrid="false"
     fit-margin-top="0"
     fit-margin-left="0"
     fit-margin-right="0"
     fit-margin-bottom="0"
     units="px"
     inkscape:window-width="1848"
     inkscape:window-height="1016"
     inkscape:window-x="72"
     inkscape:window-y="27"
     inkscape:window-maximized="1" />
  <metadata
     id="metadata1292">
    <rdf:RDF>
      <cc:Work
         rdf:about="">
        <dc:format>image/svg+xml</dc:format>
        <dc:type
           rdf:resource="http://purl.org/dc/dcmitype/StillImage" />
        <dc:title />
      </cc:Work>
    </rdf:RDF>
  </metadata>
  <g
     inkscape:label="Layer 1"
     inkscape:groupmode="layer"
     id="layer1"
     transform="translate(-175.61973,-93.156944)">
    <g
       id="g1083"
       transform="matrix(1.1422302,0,0,1.1435186,-131.71438,-77.509559)"
       style="stroke-width:0.87498695">
      <path
         inkscape:connector-curvature="0"
         id="path1040"
         d="m 269.34086,165.63703 c -0.01,0.80714 0.0368,1.63729 -0.0668,2.40539 0.69677,0.14224 1.42836,0.50957 2.14474,0.66798 0.4859,0.29436 1.49099,0.3553 2.06459,0.93542 0.52001,0.29364 1.15578,0.44467 1.67038,0.93541 0.76252,0.55224 1.6533,0.95145 2.59141,1.21467 0.8616,0.42918 1.4468,0.58164 2.28622,0.92334 0.81661,0.23249 1.62267,0.49128 2.47219,0.6012 0.74973,-0.1108 1.28842,0.49189 2.04361,0.4008 0.53142,-0.0723 1.10653,-0.24578 1.63112,-0.4676 0.62013,-0.33771 1.43718,-0.77995 2.20493,-0.93538 0.74415,-0.26313 1.68112,-0.47828 2.27139,-0.86168 0.65845,-0.31039 1.49423,-0.32057 2.00474,-0.80845 0.56891,-0.30705 1.12359,-0.86197 1.8725,-1.0041 0.90279,-0.23974 1.20755,-0.45721 2.11983,-0.64149 0.35132,-0.27702 1.14293,-0.13613 1.08568,-0.74293 -0.005,-0.41719 0.10989,-0.78584 0.0668,-1.21925 0.21871,-0.24665 0.0701,-0.61605 0.334,-0.80169"
         style="opacity:1;fill:#ffffff;fill-opacity:1;fill-rule:nonzero;stroke:#000000;stroke-width:0.46301389;stroke-linecap:round;stroke-linejoin:round;stroke-miterlimit:4;stroke-dasharray:none;stroke-dashoffset:0;stroke-opacity:1;paint-order:normal" />
      <path
         sodipodi:nodetypes="cccccccccccccccccccccccccccccccccccccc"
         inkscape:connector-curvature="0"
         id="path984"
         d="m 271.73405,155.82816 c -0.28906,0.85919 -0.77615,1.58867 -0.74389,2.5347 -0.31475,0.42165 0.0765,1.07713 -0.4009,1.33635 10e-4,0.84103 -0.57016,1.54541 -0.40091,2.42574 0.12691,0.76716 -0.41887,1.28354 -0.46772,1.98421 -0.26288,0.84797 -0.55251,1.27289 0.33409,1.73725 0.74629,0.4259 1.62071,0.66842 2.53906,0.80181 0.56032,0.001 1.14235,-0.0764 1.56269,0.28227 0.83832,0.0375 1.6413,0.33865 2.37825,0.72309 0.99869,0.27933 1.90999,0.82547 2.87443,1.40006 0.56666,0.4931 1.3089,0.37698 2.00452,1.06908 0.65525,0.71289 1.50558,0.66819 1.87089,1.20271 0.84416,0.3888 1.35119,0.58334 2.00452,-0.26727 0.50759,-0.22982 0.83816,-0.5044 1.2664,-0.67252 0.58664,-0.36488 1.11772,-0.55516 1.87404,-0.73063 0.77847,-0.20738 1.60343,-0.52321 2.20495,-0.86864 0.8341,-0.12511 1.49033,-0.50182 2.26923,-0.67434 0.66437,-0.36263 1.44312,-0.43792 2.14072,-0.79564 0.83665,-0.1527 1.59052,-0.52308 2.27179,-1.06908 0.34625,-0.12492 1.08262,-0.12468 1.18923,-0.55971 -0.46847,-0.27093 -0.73953,-0.89465 -0.65469,-1.52941 -5e-4,-1.39721 7.1e-4,-2.79477 0,-4.19171 -0.39734,-0.53226 -0.4286,-1.4108 -0.73499,-2.00452 -0.15827,-0.26864 -0.0216,-0.82909 -0.0668,-1.21288 -0.005,-0.62024 0.008,-1.24136 0,-1.86072 -0.49845,-0.87086 -1.3637,-0.46262 -2.00452,0 -0.8835,0.46065 -1.71929,0.85028 -2.6727,1.33634 -0.62578,0.4914 -1.3731,0.72462 -2.13815,1.06909 -1.06084,0.46072 -1.96935,1.17566 -3.07206,1.54161 -0.89765,0.23855 -2.01176,0.23212 -2.67424,0.59654 -0.39127,-0.0298 -0.95982,0.11605 -1.06907,-0.20045 -0.43304,-0.20777 -0.4586,-0.76173 -0.93545,-0.73499 -0.25813,-0.258 -1.41668,-0.45518 -1.33635,-0.66818 -0.80288,-0.70083 -1.84269,-0.39472 -2.67269,-0.93544 -0.84265,0.002 -1.35879,-0.58917 -1.92807,-0.80211 -0.95957,-0.24182 -1.92203,-0.52987 -2.95146,-0.52187 -0.7404,-0.25426 -1.32079,-0.0973 -1.86335,-0.18415 0.0984,0.23433 0.041,0.33011 0.003,0.44341 z"
         style="opacity:1;fill:#ffffff;fill-opacity:1;fill-rule:nonzero;stroke:#000000;stroke-width:0.46301389;stroke-linecap:round;stroke-linejoin:round;stroke-miterlimit:4;stroke-dasharray:none;stroke-dashoffset:0;stroke-opacity:1;paint-order:normal" />
      <path
         inkscape:connector-curvature="0"
         id="path986"
         d="m 284.22,171.45907 c -0.49368,-0.70719 -0.18995,-1.60025 -0.26726,-2.40543 0.1708,-0.753 0.34019,-1.50869 0.26726,-2.36147 0,-2.42008 0,-4.84015 0,-7.26023"
         style="opacity:1;fill:none;fill-opacity:1;fill-rule:nonzero;stroke:#000000;stroke-width:0.46301389;stroke-linecap:round;stroke-linejoin:round;stroke-miterlimit:4;stroke-dasharray:none;stroke-dashoffset:0;stroke-opacity:1;paint-order:normal" />
      <path
         inkscape:connector-curvature="0"
         id="path988"
         d="m 286.22452,161.43646 c 1.03894,0.43255 1.9571,-0.0583 2.87576,-0.39212 0.82589,-0.41738 1.54208,-1.12394 2.336,-1.2115 0.34782,-0.0709 0.20203,-0.51559 0.66818,-0.4009"
         style="opacity:1;fill:none;fill-opacity:1;fill-rule:nonzero;stroke:#000000;stroke-width:0.46301389;stroke-linecap:round;stroke-linejoin:round;stroke-miterlimit:4;stroke-dasharray:none;stroke-dashoffset:0;stroke-opacity:1;paint-order:normal" />
      <path
         inkscape:connector-curvature="0"
         id="path990"
         d="m 287.42724,162.77281 c 1.06294,0.0711 2.31945,-0.39086 3.0736,-1.00227 0.50273,-0.22594 1.1909,-0.49633 1.60362,-0.86862"
         style="opacity:1;fill:none;fill-opacity:1;fill-rule:nonzero;stroke:#000000;stroke-width:0.46301389;stroke-linecap:round;stroke-linejoin:round;stroke-miterlimit:4;stroke-dasharray:none;stroke-dashoffset:0;stroke-opacity:1;paint-order:normal" />
      <path
         inkscape:connector-curvature="0"
         id="path992"
         d="m 285.28908,164.51006 c 0.71168,-0.0278 1.44923,0.0629 2.1397,-0.062 0.91817,-0.36433 1.81419,-0.78788 2.40388,-0.87344 0.67459,-0.36671 1.49518,-0.51936 2.25822,-0.62119 0.42906,-0.30678 1.04836,-0.55097 1.61719,-0.58153"
         style="opacity:1;fill:none;fill-opacity:1;fill-rule:nonzero;stroke:#000000;stroke-width:0.46301389;stroke-linecap:round;stroke-linejoin:round;stroke-miterlimit:4;stroke-dasharray:none;stroke-dashoffset:0;stroke-opacity:1;paint-order:normal" />
      <path
         inkscape:connector-curvature="0"
         id="path994"
         d="m 288.36268,165.98004 c 1.10095,0.3732 2.19295,-0.29347 3.27409,-0.4688 1.09573,-0.13536 1.92998,-0.78931 3.00675,-0.73391 0.2924,0.11131 0.027,-0.2588 0.26726,-0.13364"
         style="opacity:1;fill:none;fill-opacity:1;fill-rule:nonzero;stroke:#000000;stroke-width:0.46301389;stroke-linecap:round;stroke-linejoin:round;stroke-miterlimit:4;stroke-dasharray:none;stroke-dashoffset:0;stroke-opacity:1;paint-order:normal" />
      <path
         inkscape:connector-curvature="0"
         id="path996"
         d="m 273.39559,157.42742 c 1.13138,0.2511 2.31461,0.0857 3.47119,0.13363 0.53565,0 1.07129,0 1.60693,0 0.76406,0.27743 1.14155,0.76043 1.73725,1.20271 0.26578,0.42703 0.94895,0.71542 1.06908,1.33635"
         style="opacity:1;fill:none;fill-opacity:1;fill-rule:nonzero;stroke:#000000;stroke-width:0.46301389;stroke-linecap:round;stroke-linejoin:round;stroke-miterlimit:4;stroke-dasharray:none;stroke-dashoffset:0;stroke-opacity:1;paint-order:normal" />
      <path
         inkscape:connector-curvature="0"
         id="path998"
         d="m 275.40011,158.8974 c 0.85952,0.85623 2.18346,0.72032 3.13767,1.40878 0.74381,0.0456 1.62489,0.38304 2.06238,0.55423 0.6359,0.32716 1.17798,0.8358 1.96719,0.70968 0.14998,0 0.29996,0 0.44994,0"
         style="opacity:1;fill:none;fill-opacity:1;fill-rule:nonzero;stroke:#000000;stroke-width:0.46301389;stroke-linecap:round;stroke-linejoin:round;stroke-miterlimit:4;stroke-dasharray:none;stroke-dashoffset:0;stroke-opacity:1;paint-order:normal" />
      <path
         inkscape:connector-curvature="0"
         id="path1000"
         d="m 273.66286,161.30283 c 1.30601,0.14702 2.55462,0.63219 3.81113,0.93544 0.55596,3.4e-4 1.11194,-4.9e-4 1.66789,0 0.45593,0.17897 0.80683,0.83539 1.46999,0.80181 0.31362,0.25671 0.55443,0.42943 1.06907,0.4009"
         style="opacity:1;fill:none;fill-opacity:1;fill-rule:nonzero;stroke:#000000;stroke-width:0.46301389;stroke-linecap:round;stroke-linejoin:round;stroke-miterlimit:4;stroke-dasharray:none;stroke-dashoffset:0;stroke-opacity:1;paint-order:normal" />
      <path
         inkscape:connector-curvature="0"
         id="path1002"
         d="m 273.93013,163.44098 c 0.7264,0.79861 1.90018,0.64787 2.80482,1.20684 0.90664,0.47309 1.99151,0.72178 2.80784,1.19859 0.67238,0.0238 1.15357,0.39345 1.87088,0.26727"
         style="opacity:1;fill:none;fill-opacity:1;fill-rule:nonzero;stroke:#000000;stroke-width:0.46301389;stroke-linecap:round;stroke-linejoin:round;stroke-miterlimit:4;stroke-dasharray:none;stroke-dashoffset:0;stroke-opacity:1;paint-order:normal" />
      <path
         inkscape:connector-curvature="0"
         id="path1042"
         d="m 284.37477,171.65059 c -0.30032,0.23994 0.0359,1.18011 -0.27415,1.09434 -0.11367,0.16279 -0.037,0.38837 -0.0599,0.57598"
         style="opacity:1;fill:none;fill-opacity:1;fill-rule:nonzero;stroke:#000000;stroke-width:0.46301389;stroke-linecap:round;stroke-linejoin:round;stroke-miterlimit:4;stroke-dasharray:none;stroke-dashoffset:0;stroke-opacity:1;paint-order:normal" />
      <path
         inkscape:connector-curvature="0"
         id="path1044"
         d="m 269.5413,166.17156 c 0.57889,0.55389 0.99352,0.5498 1.7372,0.7349 0.78794,0.32163 1.40812,0.45631 2.20492,0.80174 0.53485,0.2827 1.24772,0.0489 1.73717,0.334 0.62849,0.10757 1.27863,0.27733 1.73715,0.5344 0.42417,0.15184 0.8174,0.50163 1.20253,0.73483 0.63804,0.20059 1.22528,0.48466 1.87067,0.6012 0.64613,0.39195 1.42834,0.34271 1.93758,0.86847 0.53344,0.29071 0.83682,0.61847 1.4061,0.86415 0.19922,0.24332 0.54992,0.22624 0.79861,0.60558 -0.0592,-0.007 -0.74931,0.18252 -1.06904,0 -0.66309,-0.30923 -1.24066,-0.47954 -1.67029,-0.73489 -0.48597,-0.23177 -1.26039,-0.6858 -1.93758,-0.86853 -0.76075,-0.16997 -1.5082,-0.44883 -2.27172,-0.5344 -0.69753,-0.28878 -1.35483,-0.38161 -1.97147,-0.60145 -0.57268,-0.0792 -1.04911,-0.26615 -1.56973,-0.60107 -0.68828,-0.17369 -1.00519,-0.64943 -1.67049,-0.93851 -0.53549,-0.40351 -0.89768,-0.55526 -1.46967,-0.73166 -0.29015,-0.0246 -1.51606,-0.56706 -1.06893,0.0669 0.14017,0.52966 0.90478,0.88066 1.46987,1.00218 0.82925,0.11481 1.36007,0.33214 2.07119,0.53443 0.51709,0.15383 0.89274,0.38247 1.33619,0.66804 0.63711,0.0956 1.07183,0.68034 1.67017,0.86855 0.3636,0.28569 0.92445,0.50471 1.40296,0.66803 0.59363,0.26297 1.32876,0.36781 1.9376,0.60124 0.48115,0.18881 1.04679,0.28793 1.5967,0.4676 0.51031,0.17564 1.09524,0.17736 1.54352,0.334 0.33827,0.17371 0.92601,0.12024 1.33622,0.2672 0.081,0.12892 0.40411,0.0213 0.40088,0.2004"
         style="opacity:1;fill:none;fill-opacity:1;fill-rule:nonzero;stroke:#000000;stroke-width:0.46301389;stroke-linecap:round;stroke-linejoin:round;stroke-miterlimit:4;stroke-dasharray:none;stroke-dashoffset:0;stroke-opacity:1;paint-order:normal" />
      <path
         inkscape:connector-curvature="0"
         id="path1046"
         d="m 284.17432,172.11831 c 0.76367,0.15699 1.34184,-0.4372 1.93767,-0.66813 0.39326,-0.31741 0.87502,-0.56548 1.40291,-0.668 0.66562,-0.15026 1.45933,-0.29166 2.10463,-0.5344 0.6592,-0.21798 1.08293,-0.52273 1.57019,-0.66814 0.52228,-0.14959 1.0507,-0.41276 1.67039,-0.53443 0.59263,-0.24354 1.19879,-0.41098 1.80387,-0.66804 0.34813,-0.20355 0.84511,-0.53534 1.00217,-0.73495 0.37732,-0.14948 0.79928,-0.4487 1.07205,-0.59691 0.2149,-0.0651 0.92152,-0.55369 1.06587,-0.27155 -0.0576,0.34101 -0.44085,0.41849 -0.83886,0.53346 -0.64423,0.18052 -1.34176,0.20524 -1.76674,0.73578 -0.3231,0.23438 -0.42317,0.49939 -0.93531,0.73487 -0.44627,0.19175 -0.92227,0.40027 -1.40291,0.5344 -0.54304,0.243 -1.29359,0.33697 -1.73716,0.66808 -0.33395,0.25648 -1.00322,0.36528 -1.33623,0.66808 -0.62988,0.19352 -1.31158,0.26381 -1.93759,0.46763 -0.60097,0.12493 -1.2235,0.24943 -1.67035,0.53443 -0.51516,0.26525 -1.17036,0.3909 -1.67039,0.73492 -0.58283,0.15323 -0.79525,0.82624 -0.0203,0.66803 0.58681,0.0615 1.05275,-0.25502 1.55703,-0.4008 0.31601,-0.16346 0.68163,-0.31168 0.93529,-0.5344 0.50394,-0.27413 1.03551,-0.48152 1.60341,-0.60123 0.59839,-0.20533 0.95782,-0.30237 1.53668,-0.5344 0.23767,-0.13606 0.71139,-0.0361 1.05439,-0.0668 0.55907,0.0275 1.3458,-0.31703 1.58846,-0.54145 0.35733,-0.44926 0.86769,-0.9295 1.4377,-1.18132 0.28813,-0.17295 1.13641,-0.20293 1.19752,-0.48195 0.67294,-0.0533 1.01046,-0.3539 1.53659,-0.6012 0.25722,0.0134 0.40555,-0.18771 0.60128,-0.2004"
         style="opacity:1;fill:none;fill-opacity:1;fill-rule:nonzero;stroke:#000000;stroke-width:0.46301389;stroke-linecap:round;stroke-linejoin:round;stroke-miterlimit:4;stroke-dasharray:none;stroke-dashoffset:0;stroke-opacity:1;paint-order:normal" />
    </g>
  </g>
</svg>
