<?xml version="1.0" encoding="UTF-8" standalone="no"?>
<svg
   xmlns:dc="http://purl.org/dc/elements/1.1/"
   xmlns:cc="http://creativecommons.org/ns#"
   xmlns:rdf="http://www.w3.org/1999/02/22-rdf-syntax-ns#"
   xmlns:svg="http://www.w3.org/2000/svg"
   xmlns="http://www.w3.org/2000/svg"
   xmlns:sodipodi="http://sodipodi.sourceforge.net/DTD/sodipodi-0.dtd"
   xmlns:inkscape="http://www.inkscape.org/namespaces/inkscape"
   width="128"
   height="128"
   viewBox="0 0 128 128"
   version="1.1"
   id="svg1159"
   sodipodi:docname="team-support.svg"
   style="fill:none"
   inkscape:version="0.92.5 (2060ec1f9f, 2020-04-08)">
  <metadata
     id="metadata1165">
    <rdf:RDF>
      <cc:Work
         rdf:about="">
        <dc:format>image/svg+xml</dc:format>
        <dc:type
           rdf:resource="http://purl.org/dc/dcmitype/StillImage" />
        <dc:title />
      </cc:Work>
    </rdf:RDF>
  </metadata>
  <defs
     id="defs1163" />
  <sodipodi:namedview
     pagecolor="#ffffff"
     bordercolor="#666666"
     borderopacity="1"
     objecttolerance="10"
     gridtolerance="10"
     guidetolerance="10"
     inkscape:pageopacity="0"
     inkscape:pageshadow="2"
     inkscape:window-width="1848"
     inkscape:window-height="1016"
     id="namedview1161"
     showgrid="false"
     inkscape:zoom="3.2968854"
     inkscape:cx="56.32625"
     inkscape:cy="33.445892"
     inkscape:window-x="72"
     inkscape:window-y="27"
     inkscape:window-maximized="1"
     inkscape:current-layer="g4041" />
  <g
     id="g4041"
     transform="matrix(1.1065515,0,0,1.1065515,-8.5229576e-7,-13.601932)"
     style="stroke-width:0.90370852">
    <g
       id="g1409"
       transform="translate(0,-4.9604129)">
      <path
         d="m 54.348081,122.56359 c 0.005,0.1858 -0.02792,0.37078 -0.09656,0.54398 -0.06865,0.17311 -0.171738,0.33093 -0.303213,0.46416 -0.131568,0.13314 -0.288749,0.23903 -0.46233,0.31122 -0.173581,0.0722 -0.360153,0.10948 -0.548568,0.10939 H 4.0032169 c -0.1884145,9e-5 -0.3749313,-0.0371 -0.5485398,-0.10939 -0.1736086,-0.0722 -0.3307991,-0.17808 -0.4622838,-0.31122 -0.1314941,-0.13323 -0.2346108,-0.29105 -0.3032785,-0.46416 -0.068668,-0.1732 -0.101495,-0.35818 -0.096529,-0.54398 0.3563663,-12.5734 5.5311714,-22.714209 22.2731692,-23.989107 -2.694744,-0.856592 -4.990915,-2.634782 -6.474829,-5.014144 -1.483915,-2.379454 -2.057912,-5.203733 -1.618615,-7.963832 0.439203,-2.760193 1.862955,-5.274723 4.014474,-7.090665 2.151613,-1.815943 4.889568,-2.813782 7.720669,-2.813782 2.831103,0 5.569058,0.997839 7.720669,2.813782 2.15152,1.815942 3.575272,4.330472 4.014476,7.090665 0.439295,2.760099 -0.1347,5.584378 -1.618616,7.963832 -1.483914,2.379362 -3.780085,4.157552 -6.474828,5.014144 16.667736,1.260258 21.842552,11.415707 22.198926,23.989107 z"
         id="path1145"
         inkscape:connector-curvature="0"
         style="fill:#0fcbb8;stroke-width:0.90370852" />
      <path
         d="m 37.086355,97.753801 c 2.45418,-1.79366 4.272635,-4.305612 5.196373,-7.178322 0.92383,-2.872619 0.906049,-5.959685 -0.05094,-8.821806 -0.956906,-2.862121 -2.804199,-5.353448 -5.278926,-7.119393 -2.474818,-1.765945 -5.450849,-2.716548 -8.504731,-2.716548 -3.053884,0 -6.030005,0.950603 -8.504732,2.716548 -2.474727,1.765945 -4.32202,4.257272 -5.279019,7.119393 -0.956906,2.862121 -0.97478,5.949187 -0.05095,8.821806 0.923832,2.87271 2.742193,5.384662 5.196374,7.178322 C 7.0769623,100.31833 0.40984987,108.94236 0.00150764,123.58932 c -0.01466121,0.52935 0.07830368,1.05631 0.27340511,1.54965 0.19510081,0.49326 0.48838359,0.94306 0.86252975,1.32259 0.3714119,0.37955 0.8167613,0.68092 1.309256,0.88615 0.4924946,0.20525 1.0219627,0.31012 1.5565627,0.30818 H 52.937506 c 0.535667,-8.2e-4 1.065809,-0.10735 1.559189,-0.31334 0.493287,-0.20606 0.939953,-0.50742 1.313466,-0.88632 0.373605,-0.37889 0.666591,-0.82778 0.861824,-1.32011 0.19514,-0.49234 0.288565,-1.01828 0.274652,-1.5468 -0.41571,-14.64696 -7.082823,-23.27099 -19.860282,-25.835519 z M 28.474102,77.076623 c 1.84287,0 3.644279,0.539295 5.176565,1.549747 1.532286,1.010361 2.72653,2.446579 3.431725,4.126799 0.705289,1.680313 0.889832,3.529219 0.530234,5.313027 -0.359509,1.783715 -1.246946,3.422225 -2.550002,4.708265 -1.303055,1.286039 -2.963315,2.161783 -4.770805,2.516649 -1.807398,0.354772 -3.680856,0.172644 -5.383406,-0.523366 -1.702642,-0.695918 -3.15781,-1.874596 -4.181699,-3.386776 -1.023796,-1.51218 -1.570245,-3.290095 -1.570245,-5.1088 0.0019,-2.438199 0.984271,-4.776034 2.731229,-6.500084 1.746958,-1.724049 4.115823,-2.693528 6.586404,-2.695461 z M 5.2431233,122.50493 c 0.7795666,-13.92159 8.1668387,-20.42812 23.2309787,-20.42812 15.064048,0 22.443912,6.49917 23.22346,20.42812 z"
         id="path1147"
         inkscape:connector-curvature="0"
         style="fill:#646462;stroke-width:0.90370852" />
      <path
         d="m 95.834949,97.753801 c 2.454452,-1.79366 4.272261,-4.305612 5.196361,-7.178231 0.92413,-2.87271 0.90569,-5.959776 -0.0506,-8.821897 -0.95728,-2.862121 -2.80456,-5.353448 -5.279294,-7.119393 -2.474735,-1.765945 -5.450662,-2.716548 -8.504909,-2.716548 -3.053322,0 -6.030176,0.950603 -8.504901,2.716548 -2.474729,1.765945 -4.322023,4.257272 -5.278384,7.119393 -0.957269,2.862121 -0.974783,5.949187 -0.05156,8.821897 0.924105,2.872619 2.742837,5.384571 5.196379,7.178231 -12.747714,2.564529 -19.429301,11.188559 -19.830177,25.835519 -0.01446,0.5287 0.07794,1.05502 0.271704,1.54808 0.193758,0.49317 0.484995,0.94325 0.856756,1.32416 0.373328,0.37909 0.820272,0.68009 1.314108,0.88524 0.492924,0.20523 1.02362,0.3103 1.558921,0.30909 h 48.934357 c 0.53622,-7.3e-4 1.06599,-0.10735 1.55891,-0.31334 0.49384,-0.20606 0.94068,-0.50733 1.31383,-0.88632 0.37408,-0.37889 0.66705,-0.82778 0.86147,-1.32011 0.19532,-0.49234 0.28929,-1.01828 0.27548,-1.5468 -0.41645,-14.64696 -7.08329,-23.27099 -19.83837,-25.835519 z M 87.200128,77.076623 c 1.84269,0 3.644825,0.539295 5.177024,1.549747 1.532183,1.010361 2.726248,2.446579 3.431082,4.126799 0.705738,1.680313 0.890019,3.529219 0.530682,5.313027 -0.35932,1.783715 -1.246573,3.422225 -2.55027,4.708265 -1.302784,1.286039 -2.963036,2.161783 -4.770708,2.516649 -1.807672,0.354772 -3.680761,0.172644 -5.3834,-0.523366 -1.702629,-0.695918 -3.157437,-1.874596 -4.181965,-3.386776 -1.023613,-1.51218 -1.569972,-3.290095 -1.569972,-5.1088 0.0018,-2.438199 0.984003,-4.776034 2.731787,-6.500084 1.746863,-1.724049 4.115624,-2.693528 6.58574,-2.695461 z M 63.969382,122.50493 c 0.74261,-13.92159 8.166798,-20.42812 23.230746,-20.42812 15.063952,0 22.443912,6.49926 23.223362,20.42812 z"
         id="path1149"
         inkscape:connector-curvature="0"
         style="fill:#646462;stroke-width:0.90370852" />
      <path
         d="M 87.796149,54.419064 V 28.173188 C 87.794349,26.675519 87.190836,25.239744 86.117468,24.18072 85.045031,23.12171 83.590227,22.5259 82.071859,22.523961 H 43.250157 c -1.517636,0.0019 -2.972436,0.597749 -4.045525,1.656759 -1.073086,1.059024 -1.676751,2.494799 -1.678686,3.992468 v 26.245876 c 0.0019,1.497633 0.6056,2.933389 1.678686,3.992459 1.073089,1.058978 2.527889,1.654807 4.045525,1.656741 h 4.78868 v 5.275552 c -0.0036,0.746836 0.224163,1.476914 0.652771,2.092357 0.42861,0.615535 1.037617,1.087061 1.7453,1.351415 0.706302,0.27089 1.479677,0.322084 2.216291,0.146586 0.736521,-0.175499 1.401086,-0.569312 1.90423,-1.128403 l 7.038416,-7.737507 h 20.491676 c 1.514685,-0.0058 2.965798,-0.603288 4.035476,-1.661897 1.069682,-1.05861 1.671309,-2.492157 1.673152,-3.987303 z m -5.196357,0 c 0,0.137931 -0.05618,0.270247 -0.154791,0.367848 -0.09859,0.09751 -0.233102,0.152387 -0.373142,0.152387 H 59.26457 l -6.028623,6.660297 v -6.638382 h -9.98579 c -0.139859,0 -0.273916,-0.05479 -0.372775,-0.152387 -0.09886,-0.09751 -0.154418,-0.229826 -0.154418,-0.367848 V 28.173188 c 0,-0.137968 0.05555,-0.270292 0.154418,-0.367856 0.09886,-0.09756 0.232916,-0.15237 0.372775,-0.15237 h 38.821702 c 0.14004,0 0.274555,0.05482 0.373142,0.15237 0.09859,0.09757 0.154791,0.229888 0.154791,0.367856 z"
         id="path1151"
         inkscape:connector-curvature="0"
         style="fill:#646462;stroke-width:0.90370852" />
      <path
         d="m 53.908159,43.61834 c 1.365615,-1.34773 1.365615,-3.532809 0,-4.880541 -1.365613,-1.347731 -3.579692,-1.347731 -4.945308,0 -1.365613,1.347732 -1.365613,3.532811 0,4.880541 1.365616,1.347731 3.579695,1.347731 4.945308,0 z"
         id="path1153"
         inkscape:connector-curvature="0"
         style="fill:#646462;stroke-width:0.90370852" />
      <path
         d="m 63.457694,44.540584 c 1.879631,-0.437826 3.043748,-2.296493 2.600122,-4.151567 -0.443627,-1.854984 -2.327036,-3.003829 -4.206667,-2.566002 -1.879632,0.437826 -3.043749,2.296491 -2.600123,4.151476 0.443628,1.855074 2.327037,3.003919 4.206668,2.566093 z"
         id="path1155"
         inkscape:connector-curvature="0"
         style="fill:#646462;stroke-width:0.90370852" />
      <path
         d="m 73.890612,44.629898 c 1.931319,0 3.496865,-1.545144 3.496865,-3.451138 0,-1.905993 -1.565546,-3.451046 -3.496865,-3.451046 -1.931227,0 -3.496864,1.545053 -3.496864,3.451046 0,1.905994 1.565637,3.451138 3.496864,3.451138 z"
         id="path1157"
         inkscape:connector-curvature="0"
         style="fill:#646462;stroke-width:0.90370852" />
    </g>
  </g>
</svg>
