<?xml version="1.0" encoding="UTF-8" standalone="no"?>
<!-- Created with Inkscape (http://www.inkscape.org/) -->

<svg
   xmlns:dc="http://purl.org/dc/elements/1.1/"
   xmlns:cc="http://creativecommons.org/ns#"
   xmlns:rdf="http://www.w3.org/1999/02/22-rdf-syntax-ns#"
   xmlns:svg="http://www.w3.org/2000/svg"
   xmlns="http://www.w3.org/2000/svg"
   xmlns:sodipodi="http://sodipodi.sourceforge.net/DTD/sodipodi-0.dtd"
   xmlns:inkscape="http://www.inkscape.org/namespaces/inkscape"
   width="128"
   height="128"
   viewBox="0 0 33.866667 33.866665"
   version="1.1"
   id="svg1493"
   inkscape:version="0.92.5 (2060ec1f9f, 2020-04-08)"
   sodipodi:docname="team-support.svg">
  <defs
     id="defs1487" />
  <sodipodi:namedview
     id="base"
     pagecolor="#ffffff"
     bordercolor="#666666"
     borderopacity="1.0"
     inkscape:pageopacity="0.0"
     inkscape:pageshadow="2"
     inkscape:zoom="5.6"
     inkscape:cx="41.655869"
     inkscape:cy="51.824989"
     inkscape:document-units="mm"
     inkscape:current-layer="g1103"
     showgrid="false"
     fit-margin-top="-0.1"
     fit-margin-left="0"
     fit-margin-right="0"
     fit-margin-bottom="0"
     units="px"
     inkscape:window-width="1848"
     inkscape:window-height="1016"
     inkscape:window-x="72"
     inkscape:window-y="27"
     inkscape:window-maximized="1" />
  <metadata
     id="metadata1490">
    <rdf:RDF>
      <cc:Work
         rdf:about="">
        <dc:format>image/svg+xml</dc:format>
        <dc:type
           rdf:resource="http://purl.org/dc/dcmitype/StillImage" />
        <dc:title />
      </cc:Work>
    </rdf:RDF>
  </metadata>
  <g
     inkscape:label="Layer 1"
     inkscape:groupmode="layer"
     id="layer1"
     transform="translate(-65.869047,-21.61267)">
    <g
       id="g1103"
       transform="matrix(1.5591945,0,0,1.5574285,-283.41075,-213.5939)"
       style="stroke-width:0.64172035">
      <path
         inkscape:connector-curvature="0"
         id="path963"
         d="m 227.28884,160.43032 c -0.13386,-0.13337 -0.26727,-0.26796 -0.40091,-0.4009 -0.10417,0.0259 -0.0379,-0.10061 -0.152,-0.0812 -0.0814,-0.0853 -0.20775,-0.0459 -0.29818,-0.12609 -0.10282,-0.0197 -0.39435,0.0394 -0.38505,0.0768 0.15526,0.0283 -0.15358,0.0537 -0.16705,0.13047 -0.12064,-0.006 -0.26457,-0.03 -0.19835,0.14326 0.0608,0.20103 -0.0938,0.35548 -0.0689,0.54848 -0.002,1.32621 0.003,2.66235 -0.002,3.98232 -0.10405,0.059 -0.0438,0.22534 -0.13119,0.30384 -0.0983,0.10145 -0.0977,0.42188 2.9e-4,0.45335 0.0413,-0.15348 0.0534,0.13226 0.16146,0.0486 0.1067,0.011 0.25313,-0.0437 0.26097,0.0712 0.19847,-0.0703 0.43455,0.10988 0.60661,0.0938"
         style="opacity:1;fill:#ffffff;fill-opacity:1;fill-rule:nonzero;stroke:#000000;stroke-width:0.33957702;stroke-linecap:round;stroke-linejoin:round;stroke-miterlimit:4;stroke-dasharray:none;stroke-dashoffset:0;stroke-opacity:1;paint-order:normal"
         sodipodi:nodetypes="cccccccccccccc" />
      <path
         inkscape:connector-curvature="0"
         id="path965"
         d="m 243.12456,160.49714 c 0.10573,0.18082 0.25891,0.34247 0.41754,0.46969 0.0878,-4.7e-4 0.12256,0.15104 0.18598,0.16351 0.0616,0.1345 0.20875,0.22967 0.26512,0.36907 0.15242,0.0365 0.13326,0.49284 0.22754,0.30293 0.10737,0.1254 0.12728,0.30479 0.10655,0.48928 -0.001,0.62678 0.002,1.25432 0,1.88049 -0.0965,0.18367 -0.14748,0.34636 -0.14804,0.55291 -0.0906,0.13492 -0.0829,0.34993 -0.18602,0.48277 -0.0481,0.0723 -0.0684,0.16092 -0.0817,0.23829 -0.10904,0.005 -0.0992,0.22393 -0.18571,0.30293 -0.0366,-0.19318 -0.0973,0.17421 -0.22456,0.17332 -0.0676,0.11498 -0.0966,0.2319 -0.17824,0.33778 0.002,0.0794 -0.0943,0.0411 -0.0936,0.15374 -0.17183,0.1094 -0.10517,0.36068 -0.35034,0.32026 -0.16831,0.0454 0.13336,0.055 -0.0527,0.11664 -0.25546,-0.0132 -0.5179,-0.003 -0.77086,-0.006 -0.0171,0.0191 0.002,0.0464 0,0.0668"
         style="opacity:1;fill:#ffffff;fill-opacity:1;fill-rule:nonzero;stroke:#000000;stroke-width:0.33957702;stroke-linecap:round;stroke-linejoin:round;stroke-miterlimit:4;stroke-dasharray:none;stroke-dashoffset:0;stroke-opacity:1;paint-order:normal" />
      <path
         sodipodi:nodetypes="cccccccccccccccccccccccccccccccccc"
         inkscape:connector-curvature="0"
         id="path945"
         d="m 227.28884,157.49036 c -1.1e-4,1.38086 1.5e-4,2.76204 0,4.14268 -0.15612,0.44881 -0.22785,0.91591 -0.20046,1.40316 -6.6e-4,0.51218 9.2e-4,1.02539 0,1.5368 -0.30215,0.50425 -0.34684,1.0695 -0.33409,1.64492 -0.0331,0.53087 -0.1888,1.00794 -0.20046,1.58934 1.1e-4,0.70334 -1.4e-4,1.40954 0,2.11113 0.47488,0.005 0.98664,-0.039 1.40317,0.13363 0.13747,0.3372 0.0353,0.77093 0.0668,1.15169 -0.0297,0.36338 -0.0144,0.86866 0.47276,0.85737 1.02262,-0.0102 2.23532,0.0217 2.78509,0.20811 0.67205,0.24515 1.67437,0.19716 2.39099,0.22144 0.76777,0.0437 1.50024,0.10081 2.30244,0.10721 0.95736,-1e-5 1.91752,1e-5 2.87315,0 0.18637,-0.0369 0.43722,-0.0589 0.7765,-0.069 -0.0471,-0.0198 0.19862,-0.045 0.35941,-0.0714 0.0291,-0.0738 -0.21363,-0.73393 -0.13363,-1.1772 -0.0752,-0.48321 0.20306,-0.55971 0.57171,-0.62593 0.41306,-0.0749 0.86756,-0.22981 1.16554,-0.5355 0.0778,-0.15223 0.27276,-0.20096 0.20045,-0.52179 -0.0424,-0.39049 0.1954,-0.69384 0.13364,-1.09612 0.015,-0.45592 -0.0296,-0.96107 0.0215,-1.38719 0.0725,-0.64445 0.27784,-1.24539 0.37937,-1.85269 -0.0295,-0.45128 0.0791,-0.9289 0.13363,-1.28943 0.0975,-0.60053 0.29001,-1.11487 0.32866,-1.70852 0.0753,-0.69436 0.32924,-1.20091 0.40635,-1.87974 0.0173,-0.41839 -0.0787,-0.90541 0.20046,-1.15579 4e-4,-0.48935 -1.3e-4,-0.98221 0,-1.46998 -0.45151,-0.16411 -0.94313,-0.27692 -1.47712,-0.26728 -2.11345,3e-5 -4.22735,-4e-5 -6.34051,0 -0.70309,0.20774 -1.46142,0.11208 -2.20087,0.13364 -1.11492,9.6e-4 -2.2308,-0.001 -3.34498,0 -0.40815,0.0778 -0.7876,0.15533 -1.22412,0.13364 h -1.38175"
         style="opacity:1;fill:#ffffff;fill-opacity:1;fill-rule:nonzero;stroke:#000000;stroke-width:0.33957702;stroke-linecap:round;stroke-linejoin:round;stroke-miterlimit:4;stroke-dasharray:none;stroke-dashoffset:0;stroke-opacity:1;paint-order:normal" />
      <path
         inkscape:connector-curvature="0"
         id="path947"
         d="m 230.83016,159.89578 c -0.42459,-0.0624 -0.74242,0.0668 -1.08572,0.26069 -0.22722,0.12303 -0.51829,0.20836 -0.65317,0.44139 -0.11817,0.16089 -0.13571,0.35215 -0.15901,0.56821 -0.0969,0.42117 -0.007,0.94972 -0.0452,1.41173 0.0727,0.25748 0.17741,0.42933 0.31541,0.60509 0.20389,0.26663 0.54748,0.61935 0.85374,0.71635 0.25184,0.0869 0.53001,0.25582 0.83876,0.20608 0.41865,-0.005 0.842,0.0106 1.25766,-0.008 0.24669,-0.24473 0.51739,-0.35585 0.75265,-0.61702 0.20255,-0.15971 0.23078,-0.53597 0.38425,-0.64489 0.0745,-0.28561 0.0942,-0.5789 0.0796,-0.87664 2.3e-4,-0.26446 6.3e-4,-0.52892 4e-5,-0.79337 -0.15182,-0.29074 -0.39965,-0.51734 -0.48624,-0.85475 -0.21,-0.24929 -0.60998,-0.26669 -0.91585,-0.34692 -0.31492,-0.0655 -0.62881,-0.21609 -0.96896,-0.12399 -0.0577,0.0128 -0.11417,0.0319 -0.16796,0.0561 z"
         style="opacity:1;fill:none;fill-opacity:1;fill-rule:nonzero;stroke:#000000;stroke-width:0.33957702;stroke-linecap:round;stroke-linejoin:round;stroke-miterlimit:4;stroke-dasharray:none;stroke-dashoffset:0;stroke-opacity:1;paint-order:normal" />
      <path
         inkscape:connector-curvature="0"
         id="path949"
         d="m 239.18234,160.09624 c -0.27784,0.0277 -0.62624,-0.0687 -0.82549,0.0752 -0.29146,0.16188 -0.61807,0.29888 -0.92732,0.46126 -0.21455,0.16174 -0.74332,0.22172 -0.71328,0.61581 -0.14026,0.36743 -0.23811,0.72693 -0.34585,1.0789 -10e-4,0.3187 -0.0158,0.56609 0.1432,0.8089 0.0359,0.18484 0.15658,0.29545 0.25769,0.45465 0.11432,0.23242 0.36284,0.2853 0.48281,0.43314 0.22856,0.0839 0.58973,0.16653 0.90724,0.14625 0.71891,0.004 1.43794,6.3e-4 2.1569,0.002 0.25218,-0.12495 0.38407,-0.30928 0.43271,-0.60304 0.13124,-0.2498 0.132,-0.57236 0.29563,-0.83826 0.0164,-0.36458 0.002,-0.73205 0.007,-1.09777 -0.18181,-0.29832 -0.1323,-0.67061 -0.44085,-0.90257 -0.30386,-0.2506 -0.67918,-0.29045 -1.01208,-0.48155 -0.12435,-0.0835 -0.26934,-0.1355 -0.41796,-0.1527 z"
         style="opacity:1;fill:none;fill-opacity:1;fill-rule:nonzero;stroke:#000000;stroke-width:0.33957702;stroke-linecap:round;stroke-linejoin:round;stroke-miterlimit:4;stroke-dasharray:none;stroke-dashoffset:0;stroke-opacity:1;paint-order:normal" />
      <path
         inkscape:connector-curvature="0"
         id="path951"
         d="m 238.71461,161.83349 c -0.0561,0.0776 -0.1208,0.14835 -0.18798,0.21629 -0.0318,0.0569 0.003,0.12735 -0.0125,0.18461 -0.0305,0.003 -0.0933,-0.0178 -0.0666,0.0411 0.004,0.0618 -0.10259,0.0794 -0.0629,0.15281 -0.0215,0.0282 -0.0886,-0.0265 -0.0759,0.0399 0.004,0.0609 -0.0159,0.13323 0.0193,0.18546 0.0542,0.0218 0.0545,0.0695 0.0524,0.11528 0.0382,0.0348 0.13318,-0.0526 0.1364,0.0239 -0.0317,0.0683 0.0494,0.0431 0.0875,0.0429 0.15374,9.2e-4 0.30766,-0.002 0.46128,0.001 0.0752,0.0335 0.0878,-0.10133 0.16062,-0.0639 0.0607,0.0102 -0.0178,-0.10198 0.0562,-0.0711 0.0719,0.0134 0.022,-0.10093 0.0303,-0.14497 -0.0304,-0.081 0.099,-0.0935 0.0735,-0.17159 -0.037,-0.071 0.0281,-0.11274 0.0655,-0.15912 -0.0195,-0.0423 0.002,-0.0823 0.0497,-0.0545 0.0597,-0.0201 0.0103,-0.10872 -0.044,-0.0691 -0.0464,-0.0374 -0.0881,-0.10254 -0.15912,-0.0655 -0.0744,0.0294 -0.0863,-0.0995 -0.15828,-0.0686 -0.0616,-0.004 -0.0824,-0.10292 -0.15828,-0.0685 -0.0901,-0.018 -0.1782,-0.0446 -0.26728,-0.0668 z"
         style="opacity:1;fill:#000000;fill-opacity:1;fill-rule:nonzero;stroke:#000000;stroke-width:0.33957702;stroke-linecap:round;stroke-linejoin:round;stroke-miterlimit:4;stroke-dasharray:none;stroke-dashoffset:0;stroke-opacity:1;paint-order:normal" />
      <path
         inkscape:connector-curvature="0"
         id="path953"
         d="m 231.16425,161.4994 c -0.0916,0.0676 -0.1747,0.1483 -0.27481,0.20334 -0.0647,-0.0235 -0.11887,0.0305 -0.13895,0.0883 -0.0249,0.0595 -0.0891,0.0283 -0.12466,0.0492 0.0425,0.10734 -0.0992,0.058 -0.15586,0.0507 -0.0805,-0.007 -0.0305,0.0975 -0.0407,0.14303 0.0468,0.0887 0.16208,0.11558 0.20291,0.20823 -0.04,0.0793 0.086,0.0944 0.0668,0.16817 -0.0307,0.0605 -0.002,0.11384 0.0643,0.0913 0.0235,0.0506 -0.0536,0.16295 0.0582,0.13483 0.15377,-0.004 0.30751,0.004 0.4612,10e-4 0.0532,-0.024 0.0882,-0.10703 0.16099,-0.0627 0.0623,0.0234 0.0589,-0.0347 0.0546,-0.0735 0.0635,-0.0203 0.13833,0.029 0.19621,-0.0321 0.0324,-0.01 0.068,-0.0466 0.01,-0.0347 -0.086,10e-5 0.006,-0.10562 0.0549,-0.063 0.0222,-0.0666 0.001,-0.15891 0.011,-0.23548 6.1e-4,-0.0703 -0.10342,-0.0897 -0.0711,-0.16931 -0.0364,-0.0369 -0.0884,-0.0676 -0.0627,-0.12706 -0.0224,-0.0256 -0.0989,0.0246 -0.0751,-0.0466 0.005,-0.0751 0.021,-0.15425 -0.002,-0.22795 -0.0192,-0.0636 -0.0868,-0.0788 -0.14461,-0.0661 -0.0834,0 -0.16677,0 -0.25012,0 z"
         style="opacity:1;fill:#000000;fill-opacity:1;fill-rule:nonzero;stroke:#000000;stroke-width:0.33957702;stroke-linecap:round;stroke-linejoin:round;stroke-miterlimit:4;stroke-dasharray:none;stroke-dashoffset:0;stroke-opacity:1;paint-order:normal" />
      <path
         inkscape:connector-curvature="0"
         id="path955"
         d="m 234.90602,162.56848 c -0.0611,0.10414 -0.0792,0.28539 -0.21882,0.28167 -0.0831,0.0689 -0.19909,0.0864 -0.25946,0.20483 -0.0698,0.10687 -0.29697,-0.011 -0.25672,0.18167 -0.0852,0.0568 -0.0589,0.15534 -0.1356,0.21708 0.0391,0.0919 -0.11542,0.01 -0.0649,0.11701 -0.12631,0.0545 -0.006,0.20876 -0.11669,0.23596 -0.0339,0.0869 0.006,0.18797 -0.0866,0.24781 0.0176,0.0906 -0.12647,0.12712 -0.0591,0.23568 -0.0846,0.042 -0.0349,0.17789 -0.13854,0.14919 0.006,0.085 0.003,0.15808 -0.0712,0.21635 0.0322,0.0874 0.006,0.12752 -0.0702,0.13124 0.0127,0.0615 0.0374,0.15091 -0.0591,0.12014 0.0476,0.11051 -0.11766,0.0217 -0.0668,0.13364 -0.11116,-0.0505 -0.0285,0.1424 -0.15873,0.0666 -0.13154,-0.0227 -0.16046,0.20378 -0.004,0.13562 0.16948,-0.0471 0.26251,0.12772 0.4404,0.0684 0.56017,-0.007 1.12054,-0.002 1.68078,-0.003 0.13139,0.0175 0.25343,0.004 0.34973,-0.0687 0.10653,-0.0215 0.31246,0.0665 0.3116,-0.072 0.12549,-0.01 0.35807,0.082 0.39119,-0.096 0.0116,-0.0909 0.012,-0.17982 -0.0763,-0.17895 0.0241,-0.0916 -0.12538,-0.12824 -0.0567,-0.23745 -0.0782,-0.0685 -0.0674,-0.16301 -0.1405,-0.23264 0.0354,-0.0872 -0.13559,-0.0199 -0.0593,-0.136 0.0233,-0.0888 -0.11892,-0.009 -0.0724,-0.11464 -0.10231,0.0284 -0.0566,-0.10653 -0.13642,-0.14968 0.0121,-0.0754 -0.0806,-0.12471 -0.0789,-0.18884 -0.0938,0.0336 -0.0286,-0.13205 -0.13861,-0.14434 -0.067,-0.0571 -0.0409,-0.14754 -0.11659,-0.20137 0.007,-0.0923 -0.12229,-0.141 -0.0615,-0.25561 0.0378,-0.108 -0.11601,-0.0189 -0.0693,-0.12926 -0.12444,-0.0698 -0.016,-0.20995 -0.13559,-0.28389 -2.9e-4,-0.12618 -0.18468,-0.16718 -0.26531,-0.25065 z"
         style="opacity:1;fill:none;fill-opacity:1;fill-rule:nonzero;stroke:#000000;stroke-width:0.33957702;stroke-linecap:round;stroke-linejoin:round;stroke-miterlimit:4;stroke-dasharray:none;stroke-dashoffset:0;stroke-opacity:1;paint-order:normal" />
      <path
         sodipodi:nodetypes="cccccccccccccccccccccc"
         inkscape:connector-curvature="0"
         id="path957"
         d="m 229.22654,166.5107 c 0.12601,0.38548 0.0452,0.79529 0.0668,1.19364 0.009,0.1875 0.0332,0.59221 -0.13363,0.4768 -0.0462,0.16984 0.12216,0.14471 0.12921,0.25241 0.23772,0.0645 0.47958,0.22043 0.78499,0.14851 0.4746,-9.2e-4 0.95166,0.0848 1.42442,0.0852 0.27251,0.0373 0.54855,0.0688 0.86864,0.0732 0.33237,0.008 0.60064,0.0578 0.94932,0.0558 0.55204,-0.002 1.10505,-1.1e-4 1.65656,-8.7e-4 0.37141,-0.0327 0.7841,-0.0159 1.1359,-0.0732 0.36627,-0.0112 0.74967,-0.053 1.1025,-0.0732 0.18908,-0.0357 0.4413,0.15014 0.68338,0.1336 0.69651,-7e-5 1.39307,9e-5 2.08955,0 0.0176,-0.26607 0.005,-0.54216 -0.13119,-0.73816 -0.006,-0.39945 -6.9e-4,-0.80175 -0.002,-1.19956 -0.30882,-0.18184 -0.67619,0.0538 -1.00227,0.10024 -0.20403,0.0759 -0.43709,0.0141 -0.65453,0.0334 -0.24921,-0.0169 -0.53053,0.0621 -0.73707,-0.0709 -2.09733,0.009 -4.19533,0.001 -6.2924,0.004 -0.27246,-0.19825 -0.66334,-0.12356 -1.01395,-0.12987 -0.2954,-0.14478 -0.68496,0.0544 -0.9238,-0.27105 z"
         style="opacity:1;fill:none;fill-opacity:1;fill-rule:nonzero;stroke:#000000;stroke-width:0.33957702;stroke-linecap:round;stroke-linejoin:round;stroke-miterlimit:4;stroke-dasharray:none;stroke-dashoffset:0;stroke-opacity:1;paint-order:normal" />
      <path
         inkscape:connector-curvature="0"
         id="path959"
         d="m 230.02835,166.71116 c -0.19123,0.23106 -0.12673,0.52323 -0.13363,0.79717 -0.0288,0.23331 0.0438,0.42851 0.0629,0.63945 0.20212,0.1131 0.36854,-0.13394 0.48702,-0.31611 0.0978,-0.12393 0.29264,-0.20908 0.25188,-0.38552 0.14822,0.0574 0.01,-0.46114 0.14036,-0.22578 0.0184,-0.12184 0.23374,-0.50487 0.26056,-0.28701 7.1e-4,0.37137 -0.001,0.74306 0,1.11414 0.052,0.0933 0.11514,0.3299 0.12501,0.084 0.0833,-0.11219 0.0994,0.15162 0.14138,-0.11796 0.13564,-0.21144 0.32103,-0.43965 0.33498,-0.70108 0.0689,-0.17983 0.0971,0.01 0.16704,-0.13363 0.0152,-0.31579 0.42348,0.0905 0.30295,0.32461 -0.0892,0.26693 0.16514,0.39461 0.19819,0.61084 0.16852,0.01 -0.0297,0.24868 0.13364,0 -0.0373,-0.29638 0.27154,-0.32549 0.42754,-0.55306 0.19441,-0.10047 0.0982,-0.41291 0.24065,-0.48261 0.10505,-0.0974 0.20758,0.0478 0.24348,0.17678 0.0661,-0.1514 0.12486,0.54268 0.4247,0.49139 0.0692,0.007 0.27364,0.0723 0.1921,0.0752 0.003,-0.28551 0.0148,-0.55334 0.0752,-0.81225 0.2838,-0.13943 0.15138,0.48191 0.36601,0.63774 0.1951,0.25912 0.36603,0.63595 0.56946,0.80094 0.1108,-0.0472 0.16816,-0.17937 0.27251,-0.21474 0.0391,-0.22161 0.26755,-0.3739 0.32884,-0.58708 0.10853,-0.0343 0.0929,-0.19831 0.19675,-0.23475 0.0223,-0.18298 0.45685,-0.38254 0.40462,-0.0993 0.15848,0.19286 0.0935,0.5012 0.29057,0.68808 -0.0658,-0.0603 0.048,0.24756 0.0793,0.26159 0.009,0.17414 0.12354,0.28799 0.0986,0.0136 0.009,-0.33409 0.12183,-0.67905 0.26656,-0.96326 -0.0465,-0.23292 0.31955,-0.4436 0.46992,-0.30225 0.0669,0.14419 0.14144,0.18483 0.12924,0.45222 0.19179,0.25275 0.24663,0.64541 0.40312,0.85229 0.1313,0.16338 0.006,0.42701 0.26727,0.53454 0.14296,0.23868 0.27723,-0.31697 0.33409,-0.46772 0.007,-0.28777 0.25817,-0.71209 0.24476,-0.85897 0.0197,-0.25958 0.19064,-0.43382 0.22297,-0.67785 0.0978,-0.006 0.13209,-0.18777 0.13364,0.0668 1.5e-4,0.40055 -2e-4,0.80392 0,1.20272 0.10426,0.003 0.0748,0.15385 0.13364,0.20045 -0.0596,0.11924 0.30848,0.0941 0.10249,0.16073 0.10665,0.0576 0.12879,0.11123 0.19663,0.17555 0.1445,0.10541 0.28441,0.17511 0.36464,0.25021 0.0523,0.0436 0.23337,0.0593 0.20488,0.1485"
         style="opacity:1;fill:none;fill-opacity:1;fill-rule:nonzero;stroke:#000000;stroke-width:0.33957702;stroke-linecap:round;stroke-linejoin:round;stroke-miterlimit:4;stroke-dasharray:none;stroke-dashoffset:0;stroke-opacity:1;paint-order:normal" />
      <path
         sodipodi:nodetypes="cccccccccccccccccccccccccccccccccccccccccccccccccccc"
         inkscape:connector-curvature="0"
         id="path979"
         d="m 229.20294,157.73064 c 0.0922,-0.40045 0.27706,-0.99772 0.35773,-1.37619 0.0314,-0.24254 -0.0722,-0.53698 0.0668,-0.735 0.12858,-0.25094 0.0462,-0.58295 0.0668,-0.87686 0.002,-0.30907 -0.004,-0.61857 0,-0.92721 0.23398,-0.27672 0.2605,-0.55565 0.50114,-0.80182 -0.0107,-0.19342 0.19264,-0.2103 0.23416,-0.35312 0.0732,0.0102 0.30888,-0.14103 0.46742,-0.21484 0.1758,-0.18476 0.60737,-0.10937 0.60137,0.30068 0.13063,0.16868 0.0391,0.42939 0.0668,0.64071 -0.001,0.32096 0.002,0.64225 0,0.96291 -0.2458,0.20683 -0.086,0.70902 -0.40092,0.80182 -0.0208,0.36629 -0.7041,0.40291 -0.60137,-0.0668 2.1e-4,-0.57858 -4.3e-4,-1.1586 0,-1.73726 0.1235,-0.30592 0.17593,-0.32752 0.53455,-0.53454 0.22991,-0.27558 0.60523,-0.19066 0.94368,-0.20045 0.28295,-0.0335 0.53743,0.0536 0.79359,0.13364 0.34217,0.0272 0.25704,0.53114 0.46772,0.66818 0.001,0.62252 -6.4e-4,1.24947 0,1.87088 -0.38807,0.0674 -0.37391,-0.53211 -0.53454,-0.80181 -0.0397,-0.27079 -0.22359,-0.49653 -0.26728,-0.73042 -0.0813,-0.32518 0.14515,-0.5173 0.23229,-0.77362 0.17446,-0.29783 0.39941,-0.5716 0.76998,-0.70096 0.36401,-0.24062 1.00811,-0.21794 1.29522,0.1568 0.27922,0.2863 0.441,0.64777 0.37523,1.06788 -9.2e-4,0.37126 0.001,0.74366 0,1.11393 -0.0413,0.36486 -0.0913,0.55384 -0.51623,0.46773 -0.42806,0.086 -0.88577,-0.26216 -0.75332,-0.73043 -7.8e-4,-0.27743 -0.0235,-0.58744 0.13364,-0.80639 0.32368,-0.34312 0.47835,-0.72377 0.80436,-1.06761 0.11576,-0.34301 0.52433,-0.60175 0.86609,-0.43579 0.12175,0.0404 0.43204,0.46651 0.60137,0.76841 0.22282,0.36996 0.41205,0.63904 0.60136,1.00228 0.18524,0.21583 0.25787,0.53443 0.33409,0.86864 0.38739,0.46774 -0.3443,0.66599 -0.60135,0.33409 -0.23746,0.009 -0.37827,-0.12572 -0.33409,-0.38718 v -2.1519 c 0.26992,-0.22447 0.42256,-0.8894 0.96657,-0.80182 0.27229,-0.005 0.56289,-0.0352 0.72205,0.22301 0.36116,0.2476 0.6255,0.63922 0.85046,0.97971 0.14691,0.26919 0.28533,0.46181 0.26728,0.86864 -0.003,0.31182 0.005,0.62383 0,0.93545 -0.0537,0.39863 -0.7336,0.46794 -1.06908,0.16704 -0.2988,-0.0494 -0.17693,-0.33496 -0.20044,-0.56338 0.002,-0.38015 -0.003,-0.7609 0,-1.14047 0.0846,-0.40206 0.11836,-0.87364 0.33409,-1.13592 0.34945,-0.22575 0.71556,-0.50011 1.00227,-0.735 0.20043,-0.0791 0.69755,-0.16697 0.735,0.0668 0.24028,0.19186 0.4744,0.39022 0.68698,0.62016 0.29995,0.26323 0.39766,0.61646 0.44893,0.98348 0.17669,0.22645 0.12704,0.54479 0.13363,0.84116 v 3.67127"
         style="opacity:1;fill:none;fill-opacity:1;fill-rule:nonzero;stroke:#000000;stroke-width:0.33957702;stroke-linecap:round;stroke-linejoin:round;stroke-miterlimit:4;stroke-dasharray:none;stroke-dashoffset:0;stroke-opacity:1;paint-order:normal" />
    </g>
  </g>
</svg>
