<?xml version="1.0" encoding="UTF-8" standalone="no"?>
<svg
   xmlns:dc="http://purl.org/dc/elements/1.1/"
   xmlns:cc="http://creativecommons.org/ns#"
   xmlns:rdf="http://www.w3.org/1999/02/22-rdf-syntax-ns#"
   xmlns:svg="http://www.w3.org/2000/svg"
   xmlns="http://www.w3.org/2000/svg"
   xmlns:sodipodi="http://sodipodi.sourceforge.net/DTD/sodipodi-0.dtd"
   xmlns:inkscape="http://www.inkscape.org/namespaces/inkscape"
   width="128"
   height="128"
   viewBox="0 0 128 128"
   version="1.1"
   id="svg1173"
   sodipodi:docname="tool-docs.svg"
   style="fill:none"
   inkscape:version="0.92.5 (2060ec1f9f, 2020-04-08)">
  <metadata
     id="metadata1179">
    <rdf:RDF>
      <cc:Work
         rdf:about="">
        <dc:format>image/svg+xml</dc:format>
        <dc:type
           rdf:resource="http://purl.org/dc/dcmitype/StillImage" />
        <dc:title />
      </cc:Work>
    </rdf:RDF>
  </metadata>
  <defs
     id="defs1177" />
  <sodipodi:namedview
     pagecolor="#ffffff"
     bordercolor="#666666"
     borderopacity="1"
     objecttolerance="10"
     gridtolerance="10"
     guidetolerance="10"
     inkscape:pageopacity="0"
     inkscape:pageshadow="2"
     inkscape:window-width="1848"
     inkscape:window-height="1016"
     id="namedview1175"
     showgrid="false"
     inkscape:zoom="2.8526017"
     inkscape:cx="24.602204"
     inkscape:cy="62.915794"
     inkscape:window-x="72"
     inkscape:window-y="27"
     inkscape:window-maximized="1"
     inkscape:current-layer="g4046" />
  <g
     id="g4046"
     transform="matrix(0.80000108,0,0,0.79623837,0,25.891787)"
     style="stroke-width:1.25294828">
    <g
       id="g845"
       transform="translate(0,-15.450732)">
      <path
         d="m 24.762,27.629117 h 72.3971 c 2.2151,-5.698002 7.3819,-9.649195 13.1609,-9.649195 H 142 c 2.661,0 5.17,0.859451 7.261,2.444433 -1.306,-5.52409 -5.441,-9.667103 -10.045,-9.667103 h -4.56 C 133.877,4.4997772 129.454,-0.4469322 124.458,-0.4469322 H 92.7815 c -4.9957,0 -8.732,4.9463689 -8.6373,11.2041842 H 8.77149 c -5.2936,0 -9.202729,5.472016 -8.7332641,12.223816 L 5.5672,102.36045 10.361,42.164543 c 0.6391,-8.012139 7.0981,-14.535426 14.401,-14.535426 z"
         id="path1167"
         inkscape:connector-curvature="0"
         style="fill:#646462;stroke-width:1.25294828" />
      <path
         d="m 158.783,38.049545 c -0.885,-1.062148 -2.154,-1.646505 -3.574,-1.646505 h -8.624 l 0.07,-4.463261 c 0.023,-1.438425 -0.434,-2.755123 -1.288,-3.710485 -0.853,-0.951297 -2.047,-1.478196 -3.369,-1.478196 l -31.676,0.0013 c -2.97,0 -5.77,2.666245 -6.24,5.945631 l -0.531,3.70642 -78.7885,-0.0014 c -3.2116,0 -6.163,2.986494 -6.4459,6.524495 l -6.2415,78.380296 c -0.1208,1.52489 0.2729,2.93332 1.1076,3.99678 0.0299,0.0374 0.0548,0.0813 0.086,0.11756 0.8832,1.06236 2.154,1.64683 3.5729,1.64683 H 147.29 c 2.019,0 3.931,-1.18102 5.148,-2.93661 0.717,-1.03491 1.191,-2.27305 1.297,-3.5881 l 1.449,-18.19087 4.795,-60.192394 c 0.123,-1.57806 -0.303,-3.038458 -1.197,-4.111372"
         id="path1169"
         inkscape:connector-curvature="0"
         style="fill:#646462;stroke-width:1.25294828" />
      <path
         d="m 116.068,94.489278 -4.003,-0.6672 c -0.175,-0.535 -0.393,-1.0533 -0.645,-1.5495 l 2.367,-3.3137 -3.895,-3.8949 -3.314,2.367 c -0.495,-0.2517 -1.014,-0.4702 -1.549,-0.6455 l -0.667,-4.0025 h -5.5091 l -0.6672,4.0025 c -0.5356,0.1753 -1.0538,0.3938 -1.5496,0.6455 l -3.3136,-2.367 -3.8949,3.8949 2.367,3.3137 c -0.2517,0.4957 -0.4703,1.0139 -0.6456,1.5495 l -4.0025,0.6672 v 5.508801 l 4.0025,0.667101 c 0.1753,0.5351 0.3939,1.0533 0.6456,1.5496 l -2.367,3.3136 3.8949,3.895 3.3136,-2.367 c 0.4957,0.252 1.014,0.47 1.5496,0.645 l 0.6672,4.003 h 5.5091 l 0.667,-4.003 c 0.535,-0.175 1.054,-0.393 1.549,-0.645 l 3.314,2.367 3.895,-3.895 -2.367,-3.3136 c 0.252,-0.4957 0.47,-1.014 0.645,-1.5496 l 4.003,-0.667101 z m -8.952,2.7541 c 0,3.042302 -2.466,5.508702 -5.508,5.508702 -3.0428,0 -5.5092,-2.4664 -5.5092,-5.508702 0,-3.0423 2.4664,-5.5088 5.5092,-5.5088 3.042,0 5.508,2.4665 5.508,5.5088 z m -14.4599,-30.2975 -4.0025,-0.5812 c -0.2925,-1.0125 -0.6888,-1.9755 -1.1835,-2.8833 l 2.367,-3.3137 -4.8632,-4.8632 -3.3137,2.367 c -0.9078,-0.4947 -1.8708,-0.891 -2.8833,-1.1835 l -0.5812,-4.0025 h -6.8858 l -0.5812,4.0025 c -1.0125,0.2925 -1.9754,0.6888 -2.8833,1.1835 l -3.3136,-2.367 -4.8632,4.8632 2.367,3.3353 c -0.476,0.8761 -0.8521,1.8021 -1.1403,2.7757 l -4.0452,0.6672 v 6.8858 l 4.0452,0.6671 c 0.2987,1.0082 0.7056,1.9583 1.2051,2.8617 l -2.4313,3.2494 4.8632,4.8632 3.2494,-2.4313 c 0.9035,0.4995 1.8535,0.9063 2.8616,1.2051 l 0.6672,4.0452 h 6.8858 l 0.6672,-4.0452 c 1.0086,-0.2983 1.9587,-0.7056 2.8616,-1.2051 l 3.2494,2.4313 4.8632,-4.8632 -2.4313,-3.2494 c 0.5144,-0.9304 0.9472,-1.9069 1.2478,-2.9482 l 4.0025,-0.5812 v -6.8858 z m -10.3287,3.4429 c 0,4.1831 -3.391,7.5746 -7.5746,7.5746 -4.1831,0 -7.5746,-3.391 -7.5746,-7.5746 0,-4.1832 3.391,-7.5747 7.5746,-7.5747 4.1831,0 7.5746,3.3911 7.5746,7.5747 z"
         id="path1171"
         inkscape:connector-curvature="0"
         style="fill:#ffc532;stroke-width:1.25294828" />
    </g>
  </g>
</svg>
