<?xml version="1.0" encoding="UTF-8" standalone="no"?>
<!-- Created with Inkscape (http://www.inkscape.org/) -->

<svg
   xmlns:dc="http://purl.org/dc/elements/1.1/"
   xmlns:cc="http://creativecommons.org/ns#"
   xmlns:rdf="http://www.w3.org/1999/02/22-rdf-syntax-ns#"
   xmlns:svg="http://www.w3.org/2000/svg"
   xmlns="http://www.w3.org/2000/svg"
   xmlns:sodipodi="http://sodipodi.sourceforge.net/DTD/sodipodi-0.dtd"
   xmlns:inkscape="http://www.inkscape.org/namespaces/inkscape"
   width="128"
   height="128"
   viewBox="0 0 33.866668 33.866666"
   version="1.1"
   id="svg1371"
   inkscape:version="0.92.5 (2060ec1f9f, 2020-04-08)"
   sodipodi:docname="tool-docs.svg">
  <defs
     id="defs1365" />
  <sodipodi:namedview
     id="base"
     pagecolor="#ffffff"
     bordercolor="#666666"
     borderopacity="1.0"
     inkscape:pageopacity="0.0"
     inkscape:pageshadow="2"
     inkscape:zoom="2.8"
     inkscape:cx="-19.117089"
     inkscape:cy="5.7187248"
     inkscape:document-units="mm"
     inkscape:current-layer="g1117"
     showgrid="false"
     fit-margin-top="0"
     fit-margin-left="0"
     fit-margin-right="0"
     fit-margin-bottom="0"
     units="px"
     inkscape:window-width="1848"
     inkscape:window-height="1016"
     inkscape:window-x="72"
     inkscape:window-y="27"
     inkscape:window-maximized="1" />
  <metadata
     id="metadata1368">
    <rdf:RDF>
      <cc:Work
         rdf:about="">
        <dc:format>image/svg+xml</dc:format>
        <dc:type
           rdf:resource="http://purl.org/dc/dcmitype/StillImage" />
        <dc:title />
      </cc:Work>
    </rdf:RDF>
  </metadata>
  <g
     inkscape:label="Layer 1"
     inkscape:groupmode="layer"
     id="layer1"
     transform="translate(-92.72972,-93.221986)">
    <g
       id="g1117"
       transform="matrix(1.3658388,0,0,1.3658874,-213.03901,-60.931439)"
       style="stroke-width:0.7321378">
      <path
         inkscape:connector-curvature="0"
         id="path882"
         d="m 238.88619,116.06362 c -0.0547,-0.68528 -0.57859,-2.43536 0.41113,-2.27899 0.59569,0.91803 1.66951,1.54962 2.42327,0.33891 0.50961,-0.49014 1.11895,-1.56469 1.24438,-0.23415 -0.0533,0.97825 0.0611,2.12164 1.26381,1.26101 0.52208,-0.1996 2.38665,-0.5406 1.86092,0.93944 0.0903,0.88719 2.12507,-0.13505 1.61638,1.31012 -0.47149,0.5508 -1.52016,1.67623 -0.38074,2.00828 0.007,0.86985 1.18504,1.69629 0.50912,2.24582 -0.6249,0.68874 0.94007,0.79683 0.40585,1.71955 0.45119,1.06544 -1.78444,0.97925 -0.80601,2.11437 0.82933,0.80116 0.40432,1.93289 -0.755,1.58843 -0.47079,0.58864 0.23274,1.97411 -0.84076,2.08425 -1.0507,0.22939 -0.47717,-1.7663 -1.73403,-1.22966 -1.24521,-0.39335 -2.46678,1.72046 -3.33022,0.243 -1.22283,-0.57421 -2.77339,2.13784 -3.68691,0.69211 0.19192,-0.53645 -1.03001,-0.3388 -0.60229,-1.18429 -0.24481,-0.67398 0.80372,-1.83357 -0.52042,-1.45811 -1.02719,-0.0149 -1.62012,-1.69619 -0.98022,-2.50548 -0.65367,-0.36742 -2.64792,-0.45311 -1.65112,-1.86062 0.32296,-0.82528 0.84128,-1.2064 0.85598,-2.23726 0.17632,-0.89598 -0.50081,-2.69659 1.02463,-2.41142 0.10303,-1.09727 0.82231,-2.55271 2.13675,-1.52113 0.70726,0.13194 0.56738,1.20794 1.5355,0.37582 z"
         style="opacity:1;fill:#ffffff;fill-opacity:1;fill-rule:nonzero;stroke:#000000;stroke-width:0.38742289;stroke-linecap:round;stroke-linejoin:round;stroke-miterlimit:4;stroke-dasharray:none;stroke-dashoffset:0;stroke-opacity:1;paint-order:normal" />
      <path
         inkscape:connector-curvature="0"
         id="path884"
         d="m 231.00174,117.26633 c 0.32365,-0.39863 0.0788,-1.44209 -0.44412,-0.72897 -0.49345,0.44847 -0.6092,1.32466 -1.32934,1.39655 -0.4604,-0.35903 -0.36279,-1.05875 -0.3647,-1.60298 -0.79534,-0.55454 -0.83884,0.85201 -1.20641,1.18577 -0.50611,0.37994 -1.30851,0.0332 -1.60936,-0.0444 0.10085,0.73567 0.0348,1.3393 -0.71739,1.62202 -0.11286,-0.4086 -0.54804,0.44037 -0.90837,0.38535 -0.71177,0.50982 0.35231,0.78247 0.76969,0.85599 0.3055,0.19782 0.61863,0.14217 0.23575,0.54652 -0.40056,0.50706 -0.82676,0.98977 -1.01537,1.60769 -0.16308,0.0769 -0.44342,0.73021 0.15278,0.66391 0.49905,0.082 1.39602,-0.2065 1.62647,0.15749 -0.0181,0.6401 -0.1487,1.54696 0.76846,1.45331 0.63333,-0.0319 1.26919,-0.008 1.90375,-0.0146 0.14927,0.39141 0.45286,0.11815 0.42973,0.70492 0.20741,0.67479 1.01944,0.25256 1.53029,0.36425 0.62345,0.15124 0.84791,-0.6282 1.11901,-0.98746 -0.32297,-0.0653 -1.55294,-0.30595 -0.84212,-0.76794 0.29875,-0.50723 1.00947,-0.74942 1.64181,-0.95222 0.451,-0.44602 0.20596,-1.19417 0.26176,-1.79038 -0.0554,-0.66912 0.47928,-1.47116 -0.23223,-1.914 -0.16793,-0.58225 0.30967,-1.5033 -0.59053,-1.43155 -0.47576,-0.20982 -0.99001,-0.10854 -1.17956,-0.7092 z"
         style="opacity:1;fill:#ffffff;fill-opacity:1;fill-rule:nonzero;stroke:#000000;stroke-width:0.38742289;stroke-linecap:round;stroke-linejoin:round;stroke-miterlimit:4;stroke-dasharray:none;stroke-dashoffset:0;stroke-opacity:1;paint-order:normal" />
      <path
         inkscape:connector-curvature="0"
         id="path886"
         d="m 233.67443,126.35349 c 0.73099,0.0258 1.80745,-0.28874 1.46886,0.80422 0.10111,0.60593 2.25265,-0.15829 1.19783,1.04765 -0.23574,0.5383 -0.95295,0.91084 -0.87213,1.47711 0.61732,0.12507 1.93961,-0.36459 1.41589,0.6749 0.25578,0.70741 0.0794,1.51598 0.13042,2.27696 1.04426,0.37249 -0.1289,1.53453 -0.65412,1.89698 -0.0848,0.74303 0.32776,2.0229 -0.9206,1.73432 -0.54226,-0.54151 -0.18775,1.13194 -0.99618,0.55856 -0.20717,-0.49063 -0.29291,-2.16395 -1.17332,-1.18477 -0.45719,0.34721 -1.09407,2.03719 -1.5066,1.02458 0.11395,-0.27046 -0.78852,-0.3686 -1.07676,-0.0476 -0.62176,0.24827 -2.14061,1.36098 -1.95852,-0.0707 0.0685,-0.86553 -1.27741,-0.25323 -1.87018,-0.43693 -0.0922,-0.85727 0.28506,-1.67684 0.67898,-2.38526 -0.26798,-0.41521 -1.27024,0.19264 -0.94635,-0.71612 -0.0867,-0.77587 0.32499,-1.81246 -0.59267,-2.18224 -0.78034,0.0985 -0.62419,-0.48032 -0.13906,-0.86143 0.61208,-0.81164 0.95717,-1.80337 1.63345,-2.54194 0.42246,-0.39906 0.6535,-1.07837 0.99265,-0.4619 0.36064,0.71955 1.09683,0.72432 1.59495,0.18917 0.83997,0.25522 1.83726,0.7349 2.42327,-0.32755 0.39429,-0.0659 0.86154,-0.0704 1.17019,-0.46807 z"
         style="opacity:1;fill:#ffffff;fill-opacity:1;fill-rule:nonzero;stroke:#000000;stroke-width:0.38742289;stroke-linecap:round;stroke-linejoin:round;stroke-miterlimit:4;stroke-dasharray:none;stroke-dashoffset:0;stroke-opacity:1;paint-order:normal" />
      <path
         inkscape:connector-curvature="0"
         id="path888"
         d="m 229.39812,120.07266 c -0.60197,-0.50095 -1.83632,-0.39384 -1.90278,0.5384 -0.29851,0.60721 -0.94442,1.60623 0.0802,1.90783 0.83223,0.18936 2.01558,0.26035 2.50731,-0.59812 0.49506,-0.78178 -0.31025,-1.26821 -0.68468,-1.84811 z"
         style="opacity:1;fill:none;fill-opacity:1;fill-rule:nonzero;stroke:#000000;stroke-width:0.38742289;stroke-linecap:round;stroke-linejoin:round;stroke-miterlimit:4;stroke-dasharray:none;stroke-dashoffset:0;stroke-opacity:1;paint-order:normal" />
      <path
         inkscape:connector-curvature="0"
         id="path890"
         d="m 240.0889,120.07266 c -0.29994,-0.35347 -0.81148,-0.50843 -1.25153,-0.34953 -0.68777,0.23885 -1.21476,0.92161 -1.24496,1.65274 -0.0166,0.40893 0.20498,0.80468 0.54377,1.02807 0.66429,0.78616 1.72941,1.25925 2.76114,1.12475 0.61104,-0.0835 1.20172,-0.44969 1.48379,-1.00632 0.17291,-0.35171 0.22243,-0.81603 -0.0581,-1.1292 -0.41049,-0.45519 -1.02279,-0.62102 -1.5439,-0.91054 -0.19868,-0.10224 -0.38492,-0.23341 -0.55079,-0.37861 -0.0465,-0.0104 -0.093,-0.0209 -0.13944,-0.0314 z"
         style="opacity:1;fill:none;fill-opacity:1;fill-rule:nonzero;stroke:#000000;stroke-width:0.38742289;stroke-linecap:round;stroke-linejoin:round;stroke-miterlimit:4;stroke-dasharray:none;stroke-dashoffset:0;stroke-opacity:1;paint-order:normal" />
      <path
         inkscape:connector-curvature="0"
         id="path892"
         d="m 232.47172,129.42709 c -1.16259,0.23879 -2.66404,1.31859 -1.87973,2.64469 0.71219,0.83141 2.56587,1.16045 3.15834,0.0444 0.33246,-0.98431 0.38319,-3.19208 -1.27861,-2.6891 z"
         style="opacity:1;fill:none;fill-opacity:1;fill-rule:nonzero;stroke:#000000;stroke-width:0.38742289;stroke-linecap:round;stroke-linejoin:round;stroke-miterlimit:4;stroke-dasharray:none;stroke-dashoffset:0;stroke-opacity:1;paint-order:normal" />
    </g>
  </g>
</svg>
