<svg id="Layer_1" data-name="Layer 1" xmlns="http://www.w3.org/2000/svg" viewBox="0 0 233.31 250"><defs><style>.cls-1{fill:none;}</style></defs><title>p2pu-pattern-1</title><polygon class="cls-1" points="233.14 80.1 233.14 97.67 232.97 97.52 212.1 118.83 190.04 98.96 172.85 120.51 152.97 98.65 135.7 117.61 115.89 100.05 99.65 118.29 80.77 98.93 63.77 118.13 42.55 94.7 22.34 118.41 0 97.67 0 80.1 21.8 103.76 41.8 78.51 64.85 99.4 79.07 80.79 98.13 104.15 115.82 80.84 131.63 100.43 150.92 80.18 170.2 102.73 190.83 81.34 212.96 99.79 232.98 79.93 233.14 80.1"/><polygon class="cls-1" points="233.14 205.18 233.14 222.76 232.97 222.6 212.1 243.91 190.04 224.04 172.85 245.59 152.97 223.73 135.7 242.69 115.89 225.14 99.65 243.37 80.77 224.01 63.77 243.21 42.55 219.78 22.34 243.49 0 222.76 0 205.18 21.8 228.84 41.8 203.59 64.85 224.48 79.07 205.87 98.13 229.24 115.82 205.92 131.63 225.51 150.92 205.26 170.2 227.82 190.83 206.42 212.96 224.88 232.98 205.01 233.14 205.18"/><polygon class="cls-1" points="233.14 49.1 233.14 65.68 212.37 86.29 190.09 67.7 170.64 87.86 151.32 65.27 132.26 85.28 115.58 64.61 97.85 87.99 78.81 64.66 63.51 84.69 40.6 63.93 21.23 88.38 0.16 65.52 0 65.68 0 49.1 0.16 48.93 23.18 70.29 42.78 47.31 63.86 70.57 81.12 51.08 99.99 70.41 116.73 51.62 136.45 69.09 152.96 50.96 173.34 73.38 191.23 50.96 212.53 70.13 233.14 49.1"/><polygon class="cls-1" points="233.14 17.56 233.14 35.13 232.97 34.98 212.1 56.29 190.04 36.42 172.85 57.97 152.97 36.1 135.7 55.07 115.89 37.51 99.65 55.75 80.77 36.39 63.77 55.59 42.55 32.16 22.34 55.87 0 35.13 0 17.56 21.8 41.22 41.8 15.97 64.85 36.86 79.07 18.25 98.13 41.61 115.82 18.3 131.63 37.88 150.92 17.64 170.2 40.19 190.83 18.8 212.96 37.25 232.98 17.39 233.14 17.56"/><polygon class="cls-1" points="233.14 174.18 233.14 190.76 212.37 211.37 190.09 192.79 170.64 212.95 151.32 190.35 132.26 210.36 115.58 189.69 97.85 213.07 78.81 189.74 63.51 209.77 40.6 189.01 21.23 213.46 0.16 190.6 0 190.76 0 174.18 0.16 174.01 23.18 195.37 42.78 172.39 63.86 195.66 81.12 176.16 99.99 195.49 116.73 176.7 136.45 194.18 152.96 176.04 173.34 198.46 191.23 176.04 212.53 195.21 233.14 174.18"/><polygon class="cls-1" points="233.14 142.64 233.14 160.21 232.97 160.06 212.1 181.37 190.04 161.5 172.85 183.05 152.97 161.19 135.7 180.15 115.89 162.6 99.65 180.83 80.77 161.47 63.77 180.67 42.55 157.24 22.34 180.95 0 160.21 0 142.64 21.8 166.3 41.8 141.05 64.85 161.94 79.07 143.33 98.13 166.69 115.82 143.38 131.63 162.97 150.92 142.72 170.2 165.27 190.83 143.88 212.96 162.34 232.98 142.47 233.14 142.64"/><polygon class="cls-1" points="233.14 111.64 233.14 128.22 212.37 148.83 190.09 130.24 170.64 150.41 151.32 127.81 132.26 147.82 115.58 127.15 97.85 150.53 78.81 127.2 63.51 147.23 40.6 126.47 21.23 150.92 0.16 128.06 0 128.22 0 111.64 0.16 111.47 23.18 132.83 42.78 109.85 63.86 133.12 81.12 113.62 99.99 132.95 116.73 114.16 136.45 131.63 152.96 113.5 173.34 135.92 191.23 113.5 212.53 132.67 233.14 111.64"/><polygon class="cls-1" points="0.17 236.55 0 236.72 0 250 14.66 250 0.17 236.55"/><polygon class="cls-1" points="107.14 250 128.87 250 116.73 239.24 107.14 250"/><polygon class="cls-1" points="142.56 250 163.34 250 152.96 238.58 142.56 250"/><polygon class="cls-1" points="71.11 250 92.15 250 81.12 238.7 71.11 250"/><polygon class="cls-1" points="29.93 250 56.44 250 42.78 234.93 29.93 250"/><polygon class="cls-1" points="182.12 250 203.93 250 191.24 238.58 182.12 250"/><polygon class="cls-1" points="233.14 236.72 233.14 250 220.13 250 233.14 236.72"/><polygon class="cls-1" points="233.14 0 233.14 3.14 212.37 23.75 190.09 5.16 170.64 25.32 151.32 2.72 132.26 22.73 115.58 2.07 97.85 25.45 78.81 2.12 63.51 22.15 40.6 1.39 21.23 25.84 0.16 2.98 0 3.14 0 0 14.83 0 23.18 7.75 29.79 0 56.58 0 63.86 8.03 70.97 0 92.31 0 99.99 7.87 106.99 0 129.06 0 136.45 6.55 142.41 0 163.49 0 173.34 10.84 181.99 0 204.1 0 212.53 7.59 219.97 0 233.14 0"/><polygon points="233.14 3.14 233.14 17.56 232.98 17.39 212.96 37.25 190.83 18.8 170.2 40.19 150.92 17.64 131.63 37.88 115.82 18.3 98.13 41.61 79.07 18.25 64.85 36.86 41.8 15.97 21.8 41.22 0 17.56 0 3.14 0.16 2.98 21.23 25.84 40.6 1.39 63.51 22.15 78.81 2.12 97.85 25.45 115.58 2.07 132.26 22.73 151.32 2.72 170.64 25.32 190.09 5.16 212.37 23.75 233.14 3.14"/><polygon points="233.14 49.1 212.53 70.13 191.23 50.96 173.34 73.38 152.96 50.96 136.45 69.09 116.73 51.62 99.99 70.41 81.12 51.08 63.86 70.57 42.78 47.31 23.18 70.29 0.16 48.93 0 49.1 0 35.13 22.34 55.87 42.55 32.16 63.77 55.59 80.77 36.39 99.65 55.75 115.89 37.51 135.7 55.07 152.97 36.1 172.85 57.97 190.04 36.42 212.1 56.29 232.97 34.98 233.14 35.13 233.14 49.1"/><polygon points="233.31 48.93 233.14 49.1 233.3 48.93 233.31 48.93"/><polygon points="233.14 65.68 233.14 80.1 232.98 79.93 212.96 99.79 190.83 81.34 170.2 102.73 150.92 80.18 131.63 100.43 115.82 80.84 98.13 104.15 79.07 80.79 64.85 99.4 41.8 78.51 21.8 103.76 0 80.1 0 65.68 0.16 65.52 21.23 88.38 40.6 63.93 63.51 84.69 78.81 64.66 97.85 87.99 115.58 64.61 132.26 85.28 151.32 65.27 170.64 87.86 190.09 67.7 212.37 86.29 233.14 65.68"/><polygon points="29.79 0 14.83 0 23.18 7.75 29.79 0"/><polygon points="181.99 0 163.49 0 173.34 10.84 181.99 0"/><polygon points="219.97 0 204.11 0 212.54 7.59 219.97 0"/><polygon points="107 0 92.31 0 99.99 7.87 107 0"/><polygon points="142.42 0 129.06 0 136.45 6.55 142.42 0"/><polygon points="70.97 0 56.58 0 63.86 8.03 70.97 0"/><polygon points="233.14 128.22 233.14 142.64 232.98 142.47 212.96 162.34 190.83 143.88 170.2 165.27 150.92 142.72 131.63 162.97 115.82 143.38 98.13 166.69 79.07 143.33 64.85 161.94 41.8 141.05 21.8 166.3 0 142.64 0 128.22 0.16 128.06 21.23 150.92 40.6 126.47 63.51 147.23 78.81 127.2 97.85 150.53 115.58 127.15 132.26 147.82 151.32 127.81 170.64 150.41 190.09 130.24 212.37 148.83 233.14 128.22"/><polygon points="233.14 111.64 212.53 132.67 191.23 113.5 173.34 135.92 152.96 113.5 136.45 131.63 116.73 114.16 99.99 132.95 81.12 113.62 63.86 133.12 42.78 109.85 23.18 132.83 0.16 111.47 0 111.64 0 97.67 22.34 118.41 42.55 94.7 63.77 118.13 80.77 98.93 99.65 118.29 115.89 100.05 135.7 117.61 152.97 98.65 172.85 120.51 190.04 98.96 212.1 118.83 232.97 97.52 233.14 97.67 233.14 111.64"/><polygon points="233.31 111.47 233.14 111.64 233.3 111.47 233.31 111.47"/><polygon points="233.14 190.76 233.14 205.18 232.98 205.01 212.96 224.88 190.83 206.42 170.2 227.82 150.92 205.26 131.63 225.51 115.82 205.92 98.13 229.24 79.07 205.87 64.85 224.48 41.8 203.59 21.8 228.84 0 205.18 0 190.76 0.16 190.6 21.23 213.46 40.6 189.01 63.51 209.77 78.81 189.74 97.85 213.07 115.58 189.69 132.26 210.36 151.32 190.35 170.64 212.95 190.09 192.79 212.37 211.37 233.14 190.76"/><polygon points="233.14 174.18 212.53 195.21 191.23 176.04 173.34 198.46 152.96 176.04 136.45 194.18 116.73 176.7 99.99 195.49 81.12 176.16 63.86 195.66 42.78 172.39 23.18 195.37 0.16 174.01 0 174.18 0 160.21 22.34 180.95 42.55 157.24 63.77 180.67 80.77 161.47 99.65 180.83 115.89 162.6 135.7 180.15 152.97 161.19 172.85 183.05 190.04 161.5 212.1 181.37 232.97 160.06 233.14 160.21 233.14 174.18"/><polygon points="233.31 174.01 233.14 174.18 233.3 174.01 233.31 174.01"/><polygon points="233.14 222.76 233.14 236.72 220.13 250 203.92 250 191.23 238.58 182.12 250 163.34 250 152.96 238.58 142.56 250 128.87 250 116.73 239.24 107.14 250 92.15 250 81.12 238.7 71.11 250 56.43 250 42.78 234.93 29.93 250 14.65 250 0.16 236.55 0 236.72 0 222.76 22.34 243.49 42.55 219.78 63.77 243.21 80.77 224.01 99.65 243.37 115.89 225.14 135.7 242.69 152.97 223.73 172.85 245.59 190.04 224.04 212.1 243.91 232.97 222.6 233.14 222.76"/><polygon points="233.31 236.55 233.14 236.72 233.3 236.55 233.31 236.55"/></svg>