<svg xmlns="http://www.w3.org/2000/svg" viewBox="0 0 400 266"><defs><style>.cls-1{isolation:isolate;}.cls-2{mix-blend-mode:multiply;}</style></defs><title>p2pu-pattern-4</title><g class="cls-1"><g id="Layer_1" data-name="Layer 1"><rect x="353.32" y="110.79" width="26.72" height="26.72" transform="translate(205.37 476.07) rotate(-84.08)"/><rect x="324.95" y="77.36" width="28.74" height="28.74" transform="matrix(0.01, -1, 1, 0.01, 244.36, 430.15)"/><rect x="360.88" y="53.51" width="21.72" height="21.72" transform="translate(247.05 420.43) rotate(-80.52)"/><rect x="332.29" y="19.85" width="24.18" height="24.18" transform="translate(274.79 370.73) rotate(-83.69)"/><rect x="298.09" y="45.44" width="27.73" height="27.73" transform="translate(251.47 371.03) rotate(-89.78)"/><rect x="295.07" y="107.26" width="23.65" height="23.65" transform="translate(173.88 420.2) rotate(-87.37)"/><rect x="274.06" y="16.33" width="21.08" height="21.08" transform="translate(243.31 309.74) rotate(-87.09)"/><rect x="264.92" y="72.05" width="29.22" height="29.22" transform="translate(166.52 356.62) rotate(-84.51)"/><rect x="263.59" y="135.57" width="21.74" height="21.74" transform="translate(124.92 419.23) rotate(-89.35)"/><rect x="239.66" y="41.72" width="25.02" height="25.02" transform="translate(164.11 296.67) rotate(-82.18)"/><rect x="233.34" y="100.26" width="27.53" height="27.53" transform="translate(129.81 359.59) rotate(-89.24)"/><rect x="213.7" y="10.69" width="22.23" height="22.23" transform="matrix(0.07, -1, 1, 0.07, 186.63, 244.42)"/><rect x="210.36" y="72.21" width="18.77" height="18.77" transform="translate(122.54 294.89) rotate(-85.87)"/><rect x="203.28" y="129.98" width="22.79" height="22.79" transform="translate(38.92 328.95) rotate(-80.23)"/><rect x="177.75" y="34.53" width="29.27" height="29.27" transform="translate(142.93 241.48) rotate(-89.91)"/><rect x="162.07" y="3.78" width="25.92" height="25.92"/><rect x="149.59" y="66.16" width="20.73" height="20.73" transform="translate(82.38 235.98) rotate(-89.62)"/><rect x="144.39" y="125.81" width="21" height="21" transform="matrix(0.14, -0.99, 0.99, 0.14, -1.59, 270.8)"/><rect x="117.67" y="29.17" width="29.87" height="29.87" transform="translate(88.24 176.62) rotate(-89.89)"/><rect x="113.15" y="89.51" width="28.76" height="28.76" transform="translate(15.94 224.73) rotate(-86.44)"/><rect x="98.93" y="2.37" width="18.61" height="18.61" transform="translate(93.86 119.59) rotate(-88.57)"/><rect x="88.2" y="59.49" width="23.94" height="23.94" transform="translate(13.46 158.77) rotate(-80.7)"/><rect x="81.17" y="117.31" width="27.87" height="27.87" transform="translate(-36.5 225.85) rotate(-89.78)"/><rect x="62.33" y="28.55" width="20.96" height="20.96" transform="translate(29.49 109.38) rotate(-86.57)"/><rect x="54.16" y="85.23" width="27.18" height="27.18" transform="translate(-41.16 148.76) rotate(-80.2)"/><rect x="26.56" y="52.57" width="27.66" height="27.66" transform="translate(-29.19 101.02) rotate(-85.15)"/><rect x="17.57" y="177.28" width="19.38" height="19.38" transform="translate(-161.62 182.12) rotate(-80.24)"/><rect x="12.04" y="230.1" width="29.14" height="29.14" transform="translate(-219.42 238.6) rotate(-82.38)"/><rect x="26.08" y="116.94" width="18.48" height="18.48" transform="translate(-94.35 145.01) rotate(-82.62)"/><rect x="46.39" y="207.17" width="18.45" height="18.45" transform="translate(-167.04 234.97) rotate(-80.35)"/><rect x="45.33" y="147.25" width="28.71" height="28.71" transform="translate(-107.8 201.94) rotate(-83.27)"/><rect x="72.19" y="236.77" width="25.7" height="25.7" transform="translate(-171.51 310.65) rotate(-84.57)"/><rect x="79.61" y="180.6" width="20.87" height="20.87" transform="translate(-110.06 258.58) rotate(-83.42)"/><rect x="103.46" y="209.51" width="27.89" height="27.89" transform="translate(-108.65 335.78) rotate(-88.7)"/><rect x="109.81" y="151.01" width="25.33" height="25.33" transform="translate(-45.87 279.65) rotate(-87.76)"/><rect x="140.78" y="187.06" width="18.09" height="18.09" transform="translate(-57.77 329.54) rotate(-85.35)"/><rect x="162.64" y="213.98" width="29.09" height="29.09" transform="translate(-55.66 399.98) rotate(-88.58)"/><rect x="173.2" y="159.69" width="18.1" height="18.1" transform="translate(-0.36 0.39) rotate(-0.12)"/><rect x="178.06" y="99.69" width="18.52" height="18.52" transform="translate(58.39 283.13) rotate(-83.67)"/><rect x="196.57" y="188.12" width="26.08" height="26.08" transform="translate(-0.92 401.37) rotate(-87.38)"/><rect x="222.35" y="221.96" width="23.25" height="23.25" transform="translate(-22.19 442.6) rotate(-84.16)"/><rect x="229.32" y="161.09" width="25.44" height="25.44" transform="translate(30.35 383.51) rotate(-80.41)"/><rect x="258.35" y="195.18" width="22.1" height="22.1" transform="translate(37.11 453.51) rotate(-84.22)"/><rect x="280.17" y="224.06" width="27.19" height="27.19" transform="matrix(0.03, -1, 1, 0.03, 46.12, 523.05)"/><rect x="289.82" y="166.86" width="24.02" height="24.02" transform="translate(116.9 477.02) rotate(-88.84)"/><rect x="316.27" y="198.38" width="25.83" height="25.83" transform="translate(112.81 537.16) rotate(-89.11)"/><rect x="320.84" y="138.1" width="26.82" height="26.82" transform="translate(128.86 455.64) rotate(-80.35)"/><rect x="346.12" y="233.3" width="20.85" height="20.85" transform="matrix(0.07, -1, 1, 0.07, 89.37, 583.05)"/><rect x="348.18" y="170.5" width="26.86" height="26.86" transform="translate(146.84 528.13) rotate(-85)"/><polygon class="cls-2" points="66.33 20.44 69.48 0 48.21 0 45.55 17.25 66.33 20.44"/><rect class="cls-2" x="98.93" y="2.37" width="18.61" height="18.61" transform="translate(93.86 119.59) rotate(-88.57)"/><rect class="cls-2" x="162.07" y="3.78" width="25.92" height="25.92"/><rect class="cls-2" x="213.7" y="10.69" width="22.23" height="22.23" transform="matrix(0.07, -1, 1, 0.07, 186.63, 244.42)"/><rect class="cls-2" x="274.06" y="16.33" width="21.08" height="21.08" transform="translate(243.31 309.74) rotate(-87.09)"/><rect class="cls-2" x="332.29" y="19.85" width="24.18" height="24.18" transform="translate(274.79 370.73) rotate(-83.69)"/><rect class="cls-2" x="12.04" y="230.1" width="29.14" height="29.14" transform="translate(-219.42 238.6) rotate(-82.38)"/><rect class="cls-2" x="72.19" y="236.77" width="25.7" height="25.7" transform="translate(-171.51 310.65) rotate(-84.57)"/><polygon class="cls-2" points="133.29 241.02 129.91 264.74 138.77 266 153.93 266 157 244.4 133.29 241.02"/><polygon class="cls-2" points="195.74 249.66 195.12 266 214.15 266 214.74 250.38 195.74 249.66"/><polygon class="cls-2" points="252.62 250.76 250.72 266 275.5 266 277.01 253.79 252.62 250.76"/><polygon class="cls-2" points="310.64 255.79 309.59 266 334.56 266 335.35 258.34 310.64 255.79"/><polygon class="cls-2" points="367.91 260.05 367.44 266 394.16 266 394.46 262.14 367.91 260.05"/><polygon class="cls-2" points="392.89 47.93 400 48.87 400 23.23 396.25 22.73 392.89 47.93"/><rect class="cls-2" x="26.56" y="52.57" width="27.66" height="27.66" transform="translate(-29.19 101.02) rotate(-85.15)"/><rect class="cls-2" x="62.33" y="28.55" width="20.96" height="20.96" transform="translate(29.49 109.38) rotate(-86.57)"/><rect class="cls-2" x="88.2" y="59.49" width="23.94" height="23.94" transform="translate(13.46 158.77) rotate(-80.7)"/><rect class="cls-2" x="117.67" y="29.17" width="29.87" height="29.87" transform="translate(88.24 176.62) rotate(-89.89)"/><rect class="cls-2" x="149.59" y="66.16" width="20.73" height="20.73" transform="translate(82.38 235.98) rotate(-89.62)"/><rect class="cls-2" x="177.75" y="34.53" width="29.27" height="29.27" transform="translate(142.93 241.48) rotate(-89.91)"/><rect class="cls-2" x="210.36" y="72.21" width="18.77" height="18.77" transform="translate(122.54 294.89) rotate(-85.87)"/><rect class="cls-2" x="239.66" y="41.72" width="25.02" height="25.02" transform="translate(164.11 296.67) rotate(-82.18)"/><rect class="cls-2" x="264.92" y="72.05" width="29.22" height="29.22" transform="translate(166.52 356.62) rotate(-84.51)"/><rect class="cls-2" x="298.09" y="45.44" width="27.73" height="27.73" transform="translate(251.47 371.03) rotate(-89.78)"/><rect class="cls-2" x="324.95" y="77.36" width="28.74" height="28.74" transform="translate(244.36 430.15) rotate(-89.45)"/><rect class="cls-2" x="360.88" y="53.51" width="21.72" height="21.72" transform="translate(247.05 420.43) rotate(-80.52)"/><polygon class="cls-2" points="386.53 107.84 400 110.13 400 82.73 391.05 81.21 386.53 107.84"/><rect class="cls-2" x="26.08" y="116.94" width="18.48" height="18.48" transform="translate(-94.35 145.01) rotate(-82.62)"/><rect class="cls-2" x="54.16" y="85.23" width="27.18" height="27.18" transform="translate(-41.16 148.76) rotate(-80.2)"/><rect class="cls-2" x="81.17" y="117.31" width="27.87" height="27.87" transform="translate(-36.5 225.85) rotate(-89.78)"/><rect class="cls-2" x="113.15" y="89.51" width="28.76" height="28.76" transform="translate(15.94 224.73) rotate(-86.44)"/><rect class="cls-2" x="144.39" y="125.81" width="21" height="21" transform="translate(-1.59 270.8) rotate(-82.03)"/><rect class="cls-2" x="178.06" y="99.69" width="18.52" height="18.52" transform="translate(58.39 283.13) rotate(-83.67)"/><rect class="cls-2" x="203.28" y="129.98" width="22.79" height="22.79" transform="translate(38.92 328.95) rotate(-80.23)"/><rect class="cls-2" x="233.34" y="100.26" width="27.53" height="27.53" transform="matrix(0.01, -1, 1, 0.01, 129.81, 359.59)"/><rect class="cls-2" x="263.59" y="135.57" width="21.74" height="21.74" transform="translate(124.92 419.23) rotate(-89.35)"/><rect class="cls-2" x="295.07" y="107.26" width="23.65" height="23.65" transform="translate(173.88 420.2) rotate(-87.37)"/><rect class="cls-2" x="320.84" y="138.1" width="26.82" height="26.82" transform="translate(128.86 455.64) rotate(-80.35)"/><rect class="cls-2" x="353.32" y="110.79" width="26.72" height="26.72" transform="translate(205.37 476.07) rotate(-84.08)"/><polygon class="cls-2" points="383.88 167.48 400 168.99 400 144.71 386.13 143.41 383.88 167.48"/><rect class="cls-2" x="17.57" y="177.28" width="19.38" height="19.38" transform="translate(-161.62 182.12) rotate(-80.24)"/><rect class="cls-2" x="45.33" y="147.25" width="28.71" height="28.71" transform="translate(-107.8 201.94) rotate(-83.27)"/><rect class="cls-2" x="79.61" y="180.6" width="20.87" height="20.87" transform="translate(-110.06 258.58) rotate(-83.42)"/><rect class="cls-2" x="109.81" y="151.01" width="25.33" height="25.33" transform="translate(-45.87 279.65) rotate(-87.76)"/><rect class="cls-2" x="140.78" y="187.06" width="18.09" height="18.09" transform="translate(-57.77 329.54) rotate(-85.35)"/><rect class="cls-2" x="173.2" y="159.69" width="18.1" height="18.1" transform="translate(-0.36 0.39) rotate(-0.12)"/><rect class="cls-2" x="196.57" y="188.12" width="26.08" height="26.08" transform="translate(-0.92 401.37) rotate(-87.38)"/><rect class="cls-2" x="229.32" y="161.09" width="25.44" height="25.44" transform="translate(30.35 383.51) rotate(-80.41)"/><rect class="cls-2" x="258.35" y="195.18" width="22.1" height="22.1" transform="translate(37.11 453.51) rotate(-84.22)"/><rect class="cls-2" x="289.82" y="166.86" width="24.02" height="24.02" transform="translate(116.9 477.02) rotate(-88.84)"/><rect class="cls-2" x="316.27" y="198.38" width="25.83" height="25.83" transform="translate(112.81 537.16) rotate(-89.11)"/><rect class="cls-2" x="348.18" y="170.5" width="26.86" height="26.86" transform="translate(146.84 528.13) rotate(-85)"/><polygon class="cls-2" points="377.48 230.8 400 230.84 400 201.91 377.53 201.87 377.48 230.8"/><rect class="cls-2" x="46.39" y="207.17" width="18.45" height="18.45" transform="translate(-167.04 234.97) rotate(-80.35)"/><rect class="cls-2" x="103.46" y="209.51" width="27.89" height="27.89" transform="translate(-108.65 335.78) rotate(-88.7)"/><rect class="cls-2" x="162.64" y="213.98" width="29.09" height="29.09" transform="translate(-55.66 399.98) rotate(-88.58)"/><rect class="cls-2" x="222.35" y="221.96" width="23.25" height="23.25" transform="translate(-22.19 442.6) rotate(-84.16)"/><rect class="cls-2" x="280.17" y="224.06" width="27.19" height="27.19" transform="matrix(0.03, -1, 1, 0.03, 46.12, 523.05)"/><rect class="cls-2" x="346.12" y="233.3" width="20.85" height="20.85" transform="matrix(0.07, -1, 1, 0.07, 89.37, 583.05)"/><polygon class="cls-2" points="156.93 0 141.77 0 156.62 2.12 156.93 0"/><polygon class="cls-2" points="214.02 3.39 214.15 0 195.12 0 195.01 2.66 214.02 3.39"/><polygon class="cls-2" points="273.98 12.18 275.5 0 250.72 0 249.59 9.15 273.98 12.18"/><polygon class="cls-2" points="332.81 17.05 334.56 0 309.59 0 308.1 14.51 332.81 17.05"/><polygon class="cls-2" points="392.38 22.69 394.16 0 367.44 0 365.82 20.6 392.38 22.69"/><polygon class="cls-2" points="48.75 262.47 48.21 266 69.48 266 69.53 265.67 48.75 262.47"/><polygon class="cls-2" points="21.44 26.08 0 23.23 0 48.87 18.09 51.28 21.44 26.08"/><polygon class="cls-2" points="17.68 85.74 0 82.73 0 110.13 13.15 112.37 17.68 85.74"/><polygon class="cls-2" points="10.2 145.67 0 144.71 0 168.99 7.94 169.74 10.2 145.67"/><polygon class="cls-2" points="6.46 201.92 0 201.91 0 230.84 6.41 230.85 6.46 201.92"/></g></g></svg>