<svg id="Layer_1" data-name="Layer 1" xmlns="http://www.w3.org/2000/svg" viewBox="0 0 248 240"><title>p2pu-pattern-2</title><path d="M30.75,8.91A8.91,8.91,0,0,0,39.66,0H21.83A8.91,8.91,0,0,0,30.75,8.91Z"/><path d="M52.48.43a9.49,9.49,0,0,0,19,0c0-.15,0-.29,0-.43H52.5C52.5.14,52.48.28,52.48.43Z"/><path d="M83.4.53a9.3,9.3,0,0,0,9.3,9.31A9.31,9.31,0,0,0,102,.53c0-.18,0-.35,0-.53H83.43C83.42.18,83.4.35,83.4.53Z"/><path d="M113.74.59a9.35,9.35,0,0,0,9.35,9.35A9.36,9.36,0,0,0,132.45.59c0-.2,0-.4,0-.59H113.77A5.68,5.68,0,0,0,113.74.59Z"/><path d="M145.56.55a9.3,9.3,0,1,0,18.6,0c0-.19,0-.37,0-.55H145.59C145.58.18,145.56.36,145.56.55Z"/><path d="M185.6,9.12A9.14,9.14,0,0,0,194.75,0h-18.3A9.15,9.15,0,0,0,185.6,9.12Z"/><path d="M216.8,9.5A9.52,9.52,0,0,0,226.32,0h-19A9.52,9.52,0,0,0,216.8,9.5Z"/><circle cx="29.9" cy="29.97" r="9.64"/><circle cx="61.56" cy="29.25" r="7.53"/><circle cx="92.42" cy="29.63" r="8.85"/><circle cx="123.55" cy="30.03" r="8.11" transform="translate(-2.09 49.56) rotate(-22.5)"/><circle cx="154.43" cy="30.05" r="8.76"/><circle cx="184.69" cy="29.86" r="9.39"/><path d="M216,20.82A8.93,8.93,0,1,0,225,29.75,8.93,8.93,0,0,0,216,20.82Z"/><circle cx="30.24" cy="59.8" r="8.08"/><path d="M61.51,70.05A10.21,10.21,0,1,0,51.3,59.84,10.21,10.21,0,0,0,61.51,70.05Z"/><circle cx="91.98" cy="59.89" r="9.13" transform="translate(-15.92 39.76) rotate(-22.5)"/><path d="M123.69,51.93a8.23,8.23,0,1,0,8.23,8.23A8.22,8.22,0,0,0,123.69,51.93Z"/><circle cx="154.63" cy="59.29" r="9.16"/><circle cx="185.43" cy="59.32" r="9.84"/><path d="M216.35,67.69a7.9,7.9,0,1,0-7.89-7.89A7.89,7.89,0,0,0,216.35,67.69Z"/><circle cx="30.04" cy="89.91" r="8.82"/><circle cx="60.99" cy="89.9" r="8.33" transform="translate(-13.61 10.93) rotate(-9.22)"/><circle cx="92.14" cy="88.89" r="7.53"/><path d="M130.91,89.43a7.44,7.44,0,1,0-7.43,7.43A7.43,7.43,0,0,0,130.91,89.43Z"/><circle cx="154.08" cy="89.56" r="9.5"/><circle cx="185.27" cy="89.22" r="8.45" transform="translate(31.94 226.24) rotate(-67.5)"/><circle cx="216.05" cy="88.99" r="8.76" transform="translate(51.15 254.54) rotate(-67.5)"/><circle cx="30.96" cy="119.24" r="8.12" transform="translate(-91.06 102.21) rotate(-67.5)"/><circle cx="62.39" cy="119.2" r="7.63"/><circle cx="92.61" cy="119.59" r="8.16" transform="translate(-53.31 159.39) rotate(-67.5)"/><path d="M123.63,126.33a7.61,7.61,0,1,0-7.61-7.61A7.61,7.61,0,0,0,123.63,126.33Z"/><circle cx="154.52" cy="119.02" r="8.61" transform="translate(12.29 252.48) rotate(-80.78)"/><path d="M179,119.14a7.36,7.36,0,1,0,7.36-7.36A7.37,7.37,0,0,0,179,119.14Z"/><circle cx="217.34" cy="118.65" r="8.02" transform="translate(24.55 274.04) rotate(-67.5)"/><circle cx="29.55" cy="149.18" r="10.2"/><circle cx="61.32" cy="149.3" r="8.77" transform="translate(-23.12 11.75) rotate(-9.22)"/><circle cx="92.13" cy="149.34" r="8.31"/><circle cx="122.81" cy="149.15" r="10.33" transform="translate(-22.31 21.6) rotate(-9.22)"/><circle cx="153.68" cy="150" r="8.69" transform="translate(-43.72 234.58) rotate(-67.5)"/><circle cx="185.15" cy="149.06" r="8.71" transform="translate(-42.95 82.2) rotate(-22.5)"/><circle cx="215.95" cy="149.74" r="9.3"/><circle cx="30" cy="178.86" r="8.07"/><circle cx="61.58" cy="178.95" r="10.15"/><circle cx="91.9" cy="179.01" r="10.04" transform="translate(-108.65 195.41) rotate(-67.5)"/><circle cx="122.98" cy="179.42" r="8.18" transform="translate(-12.41 9.17) rotate(-4.07)"/><circle cx="154.32" cy="178.63" r="8.68"/><circle cx="185.24" cy="178.66" r="7.94" transform="translate(-26.23 31.98) rotate(-9.22)"/><path d="M216.12,186.88a8.34,8.34,0,1,0-8.34-8.33A8.34,8.34,0,0,0,216.12,186.88Z"/><circle cx="31.1" cy="208.18" r="8.38"/><path d="M62.22,201.23a7.59,7.59,0,1,0,7.59,7.59A7.59,7.59,0,0,0,62.22,201.23Z"/><path d="M93.82,200.08a7.79,7.79,0,1,0,7.79,7.79A7.79,7.79,0,0,0,93.82,200.08Z"/><circle cx="124.55" cy="208.63" r="9.66"/><circle cx="155.2" cy="208.84" r="9.06"/><circle cx="186.39" cy="208.24" r="8.52" transform="translate(-65.5 87.18) rotate(-22.5)"/><circle cx="216.81" cy="208.04" r="8.72"/><path d="M30.75,231.07A8.92,8.92,0,0,0,21.83,240H39.66A8.92,8.92,0,0,0,30.75,231.07Z"/><path d="M62,230.94A9.48,9.48,0,0,0,52.5,240H71.43A9.47,9.47,0,0,0,62,230.94Z"/><path d="M92.7,231.23A9.28,9.28,0,0,0,83.43,240H102A9.29,9.29,0,0,0,92.7,231.23Z"/><path d="M123.09,231.23a9.34,9.34,0,0,0-9.32,8.77h18.65A9.36,9.36,0,0,0,123.09,231.23Z"/><path d="M154.86,231.25a9.29,9.29,0,0,0-9.27,8.75h18.54A9.29,9.29,0,0,0,154.86,231.25Z"/><path d="M185.6,230.82a9.15,9.15,0,0,0-9.15,9.15v0h18.3v0A9.16,9.16,0,0,0,185.6,230.82Z"/><path d="M216.8,230.46a9.52,9.52,0,0,0-9.52,9.52v0h19v0A9.52,9.52,0,0,0,216.8,230.46Z"/><path d="M8.81,0H0V9.41A9.52,9.52,0,0,0,8.81,0Z"/><path d="M8.1,29.81A8.48,8.48,0,0,0,0,21.34V38.28A8.47,8.47,0,0,0,8.1,29.81Z"/><path d="M8,59.38a8.08,8.08,0,0,0-8-8.07V67.46A8.08,8.08,0,0,0,8,59.38Z"/><path d="M8.59,89.54A8.65,8.65,0,0,0,0,80.89v17.3A8.65,8.65,0,0,0,8.59,89.54Z"/><path d="M8.72,119.36a9,9,0,0,0-8.72-9v18A9,9,0,0,0,8.72,119.36Z"/><path d="M7.7,149.86a8.43,8.43,0,0,0-7.7-8.4v16.79A8.43,8.43,0,0,0,7.7,149.86Z"/><path d="M7.09,178.9A7.72,7.72,0,0,0,0,171.21v15.38A7.72,7.72,0,0,0,7.09,178.9Z"/><path d="M.57,218.75a10,10,0,1,0,0-20l-.57,0v20Z"/><path d="M0,230.44V240H8.81v-.08A9.5,9.5,0,0,0,0,230.44Z"/><path d="M247.29,9.44c.24,0,.48,0,.71,0V0H237.78A9.51,9.51,0,0,0,247.29,9.44Z"/><path d="M239.12,29.81a8.49,8.49,0,0,0,8.49,8.49l.39,0V21.34l-.39,0A8.49,8.49,0,0,0,239.12,29.81Z"/><path d="M239.84,59.38a8.08,8.08,0,0,0,8.08,8.08H248V51.31h-.08A8.07,8.07,0,0,0,239.84,59.38Z"/><path d="M239.28,89.54a8.66,8.66,0,0,0,8.66,8.66H248V80.89h-.06A8.66,8.66,0,0,0,239.28,89.54Z"/><path d="M238.73,119.36a9,9,0,0,0,9,9H248v-18l-.28,0A9,9,0,0,0,238.73,119.36Z"/><path d="M238.84,149.86a8.42,8.42,0,0,0,8.43,8.43c.25,0,.49,0,.73,0V141.46c-.24,0-.48,0-.73,0A8.43,8.43,0,0,0,238.84,149.86Z"/><path d="M239.64,178.9a7.72,7.72,0,0,0,7.72,7.73c.22,0,.43,0,.64,0V171.21c-.21,0-.42,0-.64,0A7.72,7.72,0,0,0,239.64,178.9Z"/><path d="M238.57,208.75a10,10,0,0,0,9.43,10v-20A10,10,0,0,0,238.57,208.75Z"/><path d="M247.29,230.4a9.52,9.52,0,0,0-9.52,9.52s0,.05,0,.08H248v-9.56C247.77,230.42,247.53,230.4,247.29,230.4Z"/></svg>