<?xml version="1.0" encoding="utf-8"?>
<!-- Generator: Adobe Illustrator 23.0.4, SVG Export Plug-In . SVG Version: 6.00 Build 0)  -->
<svg version="1.1" id="Layer_1" xmlns="http://www.w3.org/2000/svg" xmlns:xlink="http://www.w3.org/1999/xlink" x="0px" y="0px"
	 viewBox="0 0 92.9 90.9" style="enable-background:new 0 0 92.9 90.9;" xml:space="preserve">
<style type="text/css">
	.st0{fill:#FFFFFF;}
</style>
<title>P2PU Avatars</title>
<path class="st0" d="M58.8,61.6c4.9-3.8,7.8-9.6,7.8-15.7c-0.2-11.1-9.5-20-20.6-19.7c-10.8,0.2-19.5,8.9-19.7,19.7
	c0,6.2,2.9,12,7.8,15.7c-7.3,2.3-13.9,6.6-18.9,12.4c-4.2,4.9-7.2,10.7-8.7,17h80C83,77,72.6,65.8,58.8,61.6z M34.6,49.8
	c-1.4,0-2.5-1.2-2.5-2.6s1.2-2.5,2.6-2.5c1.4,0,2.5,1.1,2.5,2.5C37.1,48.7,36,49.8,34.6,49.8z M54.7,53.3c-2.1,4.6-7.6,6.6-12.2,4.4
	c-1.9-0.9-3.5-2.5-4.4-4.4c-0.4-0.9,0-1.9,0.8-2.3c0,0,0,0,0,0c0.9-0.4,1.9,0,2.3,0.9c1.3,2.8,4.7,4,7.5,2.7
	c1.2-0.6,2.2-1.5,2.7-2.7C52,51,53,50.6,53.9,51C54.7,51.4,55.1,52.4,54.7,53.3C54.7,53.3,54.7,53.3,54.7,53.3z M55.7,47.3
	c0-1.4,1.1-2.6,2.5-2.6c1.4,0,2.6,1.1,2.6,2.5c0,1.4-1.1,2.6-2.5,2.6c0,0,0,0,0,0C56.9,49.8,55.7,48.7,55.7,47.3
	C55.7,47.3,55.7,47.3,55.7,47.3L55.7,47.3z"/>
</svg>
